SplineFontDB: 3.0
FontName: PropCourierSans
FullName: PropCourier
FamilyName: PropCourierSans
Weight: Book
Copyright: PropCourier was designed by Manufactura Independente (Ana Carvalho & Ricardo Lafuente), in October 2010. It is a friendly fork of OSP's NotCourier. \nNotCourier was designed by OSP (Ludivine Loiseau), in July 2008. It is based on Nimbus Mono, copyright (URW)++,Copyright 1999 by (URW)++ Design & Development; Cyrillic glyphs added by Valek Filippov (C) 2001-2005
Version: 1.2
ItalicAngle: 0
UnderlinePosition: -100
UnderlineWidth: 50
Ascent: 800
Descent: 200
sfntRevision: 0x00013333
LayerCount: 2
Layer: 0 1 "Back"  1
Layer: 1 1 "Fore"  0
XUID: [1021 880 1058947518 7931409]
FSType: 0
OS2Version: 1
OS2_WeightWidthSlopeOnly: 0
OS2_UseTypoMetrics: 1
CreationTime: 1178440826
ModificationTime: 1304886089
PfmFamily: 17
TTFWeight: 400
TTFWidth: 5
LineGap: 90
VLineGap: 0
Panose: 2 11 3 9 3 1 2 2 2 3
OS2TypoAscent: 0
OS2TypoAOffset: 1
OS2TypoDescent: 0
OS2TypoDOffset: 1
OS2TypoLinegap: 90
OS2WinAscent: 0
OS2WinAOffset: 1
OS2WinDescent: 1
OS2WinDOffset: 1
HheadAscent: 0
HheadAOffset: 1
HheadDescent: -1
HheadDOffset: 1
OS2SubXSize: 2
OS2SubYSize: 0
OS2SubXOff: 29520
OS2SubYOff: 0
OS2SupXSize: 14320
OS2SupYSize: 0
OS2SupXOff: 3488
OS2SupYOff: 32767
OS2StrikeYSize: 0
OS2StrikeYPos: 32767
OS2Vendor: 'PfEd'
OS2CodePages: 20000097.00000000
OS2UnicodeRanges: a00002af.5000204a.00000000.00000000
Lookup: 4 0 0 "'dlig' Discretionary Ligatures lookup 0"  {"'dlig' Discretionary Ligatures lookup 0 subtable"  } ['dlig' ('DFLT' <'dflt' > 'cyrl' <'dflt' > 'grek' <'dflt' > 'latn' <'dflt' > ) ]
Lookup: 4 0 1 "'liga' Standard Ligatures in Latin lookup 1"  {"'liga' Standard Ligatures in Latin lookup 1 subtable"  } ['liga' ('latn' <'dflt' > ) ]
Lookup: 4 0 0 "'ornm' Ornaments lookup 2"  {"'ornm' Ornaments lookup 2 subtable"  } ['ornm' ('DFLT' <'dflt' > 'cyrl' <'dflt' > 'grek' <'dflt' > 'latn' <'dflt' > ) ]

StartChar: .notdef
Encoding: 65536 -1 0
Width: 364
Flags: W
LayerCount: 2
Fore
SplineSet
33 0 m 1,0,-1
 33 666 l 1,1,-1
 298 666 l 1,2,-1
 298 0 l 1,3,-1
 33 0 l 1,0,-1
66 33 m 1,4,-1
 265 33 l 1,5,-1
 265 633 l 1,6,-1
 66 633 l 1,7,-1
 66 33 l 1,4,-1
EndSplineSet
EndChar

StartChar: exclam
Encoding: 33 33 4
Width: 360
GlyphClass: 2
Flags: W
LayerCount: 2
Fore
SplineSet
175 76 m 2,0,-1
 185 76 l 2,1,2
 221 76 221 76 224 31 c 0,3,4
 224 22 224 22 223 13.5 c 128,-1,5
 222 5 222 5 212.5 -5 c 128,-1,6
 203 -15 203 -15 185 -15 c 2,7,-1
 175 -15 l 2,8,9
 136 -15 136 -15 136 31 c 0,10,11
 136 76 136 76 175 76 c 2,0,-1
207 563 m 2,12,-1
 199 237 l 2,13,14
 198 209 198 209 178 209 c 0,15,16
 159 209 159 209 158 237 c 2,17,-1
 150 563 l 2,18,19
 149 570 149 570 149 579 c 0,20,21
 149 618 149 618 179 618 c 0,22,23
 208 618 208 618 208 579 c 0,24,25
 208 571 208 571 207 563 c 2,12,-1
EndSplineSet
EndChar

StartChar: quotedbl
Encoding: 34 34 5
Width: 375
GlyphClass: 2
Flags: W
LayerCount: 2
Fore
SplineSet
229 604 m 1,0,-1
 287 604 l 1,1,-1
 281 441 l 2,2,3
 279 408 279 408 256 408 c 0,4,5
 235 408 235 408 234 441 c 2,6,-1
 229 604 l 1,0,-1
87 604 m 1,7,-1
 145 604 l 1,8,-1
 139 441 l 2,9,10
 137 408 137 408 114 408 c 0,11,12
 93 408 93 408 92 441 c 2,13,-1
 87 604 l 1,7,-1
EndSplineSet
EndChar

StartChar: numbersign
Encoding: 35 35 6
Width: 534
GlyphClass: 2
Flags: W
LayerCount: 2
Fore
SplineSet
357 356 m 1,0,-1
 348 230 l 1,1,-1
 428 230 l 2,2,3
 455 230 455 230 455 210 c 0,4,5
 455 189 455 189 428 189 c 2,6,-1
 345 189 l 1,7,-1
 329 -36 l 2,8,9
 328 -62 328 -62 308 -62 c 0,10,11
 300 -62 300 -62 293.5 -55.5 c 128,-1,12
 287 -49 287 -49 288 -41 c 2,13,-1
 289 -33 l 1,14,-1
 304 189 l 1,15,-1
 213 189 l 1,16,-1
 198 -36 l 1,17,18
 195 -62 195 -62 177 -62 c 0,19,20
 169 -62 169 -62 163 -56 c 128,-1,21
 157 -50 157 -50 157 -41 c 2,22,-1
 157 -33 l 1,23,-1
 173 189 l 1,24,-1
 86 189 l 2,25,26
 59 189 59 189 59 210 c 0,27,28
 59 230 59 230 86 230 c 2,29,-1
 175 230 l 1,30,-1
 184 356 l 1,31,-1
 106 356 l 2,32,33
 79 356 79 356 79 377 c 0,34,35
 79 397 79 397 106 397 c 2,36,-1
 187 397 l 1,37,-1
 203 622 l 2,38,39
 204 647 204 647 224 647 c 0,40,41
 232 647 232 647 238.5 640.5 c 128,-1,42
 245 634 245 634 244 626 c 2,43,-1
 243 619 l 1,44,-1
 228 397 l 1,45,-1
 319 397 l 1,46,-1
 335 622 l 2,47,48
 336 647 336 647 355 647 c 0,49,50
 377 647 377 647 375 619 c 2,51,-1
 359 397 l 1,52,-1
 448 397 l 2,53,54
 475 397 475 397 475 377 c 0,55,56
 475 356 475 356 448 356 c 2,57,-1
 357 356 l 1,0,-1
316 356 m 1,58,-1
 225 356 l 1,59,-1
 216 230 l 1,60,-1
 307 230 l 1,61,-1
 316 356 l 1,58,-1
EndSplineSet
EndChar

StartChar: dollar
Encoding: 36 36 7
Width: 499
GlyphClass: 2
Flags: W
LayerCount: 2
Fore
SplineSet
231 576 m 1,0,-1
 231 628 l 2,1,2
 231 655 231 655 252 655 c 0,3,4
 272 655 272 655 272 628 c 2,5,-1
 272 576 l 1,6,7
 305 573 305 573 327 564 c 128,-1,8
 349 555 349 555 376 534 c 1,9,10
 378 563 378 563 397 563 c 0,11,12
 417 563 417 563 417 536 c 2,13,-1
 417 476 l 2,14,15
 417 449 417 449 397 449 c 0,16,17
 379 449 379 449 376 471 c 0,18,19
 372 498 372 498 335.5 518 c 128,-1,20
 299 538 299 538 253 538 c 0,21,22
 201 538 201 538 164.5 507.5 c 128,-1,23
 128 477 128 477 128 434 c 0,24,25
 128 393 128 393 163 371 c 0,26,27
 188 356 188 356 263 342 c 0,28,29
 355 324 355 324 389 301 c 0,30,31
 438 268 438 268 438 201 c 0,32,33
 438 142 438 142 393 102 c 128,-1,34
 348 62 348 62 272 54 c 1,35,-1
 272 -65 l 2,36,37
 272 -92 272 -92 252 -92 c 0,38,39
 231 -92 231 -92 231 -65 c 2,40,-1
 231 54 l 1,41,42
 196 56 196 56 160 71 c 128,-1,43
 124 86 124 86 105 108 c 1,44,-1
 105 92 l 2,45,46
 105 65 105 65 85 65 c 0,47,48
 64 65 64 65 64 92 c 2,49,-1
 64 171 l 2,50,51
 64 198 64 198 85 198 c 0,52,53
 102 198 102 198 105 173 c 0,54,55
 108 141 108 141 151.5 117 c 128,-1,56
 195 93 195 93 250 93 c 0,57,58
 314 93 314 93 355.5 123.5 c 128,-1,59
 397 154 397 154 397 201 c 128,-1,60
 397 248 397 248 359 272 c 1,61,62
 331 288 331 288 253 303 c 0,63,64
 171 318 171 318 134 341 c 1,65,66
 87 373 87 373 87 435 c 0,67,68
 87 489 87 489 127.5 529 c 128,-1,69
 168 569 168 569 231 576 c 1,0,-1
EndSplineSet
EndChar

StartChar: percent
Encoding: 37 37 8
Width: 539
GlyphClass: 2
Flags: W
LayerCount: 2
Fore
SplineSet
330 236 m 0,0,1
 382 236 382 236 417.5 199.5 c 128,-1,2
 453 163 453 163 453 110 c 0,3,4
 453 60 453 60 417 24 c 128,-1,5
 381 -12 381 -12 331 -12 c 0,6,7
 280 -12 280 -12 244 24.5 c 128,-1,8
 208 61 208 61 208 112 c 128,-1,9
 208 163 208 163 244 199.5 c 128,-1,10
 280 236 280 236 330 236 c 0,0,1
330 198 m 0,11,12
 295 198 295 198 270.5 173 c 128,-1,13
 246 148 246 148 246 112 c 0,14,15
 246 77 246 77 271 51.5 c 128,-1,16
 296 26 296 26 331 26 c 0,17,18
 365 26 365 26 390 51 c 128,-1,19
 415 76 415 76 415 111 c 0,20,21
 415 148 415 148 390.5 173 c 128,-1,22
 366 198 366 198 330 198 c 0,11,12
206 611 m 0,23,24
 258 611 258 611 293.5 575 c 128,-1,25
 329 539 329 539 329 486 c 0,26,27
 329 436 329 436 293 399.5 c 128,-1,28
 257 363 257 363 207 363 c 0,29,30
 156 363 156 363 120 399.5 c 128,-1,31
 84 436 84 436 84 487 c 128,-1,32
 84 538 84 538 120 574.5 c 128,-1,33
 156 611 156 611 206 611 c 0,23,24
206 573 m 0,34,35
 172 573 172 573 147 547.5 c 128,-1,36
 122 522 122 522 122 487 c 128,-1,37
 122 452 122 452 147 426.5 c 128,-1,38
 172 401 172 401 207 401 c 0,39,40
 241 401 241 401 266 426.5 c 128,-1,41
 291 452 291 452 291 486 c 0,42,43
 291 523 291 523 266.5 548 c 128,-1,44
 242 573 242 573 206 573 c 0,34,35
464 344 m 2,45,-1
 85 222 l 2,46,47
 77 219 77 219 73 219 c 0,48,49
 67 219 67 219 61.5 225 c 128,-1,50
 56 231 56 231 56 238 c 0,51,52
 56 252 56 252 74 258 c 2,53,-1
 453 380 l 2,54,55
 461 382 461 382 465 382 c 0,56,57
 472 382 472 382 477 376.5 c 128,-1,58
 482 371 482 371 482 363 c 0,59,60
 482 350 482 350 464 344 c 2,45,-1
EndSplineSet
EndChar

StartChar: ampersand
Encoding: 38 38 9
Width: 486
GlyphClass: 2
Flags: W
LayerCount: 2
Fore
SplineSet
354 0 m 1,0,-1
 323 48 l 1,1,2
 278 -16 278 -16 211 -16 c 0,3,4
 152 -16 152 -16 109 31 c 128,-1,5
 66 78 66 78 66 142 c 0,6,7
 66 194 66 194 95.5 232.5 c 128,-1,8
 125 271 125 271 177 287 c 1,9,10
 143 342 143 342 135 360 c 128,-1,11
 127 378 127 378 127 400 c 0,12,13
 127 449 127 449 163.5 484 c 128,-1,14
 200 519 200 519 250 519 c 0,15,16
 283 519 283 519 316 499 c 1,17,-1
 326 505 l 2,18,19
 336 510 336 510 342 510 c 0,20,21
 349 510 349 510 355 503.5 c 128,-1,22
 361 497 361 497 361 489 c 0,23,24
 361 477 361 477 345 468 c 2,25,-1
 313 452 l 1,26,27
 283 478 283 478 250 478 c 0,28,29
 218 478 218 478 193 453.5 c 128,-1,30
 168 429 168 429 168 398 c 128,-1,31
 168 367 168 367 212 298 c 2,32,-1
 323 121 l 1,33,34
 354 179 354 179 369 249 c 1,35,-1
 412 249 l 2,36,37
 439 249 439 249 439 229 c 0,38,39
 439 208 439 208 412 208 c 2,40,-1
 400 208 l 1,41,42
 378 125 378 125 347 82 c 1,43,-1
 374 41 l 1,44,-1
 412 41 l 2,45,46
 439 41 439 41 439 21 c 0,47,48
 439 0 439 0 412 0 c 2,49,-1
 354 0 l 1,0,-1
299 86 m 1,50,-1
 194 251 l 1,51,52
 154 242 154 242 130.5 212.5 c 128,-1,53
 107 183 107 183 107 142 c 0,54,55
 107 95 107 95 138 60 c 128,-1,56
 169 25 169 25 210 25 c 0,57,58
 265 25 265 25 299 86 c 1,50,-1
EndSplineSet
EndChar

StartChar: quotesingle
Encoding: 39 39 10
Width: 233
GlyphClass: 2
Flags: W
LayerCount: 2
Fore
SplineSet
87 604 m 1,0,-1
 145 604 l 1,1,-1
 139 441 l 2,2,3
 137 408 137 408 114 408 c 0,4,5
 93 408 93 408 92 441 c 2,6,-1
 87 604 l 1,0,-1
EndSplineSet
EndChar

StartChar: parenleft
Encoding: 40 40 11
Width: 327
GlyphClass: 2
Flags: W
LayerCount: 2
Fore
SplineSet
228 604 m 0,0,1
 236 604 236 604 242 598 c 128,-1,2
 248 592 248 592 248 584 c 0,3,4
 248 580 248 580 245 573 c 0,5,6
 135 379 135 379 135 240 c 0,7,8
 135 164 135 164 162.5 85.5 c 128,-1,9
 190 7 190 7 245 -93 c 0,10,11
 248 -100 248 -100 248 -104 c 0,12,13
 248 -112 248 -112 241.5 -118 c 128,-1,14
 235 -124 235 -124 227 -124 c 0,15,16
 214 -124 214 -124 185 -77 c 0,17,18
 84 91 84 91 84 243 c 0,19,20
 84 400 84 400 194 570 c 0,21,22
 215 604 215 604 228 604 c 0,0,1
EndSplineSet
EndChar

StartChar: parenright
Encoding: 41 41 12
Width: 327
GlyphClass: 2
Flags: W
LayerCount: 2
Fore
SplineSet
105 604 m 0,0,1
 119 604 119 604 147 557 c 0,2,3
 248 391 248 391 248 237 c 0,4,5
 248 80 248 80 138 -90 c 0,6,7
 117 -124 117 -124 104 -124 c 0,8,9
 96 -124 96 -124 90 -118 c 128,-1,10
 84 -112 84 -112 84 -104 c 0,11,12
 84 -100 84 -100 87 -93 c 0,13,14
 197 101 197 101 197 240 c 0,15,16
 197 317 197 317 170 395 c 128,-1,17
 143 473 143 473 87 573 c 0,18,19
 84 580 84 580 84 584 c 0,20,21
 84 592 84 592 90.5 598 c 128,-1,22
 97 604 97 604 105 604 c 0,0,1
EndSplineSet
EndChar

StartChar: asterisk
Encoding: 42 42 13
Width: 432
GlyphClass: 2
Flags: W
LayerCount: 2
Fore
SplineSet
194 438 m 1,0,-1
 194 577 l 2,1,2
 194 604 194 604 215 604 c 0,3,4
 235 604 235 604 235 577 c 2,5,-1
 235 438 l 1,6,-1
 368 481 l 2,7,8
 375 484 375 484 383 484 c 0,9,10
 390 484 390 484 396 478 c 128,-1,11
 402 472 402 472 402 464 c 0,12,13
 402 449 402 449 381 442 c 2,14,-1
 248 400 l 1,15,-1
 329 288 l 1,16,17
 336 276 336 276 336 270 c 0,18,19
 336 262 336 262 330 256 c 128,-1,20
 324 250 324 250 316 250 c 0,21,22
 306 250 306 250 296 264 c 2,23,-1
 214 376 l 1,24,-1
 133 264 l 2,25,26
 122 250 122 250 112 250 c 0,27,28
 104 250 104 250 98 256 c 128,-1,29
 92 262 92 262 92 271 c 0,30,31
 92 277 92 277 100 288 c 2,32,-1
 181 400 l 1,33,-1
 48 442 l 1,34,-1
 44 443 l 2,35,36
 38 444 38 444 33 450 c 128,-1,37
 28 456 28 456 28 463 c 0,38,39
 28 471 28 471 34 477 c 128,-1,40
 40 483 40 483 48 483 c 0,41,42
 51 483 51 483 61 480 c 2,43,-1
 194 438 l 1,0,-1
EndSplineSet
EndChar

StartChar: plus
Encoding: 43 43 14
Width: 618
GlyphClass: 2
Flags: W
LayerCount: 2
Fore
SplineSet
329 261 m 1,0,-1
 329 59 l 2,1,2
 329 32 329 32 309 32 c 0,3,4
 288 32 288 32 288 59 c 2,5,-1
 288 261 l 1,6,-1
 108 261 l 2,7,8
 81 261 81 261 81 282 c 0,9,10
 81 302 81 302 108 302 c 2,11,-1
 288 302 l 1,12,-1
 288 503 l 2,13,14
 288 530 288 530 309 530 c 0,15,16
 329 530 329 530 329 503 c 2,17,-1
 329 302 l 1,18,-1
 509 302 l 2,19,20
 537 302 537 302 537 282 c 0,21,22
 537 261 537 261 509 261 c 2,23,-1
 329 261 l 1,0,-1
EndSplineSet
EndChar

StartChar: comma
Encoding: 44 44 15
Width: 333
GlyphClass: 2
Flags: W
LayerCount: 2
Fore
SplineSet
150 92 m 1,0,-1
 229 92 l 1,1,-1
 132 -102 l 2,2,3
 119 -127 119 -127 109 -127 c 0,4,5
 88 -127 88 -127 88 -98 c 0,6,7
 88 -93 88 -93 90 -87 c 2,8,-1
 150 92 l 1,0,-1
EndSplineSet
EndChar

StartChar: hyphen
Encoding: 45 45 16
Width: 330
GlyphClass: 2
Flags: W
LayerCount: 2
Fore
SplineSet
266 258 m 2,0,-1
 64 258 l 2,1,2
 37 258 37 258 37 279 c 0,3,4
 37 299 37 299 64 299 c 2,5,-1
 266 299 l 2,6,7
 293 299 293 299 293 279 c 0,8,9
 293 258 293 258 266 258 c 2,0,-1
EndSplineSet
EndChar

StartChar: period
Encoding: 46 46 17
Width: 294
GlyphClass: 2
Flags: W
LayerCount: 2
Fore
SplineSet
142 76 m 2,0,-1
 152 76 l 2,1,2
 188 76 188 76 191 31 c 0,3,4
 191 22 191 22 190 13.5 c 128,-1,5
 189 5 189 5 179.5 -5 c 128,-1,6
 170 -15 170 -15 152 -15 c 2,7,-1
 142 -15 l 2,8,9
 103 -15 103 -15 103 31 c 0,10,11
 103 76 103 76 142 76 c 2,0,-1
EndSplineSet
EndChar

StartChar: slash
Encoding: 47 47 18
Width: 398
GlyphClass: 2
Flags: W
LayerCount: 2
Fore
SplineSet
381 633 m 2,0,-1
 54 -63 l 2,1,2
 45 -81 45 -81 32 -81 c 0,3,4
 24 -81 24 -81 18 -75 c 128,-1,5
 12 -69 12 -69 12 -62 c 128,-1,6
 12 -55 12 -55 17 -46 c 2,7,-1
 344 650 l 2,8,9
 353 668 353 668 366 668 c 0,10,11
 374 668 374 668 380 662 c 128,-1,12
 386 656 386 656 386 649 c 0,13,14
 386 643 386 643 381 633 c 2,0,-1
EndSplineSet
EndChar

StartChar: zero
Encoding: 48 48 19
Width: 514
GlyphClass: 2
Flags: W
LayerCount: 2
Fore
SplineSet
443 351 m 2,0,-1
 443 251 l 2,1,2
 443 133 443 133 391 59 c 128,-1,3
 339 -15 339 -15 256 -15 c 128,-1,4
 173 -15 173 -15 121 59 c 128,-1,5
 69 133 69 133 69 251 c 2,6,-1
 69 351 l 2,7,8
 69 470 69 470 121 544 c 128,-1,9
 173 618 173 618 256 618 c 128,-1,10
 339 618 339 618 391 544 c 128,-1,11
 443 470 443 470 443 351 c 2,0,-1
110 346 m 2,12,-1
 110 257 l 2,13,14
 110 153 110 153 158 79 c 0,15,16
 192 26 192 26 256 26 c 128,-1,17
 320 26 320 26 354 79 c 0,18,19
 402 153 402 153 402 257 c 2,20,-1
 402 346 l 2,21,22
 402 450 402 450 354 524 c 0,23,24
 320 577 320 577 256 577 c 128,-1,25
 192 577 192 577 158 524 c 0,26,27
 110 450 110 450 110 346 c 2,12,-1
EndSplineSet
EndChar

StartChar: one
Encoding: 49 49 20
Width: 380
GlyphClass: 2
Flags: W
LayerCount: 2
Fore
SplineSet
249 0 m 1,0,-1
 249 557 l 1,1,-1
 117 515 l 2,2,3
 105 512 105 512 103 512 c 0,4,5
 96 512 96 512 90 518.5 c 128,-1,6
 84 525 84 525 84 532 c 0,7,8
 84 547 84 547 105 554 c 2,9,-1
 290 612 l 1,10,-1
 290 0 l 1,11,-1
 249 0 l 1,0,-1
EndSplineSet
EndChar

StartChar: two
Encoding: 50 50 21
Width: 524
GlyphClass: 2
Flags: W
LayerCount: 2
Fore
SplineSet
447 0 m 1,0,-1
 53 0 l 1,1,-1
 53 60 l 1,2,-1
 289 282 l 1,3,4
 359 351 359 351 380.5 382 c 128,-1,5
 402 413 402 413 402 447 c 0,6,7
 402 499 402 499 359 538 c 128,-1,8
 316 577 316 577 259 577 c 0,9,10
 208 577 208 577 166.5 547 c 128,-1,11
 125 517 125 517 113 472 c 0,12,13
 107 452 107 452 92 452 c 0,14,15
 85 452 85 452 79 457.5 c 128,-1,16
 73 463 73 463 73 470 c 0,17,18
 73 502 73 502 105 542 c 0,19,20
 164 618 164 618 259 618 c 0,21,22
 332 618 332 618 387.5 566 c 128,-1,23
 443 514 443 514 443 446 c 0,24,25
 443 402 443 402 417.5 365 c 128,-1,26
 392 328 392 328 299 237 c 0,27,28
 171 111 171 111 92 44 c 1,29,-1
 92 41 l 1,30,-1
 447 41 l 1,31,-1
 447 0 l 1,0,-1
EndSplineSet
EndChar

StartChar: three
Encoding: 51 51 22
Width: 542
GlyphClass: 2
Flags: W
LayerCount: 2
Fore
SplineSet
336 328 m 1,0,1
 395 304 395 304 428 261.5 c 128,-1,2
 461 219 461 219 461 168 c 0,3,4
 461 92 461 92 399.5 38.5 c 128,-1,5
 338 -15 338 -15 252 -15 c 0,6,7
 180 -15 180 -15 104 26 c 0,8,9
 58 50 58 50 58 69 c 0,10,11
 58 76 58 76 64 82 c 128,-1,12
 70 88 70 88 77 88 c 128,-1,13
 84 88 84 88 94 81 c 0,14,15
 166 26 166 26 253 26 c 0,16,17
 321 26 321 26 370.5 68 c 128,-1,18
 420 110 420 110 420 168 c 0,19,20
 420 227 420 227 367 269.5 c 128,-1,21
 314 312 314 312 241 312 c 0,22,23
 214 312 214 312 214 333 c 0,24,25
 214 353 214 353 241 353 c 0,26,27
 305 353 305 353 328 364 c 0,28,29
 360 378 360 378 379 405 c 128,-1,30
 398 432 398 432 398 463 c 0,31,32
 398 512 398 512 359 544.5 c 128,-1,33
 320 577 320 577 262 577 c 0,34,35
 174 577 174 577 128 523 c 0,36,37
 116 509 116 509 107 509 c 0,38,39
 99 509 99 509 93 514.5 c 128,-1,40
 87 520 87 520 87 528 c 0,41,42
 87 545 87 545 122 572 c 0,43,44
 182 618 182 618 263 618 c 0,45,46
 338 618 338 618 388.5 573.5 c 128,-1,47
 439 529 439 529 439 464 c 0,48,49
 439 421 439 421 412.5 385 c 128,-1,50
 386 349 386 349 341 330 c 0,51,52
 340 330 340 330 336 328 c 1,0,1
EndSplineSet
EndChar

StartChar: four
Encoding: 52 52 23
Width: 471
GlyphClass: 2
Flags: W
LayerCount: 2
Fore
SplineSet
349 0 m 1,0,-1
 308 0 l 1,1,-1
 308 169 l 1,2,-1
 37 169 l 1,3,-1
 37 216 l 1,4,-1
 265 604 l 1,5,-1
 349 604 l 1,6,-1
 349 210 l 1,7,-1
 383 210 l 2,8,9
 410 210 410 210 410 189 c 0,10,11
 410 169 410 169 383 169 c 2,12,-1
 349 169 l 1,13,-1
 349 0 l 1,0,-1
308 210 m 1,14,-1
 308 563 l 1,15,-1
 284 563 l 1,16,-1
 76 210 l 1,17,-1
 308 210 l 1,14,-1
EndSplineSet
EndChar

StartChar: five
Encoding: 53 53 24
Width: 564
GlyphClass: 2
Flags: W
LayerCount: 2
Fore
SplineSet
170 563 m 1,0,-1
 170 365 l 1,1,2
 243 395 243 395 302 395 c 0,3,4
 379 395 379 395 429 340 c 128,-1,5
 479 285 479 285 479 201 c 0,6,7
 479 106 479 106 421.5 45.5 c 128,-1,8
 364 -15 364 -15 275 -15 c 0,9,10
 196 -15 196 -15 122 34 c 0,11,12
 76 64 76 64 76 82 c 0,13,14
 76 90 76 90 82 96 c 128,-1,15
 88 102 88 102 96 102 c 128,-1,16
 104 102 104 102 113 93 c 0,17,18
 186 26 186 26 273 26 c 0,19,20
 346 26 346 26 392 75 c 128,-1,21
 438 124 438 124 438 203 c 0,22,23
 438 270 438 270 398.5 312 c 128,-1,24
 359 354 359 354 296 354 c 128,-1,25
 233 354 233 354 170 321 c 0,26,27
 154 313 154 313 148 313 c 0,28,29
 129 313 129 313 129 335 c 2,30,-1
 129 604 l 1,31,-1
 411 604 l 2,32,33
 439 604 439 604 439 584 c 0,34,35
 439 563 439 563 411 563 c 2,36,-1
 170 563 l 1,0,-1
EndSplineSet
EndChar

StartChar: six
Encoding: 54 54 25
Width: 516
GlyphClass: 2
Flags: W
LayerCount: 2
Fore
SplineSet
116 242 m 1,0,1
 177 364 177 364 282 364 c 0,2,3
 350 364 350 364 399.5 309 c 128,-1,4
 449 254 449 254 449 178 c 0,5,6
 449 97 449 97 399 41 c 128,-1,7
 349 -15 349 -15 276 -15 c 0,8,9
 187 -15 187 -15 131 68 c 128,-1,10
 75 151 75 151 75 282 c 0,11,12
 75 454 75 454 184 547 c 0,13,14
 266 618 266 618 367 618 c 0,15,16
 399 618 399 618 422.5 607.5 c 128,-1,17
 446 597 446 597 446 583 c 0,18,19
 446 575 446 575 440.5 569 c 128,-1,20
 435 563 435 563 427 563 c 0,21,22
 420 563 420 563 410 569 c 0,23,24
 394 577 394 577 363 577 c 0,25,26
 306 577 306 577 251 544 c 128,-1,27
 196 511 196 511 159 455 c 1,28,29
 114 384 114 384 114 285 c 0,30,31
 114 280 114 280 116 242 c 1,0,1
122 188 m 1,32,33
 129 160 129 160 131 155 c 0,34,35
 172 26 172 26 277 26 c 0,36,37
 333 26 333 26 370.5 70 c 128,-1,38
 408 114 408 114 408 178 c 0,39,40
 408 237 408 237 370.5 280 c 128,-1,41
 333 323 333 323 281 323 c 0,42,43
 223 323 223 323 172 266 c 0,44,45
 154 247 154 247 122 188 c 1,32,33
EndSplineSet
EndChar

StartChar: seven
Encoding: 55 55 26
Width: 522
GlyphClass: 2
Flags: W
LayerCount: 2
Fore
SplineSet
64 604 m 1,0,-1
 437 604 l 1,1,-1
 437 539 l 1,2,-1
 274 20 l 2,3,4
 267 -1 267 -1 254 -1 c 0,5,6
 246 -1 246 -1 240 5 c 128,-1,7
 234 11 234 11 234 19 c 0,8,9
 234 24 234 24 236 32 c 2,10,-1
 396 545 l 1,11,-1
 396 563 l 1,12,-1
 63 563 l 1,13,-1
 64 604 l 1,0,-1
EndSplineSet
EndChar

StartChar: eight
Encoding: 56 56 27
Width: 519
GlyphClass: 2
Flags: W
LayerCount: 2
Fore
SplineSet
334 313 m 1,0,1
 446 262 446 262 446 161 c 0,2,3
 446 88 446 88 391 36.5 c 128,-1,4
 336 -15 336 -15 259 -15 c 128,-1,5
 182 -15 182 -15 127 36.5 c 128,-1,6
 72 88 72 88 72 161 c 0,7,8
 72 261 72 261 184 313 c 1,9,10
 82 365 82 365 82 453 c 0,11,12
 82 520 82 520 134.5 569 c 128,-1,13
 187 618 187 618 259 618 c 128,-1,14
 331 618 331 618 383.5 569 c 128,-1,15
 436 520 436 520 436 453 c 0,16,17
 436 365 436 365 334 313 c 1,0,1
259 577 m 128,-1,19
 202 577 202 577 162.5 540.5 c 128,-1,20
 123 504 123 504 123 451 c 0,21,22
 123 402 123 402 162.5 367.5 c 128,-1,23
 202 333 202 333 259 333 c 0,24,25
 315 333 315 333 355 367 c 128,-1,26
 395 401 395 401 395 450 c 0,27,28
 395 503 395 503 355.5 540 c 128,-1,18
 316 577 316 577 259 577 c 128,-1,19
259 293 m 0,29,30
 198 293 198 293 155.5 255 c 128,-1,31
 113 217 113 217 113 161 c 128,-1,32
 113 105 113 105 155.5 65.5 c 128,-1,33
 198 26 198 26 259 26 c 0,34,35
 319 26 319 26 362 65.5 c 128,-1,36
 405 105 405 105 405 160 c 0,37,38
 405 217 405 217 363 255 c 128,-1,39
 321 293 321 293 259 293 c 0,29,30
EndSplineSet
EndChar

StartChar: nine
Encoding: 57 57 28
Width: 516
GlyphClass: 2
Flags: W
LayerCount: 2
Fore
SplineSet
408 361 m 1,0,1
 347 239 347 239 242 239 c 0,2,3
 174 239 174 239 124.5 294 c 128,-1,4
 75 349 75 349 75 425 c 0,5,6
 75 506 75 506 125 562 c 128,-1,7
 175 618 175 618 248 618 c 0,8,9
 337 618 337 618 393 535 c 128,-1,10
 449 452 449 452 449 321 c 0,11,12
 449 149 449 149 340 56 c 0,13,14
 258 -15 258 -15 157 -15 c 0,15,16
 125 -15 125 -15 101.5 -4.5 c 128,-1,17
 78 6 78 6 78 20 c 0,18,19
 78 28 78 28 83.5 34 c 128,-1,20
 89 40 89 40 97 40 c 0,21,22
 104 40 104 40 114 34 c 0,23,24
 130 26 130 26 161 26 c 0,25,26
 218 26 218 26 273 59 c 128,-1,27
 328 92 328 92 365 148 c 1,28,29
 410 219 410 219 410 318 c 0,30,31
 410 323 410 323 408 361 c 1,0,1
402 415 m 1,32,33
 395 443 395 443 393 448 c 0,34,35
 352 577 352 577 247 577 c 0,36,37
 191 577 191 577 153.5 533 c 128,-1,38
 116 489 116 489 116 425 c 0,39,40
 116 366 116 366 153.5 323 c 128,-1,41
 191 280 191 280 243 280 c 0,42,43
 301 280 301 280 352 337 c 0,44,45
 370 356 370 356 402 415 c 1,32,33
EndSplineSet
EndChar

StartChar: colon
Encoding: 58 58 29
Width: 308
GlyphClass: 2
Flags: W
LayerCount: 2
Fore
SplineSet
149 386 m 2,0,-1
 159 386 l 2,1,2
 195 386 195 386 198 341 c 0,3,4
 198 332 198 332 197 323.5 c 128,-1,5
 196 315 196 315 186.5 305 c 128,-1,6
 177 295 177 295 159 295 c 2,7,-1
 149 295 l 2,8,9
 110 295 110 295 110 341 c 0,10,11
 110 386 110 386 149 386 c 2,0,-1
149 106 m 2,12,-1
 159 106 l 2,13,14
 195 106 195 106 198 61 c 0,15,16
 198 52 198 52 197 43.5 c 128,-1,17
 196 35 196 35 186.5 25 c 128,-1,18
 177 15 177 15 159 15 c 2,19,-1
 149 15 l 2,20,21
 110 15 110 15 110 61 c 0,22,23
 110 106 110 106 149 106 c 2,12,-1
EndSplineSet
EndChar

StartChar: semicolon
Encoding: 59 59 30
Width: 350
GlyphClass: 2
Flags: W
LayerCount: 2
Fore
SplineSet
158 92 m 1,0,-1
 237 92 l 1,1,-1
 140 -102 l 1,2,3
 140 -102 140 -102 138.5 -105.5 c 128,-1,4
 137 -109 137 -109 135.5 -111 c 128,-1,5
 134 -113 134 -113 132 -116.5 c 128,-1,6
 130 -120 130 -120 128 -122 c 128,-1,7
 126 -124 126 -124 123 -125.5 c 128,-1,8
 120 -127 120 -127 117 -127 c 0,9,10
 96 -127 96 -127 96 -98 c 0,11,12
 96 -93 96 -93 98 -87 c 2,13,-1
 158 92 l 1,0,-1
191 406 m 2,14,-1
 201 406 l 2,15,16
 237 406 237 406 240 361 c 0,17,18
 240 352 240 352 239 343.5 c 128,-1,19
 238 335 238 335 228.5 325 c 128,-1,20
 219 315 219 315 201 315 c 2,21,-1
 191 315 l 2,22,23
 152 315 152 315 152 361 c 0,24,25
 152 406 152 406 191 406 c 2,14,-1
EndSplineSet
EndChar

StartChar: less
Encoding: 60 60 31
Width: 612
GlyphClass: 2
Flags: W
LayerCount: 2
Fore
SplineSet
81 281 m 1,0,-1
 499 513 l 2,1,2
 507 518 507 518 511 518 c 0,3,4
 520 518 520 518 527 508 c 1,5,-1
 528 505 l 1,6,7
 531 500 531 500 531 496 c 0,8,9
 531 485 531 485 518 478 c 2,10,-1
 163 281 l 1,11,-1
 518 84 l 2,12,13
 531 77 531 77 531 67 c 0,14,15
 531 62 531 62 528 57 c 2,16,-1
 526 54 l 1,17,18
 521 44 521 44 511 44 c 0,19,20
 506 44 506 44 498 49 c 2,21,-1
 81 281 l 1,0,-1
EndSplineSet
EndChar

StartChar: equal
Encoding: 61 61 32
Width: 660
GlyphClass: 2
Flags: W
LayerCount: 2
Fore
SplineSet
552 334 m 2,0,-1
 108 334 l 2,1,2
 81 334 81 334 81 355 c 0,3,4
 81 375 81 375 108 375 c 2,5,-1
 552 375 l 2,6,7
 579 375 579 375 579 355 c 0,8,9
 579 334 579 334 552 334 c 2,0,-1
552 190 m 2,10,-1
 108 190 l 2,11,12
 81 190 81 190 81 211 c 0,13,14
 81 231 81 231 108 231 c 2,15,-1
 552 231 l 2,16,17
 579 231 579 231 579 211 c 0,18,19
 579 190 579 190 552 190 c 2,10,-1
EndSplineSet
EndChar

StartChar: greater
Encoding: 62 62 33
Width: 612
GlyphClass: 2
Flags: W
LayerCount: 2
Fore
SplineSet
531 281 m 1,0,-1
 113 49 l 2,1,2
 105 44 105 44 101 44 c 0,3,4
 90 44 90 44 85 54 c 1,5,-1
 84 57 l 1,6,7
 81 62 81 62 81 67 c 0,8,9
 81 77 81 77 94 84 c 2,10,-1
 449 281 l 1,11,-1
 94 478 l 2,12,13
 81 485 81 485 81 496 c 0,14,15
 81 500 81 500 84 505 c 2,16,-1
 86 508 l 1,17,18
 91 518 91 518 101 518 c 0,19,20
 106 518 106 518 114 513 c 2,21,-1
 531 281 l 1,0,-1
EndSplineSet
EndChar

StartChar: question
Encoding: 63 63 34
Width: 481
GlyphClass: 2
Flags: W
LayerCount: 2
Fore
SplineSet
220 76 m 2,0,-1
 230 76 l 2,1,2
 266 76 266 76 269 31 c 0,3,4
 269 22 269 22 268 13.5 c 128,-1,5
 267 5 267 5 257.5 -5 c 128,-1,6
 248 -15 248 -15 230 -15 c 2,7,-1
 220 -15 l 2,8,9
 181 -15 181 -15 181 31 c 0,10,11
 181 76 181 76 220 76 c 2,0,-1
246 247 m 1,12,-1
 246 206 l 2,13,14
 246 179 246 179 226 179 c 0,15,16
 205 179 205 179 205 206 c 2,17,-1
 205 274 l 1,18,19
 293 311 293 311 331.5 345.5 c 128,-1,20
 370 380 370 380 370 423 c 0,21,22
 370 473 370 473 330 504.5 c 128,-1,23
 290 536 290 536 228 536 c 0,24,25
 167 536 167 536 99 502 c 1,26,-1
 99 461 l 2,27,28
 99 434 99 434 79 434 c 0,29,30
 58 434 58 434 58 461 c 2,31,-1
 58 529 l 1,32,33
 63 531 63 531 73.5 535.5 c 128,-1,34
 84 540 84 540 87 541 c 0,35,36
 168 577 168 577 233 577 c 0,37,38
 313 577 313 577 362 534.5 c 128,-1,39
 411 492 411 492 411 423 c 0,40,41
 411 367 411 367 375.5 329 c 128,-1,42
 340 291 340 291 246 247 c 1,12,-1
EndSplineSet
EndChar

StartChar: at
Encoding: 64 64 35
Width: 519
GlyphClass: 2
Flags: W
LayerCount: 2
Fore
SplineSet
396 145 m 1,0,-1
 396 150 l 1,1,2
 366 147 366 147 356 147 c 0,3,4
 298 147 298 147 259 183 c 128,-1,5
 220 219 220 219 220 272 c 0,6,7
 220 335 220 335 270 376 c 128,-1,8
 320 417 320 417 396 416 c 1,9,-1
 396 463 l 2,10,11
 396 515 396 515 363 549 c 128,-1,12
 330 583 330 583 279 583 c 0,13,14
 211 583 211 583 167.5 520 c 128,-1,15
 124 457 124 457 124 358 c 2,16,-1
 124 198 l 2,17,18
 124 106 124 106 171 36 c 0,19,20
 210 -21 210 -21 283 -21 c 0,21,22
 353 -21 353 -21 388 9 c 0,23,24
 400 20 400 20 407 20 c 0,25,26
 415 20 415 20 421 14.5 c 128,-1,27
 427 9 427 9 427 1 c 0,28,29
 427 -22 427 -22 379.5 -42 c 128,-1,30
 332 -62 332 -62 277 -62 c 0,31,32
 190 -62 190 -62 137 13 c 0,33,34
 83 91 83 91 83 198 c 2,35,-1
 83 361 l 2,36,37
 83 475 83 475 138 549.5 c 128,-1,38
 193 624 193 624 278 624 c 0,39,40
 346 624 346 624 391.5 578 c 128,-1,41
 437 532 437 532 437 463 c 2,42,-1
 437 186 l 1,43,44
 456 183 456 183 456 166 c 0,45,46
 456 145 456 145 429 145 c 2,47,-1
 396 145 l 1,0,-1
396 192 m 1,48,-1
 396 376 l 1,49,50
 337 376 337 376 299 347 c 128,-1,51
 261 318 261 318 261 273 c 0,52,53
 261 235 261 235 288.5 211.5 c 128,-1,54
 316 188 316 188 359 188 c 0,55,56
 380 188 380 188 396 192 c 1,48,-1
EndSplineSet
EndChar

StartChar: A
Encoding: 65 65 36
Width: 538
GlyphClass: 2
Flags: W
LayerCount: 2
Fore
SplineSet
23 0 m 1,0,-1
 233 563 l 1,1,-1
 301 563 l 1,2,-1
 513 0 l 1,3,-1
 470 0 l 1,4,-1
 399 188 l 1,5,-1
 133 188 l 1,6,-1
 64 0 l 1,7,-1
 23 0 l 1,0,-1
384 229 m 1,8,-1
 272 522 l 1,9,-1
 257 522 l 1,10,-1
 149 229 l 1,11,-1
 384 229 l 1,8,-1
EndSplineSet
EndChar

StartChar: B
Encoding: 66 66 37
Width: 564
GlyphClass: 2
Flags: W
LayerCount: 2
Fore
SplineSet
95 0 m 1,0,-1
 95 563 l 1,1,-1
 299 563 l 2,2,3
 372 563 372 563 421 521.5 c 128,-1,4
 470 480 470 480 470 418 c 0,5,6
 470 344 470 344 385 298 c 1,7,8
 512 253 512 253 512 153 c 0,9,10
 512 90 512 90 463.5 45 c 128,-1,11
 415 0 415 0 347 0 c 2,12,-1
 95 0 l 1,0,-1
136 313 m 1,13,-1
 283 313 l 2,14,15
 347 313 347 313 388 343 c 128,-1,16
 429 373 429 373 429 419 c 0,17,18
 429 463 429 463 392 492.5 c 128,-1,19
 355 522 355 522 300 522 c 2,20,-1
 136 522 l 1,21,-1
 136 313 l 1,13,-1
136 41 m 1,22,-1
 344 41 l 2,23,24
 397 41 397 41 434 73.5 c 128,-1,25
 471 106 471 106 471 153 c 0,26,27
 471 211 471 211 412 246 c 0,28,29
 368 272 368 272 285 272 c 2,30,-1
 136 272 l 1,31,-1
 136 41 l 1,22,-1
EndSplineSet
EndChar

StartChar: C
Encoding: 67 67 38
Width: 576
GlyphClass: 2
Flags: W
LayerCount: 2
Fore
SplineSet
520 424 m 1,0,1
 520 397 520 397 499 397 c 0,2,3
 480 397 480 397 479 421 c 0,4,5
 476 467 476 467 424.5 501 c 128,-1,6
 373 535 373 535 306 535 c 0,7,8
 223 535 223 535 164 471.5 c 128,-1,9
 105 408 105 408 105 319 c 2,10,-1
 105 248 l 2,11,12
 105 158 105 158 170 91.5 c 128,-1,13
 235 25 235 25 323 25 c 0,14,15
 375 25 375 25 416 46 c 128,-1,16
 457 67 457 67 497 115 c 0,17,18
 506 125 506 125 515 125 c 0,19,20
 535 125 535 125 535 106 c 0,21,22
 535 90 535 90 497 55 c 0,23,24
 421 -16 421 -16 323 -16 c 0,25,26
 221 -16 221 -16 142.5 62.5 c 128,-1,27
 64 141 64 141 64 242 c 2,28,-1
 64 325 l 2,29,30
 64 371 64 371 83.5 419.5 c 128,-1,31
 103 468 103 468 135 502 c 0,32,33
 204 576 204 576 306 576 c 0,34,35
 345 576 345 576 385.5 564.5 c 128,-1,36
 426 553 426 553 467 516.5 c 128,-1,37
 508 480 508 480 520 424 c 1,0,1
EndSplineSet
EndChar

StartChar: D
Encoding: 68 68 39
Width: 573
GlyphClass: 2
Flags: W
LayerCount: 2
Fore
SplineSet
280 0 m 2,0,-1
 93 0 l 1,1,-1
 93 563 l 1,2,-1
 279 563 l 1,3,4
 279 563 279 563 283 563 c 0,5,6
 378 562 378 562 443.5 488.5 c 128,-1,7
 509 415 509 415 509 310 c 2,8,-1
 509 254 l 2,9,10
 509 147 509 147 443 73.5 c 128,-1,11
 377 0 377 0 280 0 c 2,0,-1
134 41 m 1,12,-1
 284 41 l 2,13,14
 356 41 356 41 412 103 c 128,-1,15
 468 165 468 165 468 245 c 2,16,-1
 468 318 l 2,17,18
 468 405 468 405 403 472 c 1,19,20
 353 522 353 522 277 522 c 2,21,-1
 134 522 l 1,22,-1
 134 41 l 1,12,-1
EndSplineSet
EndChar

StartChar: E
Encoding: 69 69 40
Width: 558
GlyphClass: 2
Flags: W
LayerCount: 2
Fore
SplineSet
468 522 m 1,0,-1
 134 522 l 1,1,-1
 134 313 l 1,2,-1
 320 313 l 1,3,-1
 320 272 l 1,4,-1
 134 272 l 1,5,-1
 134 41 l 1,6,-1
 489 41 l 1,7,-1
 489 0 l 1,8,-1
 93 0 l 1,9,-1
 93 563 l 1,10,-1
 468 563 l 1,11,-1
 468 522 l 1,0,-1
EndSplineSet
EndChar

StartChar: F
Encoding: 70 70 41
Width: 554
GlyphClass: 2
Flags: W
LayerCount: 2
Fore
SplineSet
490 522 m 1,0,-1
 135 522 l 1,1,-1
 135 313 l 1,2,-1
 322 313 l 1,3,-1
 322 272 l 1,4,-1
 135 272 l 1,5,-1
 135 0 l 1,6,-1
 94 0 l 1,7,-1
 94 563 l 1,8,-1
 490 563 l 1,9,-1
 490 522 l 1,0,-1
EndSplineSet
EndChar

StartChar: G
Encoding: 71 71 42
Width: 603
GlyphClass: 2
Flags: W
LayerCount: 2
Fore
SplineSet
480 209 m 1,0,-1
 341 209 l 1,1,-1
 341 250 l 1,2,-1
 521 250 l 1,3,-1
 521 36 l 1,4,5
 431 -16 431 -16 334 -16 c 0,6,7
 211 -16 211 -16 137.5 55 c 128,-1,8
 64 126 64 126 64 244 c 2,9,-1
 64 318 l 2,10,11
 64 371 64 371 86 423 c 128,-1,12
 108 475 108 475 145 511 c 1,13,14
 215 576 215 576 314 576 c 0,15,16
 343 576 343 576 372 570.5 c 128,-1,17
 401 565 401 565 434 552 c 128,-1,18
 467 539 467 539 490.5 511 c 128,-1,19
 514 483 514 483 521 445 c 1,20,21
 521 418 521 418 501 418 c 0,22,23
 482 418 482 418 481 443 c 0,24,25
 478 481 478 481 430 508 c 128,-1,26
 382 535 382 535 316 535 c 0,27,28
 232 535 232 535 177 481 c 0,29,30
 144 450 144 450 124.5 405.5 c 128,-1,31
 105 361 105 361 105 317 c 2,32,-1
 105 244 l 2,33,34
 105 142 105 142 167 83.5 c 128,-1,35
 229 25 229 25 337 25 c 0,36,37
 407 25 407 25 480 59 c 1,38,-1
 480 209 l 1,0,-1
EndSplineSet
EndChar

StartChar: H
Encoding: 72 72 43
Width: 540
GlyphClass: 2
Flags: W
LayerCount: 2
Fore
SplineSet
134 563 m 1,0,-1
 134 313 l 1,1,-1
 404 313 l 1,2,-1
 404 563 l 1,3,-1
 445 563 l 1,4,-1
 445 0 l 1,5,-1
 404 0 l 1,6,-1
 404 272 l 1,7,-1
 134 272 l 1,8,-1
 134 0 l 1,9,-1
 93 0 l 1,10,-1
 93 563 l 1,11,-1
 134 563 l 1,0,-1
EndSplineSet
EndChar

StartChar: I
Encoding: 73 73 44
Width: 229
GlyphClass: 2
Flags: W
LayerCount: 2
Fore
SplineSet
93 563 m 1,0,-1
 134 563 l 1,1,-1
 134 0 l 1,2,-1
 93 0 l 1,3,-1
 93 563 l 1,0,-1
EndSplineSet
EndChar

StartChar: J
Encoding: 74 74 45
Width: 475
GlyphClass: 2
Flags: W
LayerCount: 2
Fore
SplineSet
45 93 m 1,0,1
 120 25 120 25 193 25 c 0,2,3
 254 25 254 25 296.5 66 c 128,-1,4
 339 107 339 107 339 165 c 2,5,-1
 339 563 l 1,6,-1
 380 563 l 1,7,-1
 380 165 l 2,8,9
 380 91 380 91 324.5 37.5 c 128,-1,10
 269 -16 269 -16 192 -16 c 0,11,12
 144 -16 144 -16 101 4.5 c 128,-1,13
 58 25 58 25 4 74 c 1,14,-1
 45 93 l 1,0,1
EndSplineSet
EndChar

StartChar: K
Encoding: 75 75 46
Width: 566
GlyphClass: 2
Flags: W
LayerCount: 2
Fore
SplineSet
515 0 m 1,0,-1
 467 0 l 1,1,2
 412 152 412 152 369 211.5 c 128,-1,3
 326 271 326 271 255 294 c 1,4,-1
 174 221 l 1,5,-1
 174 0 l 1,6,-1
 133 0 l 1,7,-1
 133 563 l 1,8,-1
 174 563 l 1,9,-1
 174 273 l 1,10,-1
 500 563 l 1,11,-1
 557 563 l 1,12,-1
 289 324 l 1,13,14
 341 303 341 303 371.5 274.5 c 128,-1,15
 402 246 402 246 434.5 184.5 c 128,-1,16
 467 123 467 123 515 0 c 1,0,-1
EndSplineSet
EndChar

StartChar: L
Encoding: 76 76 47
Width: 473
GlyphClass: 2
Flags: W
LayerCount: 2
Fore
SplineSet
449 41 m 1,0,-1
 449 0 l 1,1,-1
 94 0 l 1,2,-1
 94 563 l 1,3,-1
 135 563 l 1,4,-1
 135 41 l 1,5,-1
 449 41 l 1,0,-1
EndSplineSet
EndChar

StartChar: M
Encoding: 77 77 48
Width: 708
GlyphClass: 2
Flags: W
LayerCount: 2
Fore
SplineSet
584 0 m 1,0,-1
 543 0 l 1,1,-1
 543 522 l 1,2,-1
 535 522 l 1,3,-1
 378 169 l 1,4,-1
 332 169 l 1,5,-1
 173 522 l 1,6,-1
 165 522 l 1,7,-1
 165 0 l 1,8,-1
 124 0 l 1,9,-1
 124 563 l 1,10,-1
 198 563 l 1,11,-1
 355 215 l 1,12,-1
 509 563 l 1,13,-1
 584 563 l 1,14,-1
 584 0 l 1,0,-1
EndSplineSet
EndChar

StartChar: N
Encoding: 78 78 49
Width: 608
GlyphClass: 2
Flags: W
LayerCount: 2
Fore
SplineSet
93 0 m 1,0,-1
 93 563 l 1,1,-1
 145 563 l 1,2,-1
 450 59 l 1,3,-1
 450 563 l 1,4,-1
 491 563 l 1,5,-1
 491 0 l 1,6,-1
 439 0 l 1,7,-1
 134 504 l 1,8,-1
 134 0 l 1,9,-1
 93 0 l 1,0,-1
EndSplineSet
EndChar

StartChar: O
Encoding: 79 79 50
Width: 622
GlyphClass: 2
Flags: W
LayerCount: 2
Fore
SplineSet
311 576 m 0,0,1
 417 576 417 576 488.5 489.5 c 128,-1,2
 560 403 560 403 560 276 c 0,3,4
 560 155 560 155 487 69.5 c 128,-1,5
 414 -16 414 -16 311 -16 c 0,6,7
 207 -16 207 -16 134.5 70 c 128,-1,8
 62 156 62 156 62 280 c 128,-1,9
 62 404 62 404 134.5 490 c 128,-1,10
 207 576 207 576 311 576 c 0,0,1
311 535 m 0,11,12
 225 535 225 535 164 460 c 128,-1,13
 103 385 103 385 103 280 c 128,-1,14
 103 175 103 175 164 100 c 128,-1,15
 225 25 225 25 311 25 c 0,16,17
 396 25 396 25 457.5 99.5 c 128,-1,18
 519 174 519 174 519 277 c 0,19,20
 519 385 519 385 458.5 460 c 128,-1,21
 398 535 398 535 311 535 c 0,11,12
EndSplineSet
EndChar

StartChar: P
Encoding: 80 80 51
Width: 516
GlyphClass: 2
Flags: W
LayerCount: 2
Fore
SplineSet
94 0 m 1,0,-1
 94 563 l 1,1,-1
 280 563 l 2,2,3
 360 563 360 563 414.5 515.5 c 128,-1,4
 469 468 469 468 469 398 c 128,-1,5
 469 328 469 328 410 279.5 c 128,-1,6
 351 231 351 231 266 231 c 2,7,-1
 135 231 l 1,8,-1
 135 0 l 1,9,-1
 94 0 l 1,0,-1
135 272 m 1,10,-1
 269 272 l 2,11,12
 334 272 334 272 381 309 c 128,-1,13
 428 346 428 346 428 398 c 0,14,15
 428 449 428 449 385.5 485.5 c 128,-1,16
 343 522 343 522 284 522 c 2,17,-1
 135 522 l 1,18,-1
 135 272 l 1,10,-1
EndSplineSet
EndChar

StartChar: Q
Encoding: 81 81 52
Width: 622
GlyphClass: 2
Flags: W
LayerCount: 2
Fore
SplineSet
316 -16 m 1,0,-1
 262 -56 l 1,1,2
 302 -48 302 -48 329 -48 c 0,3,4
 370 -48 370 -48 411 -63 c 0,5,6
 440 -74 440 -74 456 -74 c 0,7,8
 483 -74 483 -74 525 -47 c 0,9,10
 530 -43 530 -43 537 -43 c 0,11,12
 545 -43 545 -43 551 -49 c 128,-1,13
 557 -55 557 -55 557 -64 c 0,14,15
 557 -79 557 -79 520.5 -97 c 128,-1,16
 484 -115 484 -115 453 -115 c 0,17,18
 435 -115 435 -115 397 -102 c 0,19,20
 362 -89 362 -89 329 -89 c 0,21,22
 271 -89 271 -89 189 -112 c 0,23,24
 181 -114 181 -114 179 -114 c 0,25,26
 171 -114 171 -114 165 -108 c 128,-1,27
 159 -102 159 -102 159 -93 c 0,28,29
 159 -83 159 -83 170 -75 c 2,30,-1
 260 -10 l 1,31,32
 175 9 175 9 118.5 91.5 c 128,-1,33
 62 174 62 174 62 280 c 0,34,35
 62 404 62 404 134.5 490 c 128,-1,36
 207 576 207 576 311 576 c 128,-1,37
 415 576 415 576 487.5 490 c 128,-1,38
 560 404 560 404 560 280 c 0,39,40
 560 157 560 157 490 72 c 128,-1,41
 420 -13 420 -13 316 -16 c 1,0,-1
311 535 m 0,42,43
 225 535 225 535 164 460 c 128,-1,44
 103 385 103 385 103 280 c 128,-1,45
 103 175 103 175 164 100 c 128,-1,46
 225 25 225 25 311 25 c 0,47,48
 396 25 396 25 457.5 99.5 c 128,-1,49
 519 174 519 174 519 277 c 0,50,51
 519 385 519 385 458.5 460 c 128,-1,52
 398 535 398 535 311 535 c 0,42,43
EndSplineSet
EndChar

StartChar: R
Encoding: 82 82 53
Width: 565
GlyphClass: 2
Flags: W
LayerCount: 2
Fore
SplineSet
524 0 m 1,0,-1
 476 0 l 1,1,2
 410 122 410 122 367.5 173.5 c 128,-1,3
 325 225 325 225 268 251 c 1,4,-1
 136 251 l 1,5,-1
 136 0 l 1,6,-1
 95 0 l 1,7,-1
 95 563 l 1,8,-1
 289 563 l 2,9,10
 362 563 362 563 415.5 516.5 c 128,-1,11
 469 470 469 470 469 407 c 0,12,13
 469 310 469 310 330 262 c 1,14,15
 379 229 379 229 415.5 180.5 c 128,-1,16
 452 132 452 132 524 0 c 1,0,-1
136 292 m 1,17,-1
 250 292 l 2,18,19
 324 292 324 292 376 326 c 128,-1,20
 428 360 428 360 428 408 c 0,21,22
 428 453 428 453 385.5 487.5 c 128,-1,23
 343 522 343 522 289 522 c 2,24,-1
 136 522 l 1,25,-1
 136 292 l 1,17,-1
EndSplineSet
EndChar

StartChar: S
Encoding: 83 83 54
Width: 546
GlyphClass: 2
Flags: W
LayerCount: 2
Fore
SplineSet
68 139 m 0,0,1
 68 166 68 166 89 166 c 0,2,3
 108 166 108 166 109 142 c 0,4,5
 111 93 111 93 160 59 c 128,-1,6
 209 25 209 25 277 25 c 0,7,8
 347 25 347 25 393.5 61.5 c 128,-1,9
 440 98 440 98 440 153 c 0,10,11
 440 210 440 210 395 237 c 1,12,13
 366 256 366 256 279 271 c 0,14,15
 183 287 183 287 143 317 c 1,16,17
 91 353 91 353 91 421 c 0,18,19
 91 487 91 487 143.5 531.5 c 128,-1,20
 196 576 196 576 275 576 c 0,21,22
 362 576 362 576 412 528 c 128,-1,23
 462 480 462 480 462 433 c 0,24,25
 462 406 462 406 442 406 c 256,26,27
 422 406 422 406 421 430 c 0,28,29
 418 475 418 475 377 505 c 128,-1,30
 336 535 336 535 278 535 c 0,31,32
 216 535 216 535 175.5 502 c 128,-1,33
 135 469 135 469 135 420 c 128,-1,34
 135 371 135 371 174 344 c 1,35,36
 208 322 208 322 287 309 c 0,37,38
 385 292 385 292 422 269 c 0,39,40
 484 231 484 231 484 151 c 0,41,42
 484 78 484 78 426 31 c 128,-1,43
 368 -16 368 -16 278 -16 c 0,44,45
 196 -16 196 -16 132 32.5 c 128,-1,46
 68 81 68 81 68 139 c 0,0,1
EndSplineSet
EndChar

StartChar: T
Encoding: 84 84 55
Width: 488
GlyphClass: 2
Flags: W
LayerCount: 2
Fore
SplineSet
16 563 m 1,0,-1
 472 563 l 1,1,-1
 472 522 l 1,2,-1
 265 522 l 1,3,-1
 265 0 l 1,4,-1
 224 0 l 1,5,-1
 224 522 l 1,6,-1
 16 522 l 1,7,-1
 16 563 l 1,0,-1
EndSplineSet
EndChar

StartChar: U
Encoding: 85 85 56
Width: 570
GlyphClass: 2
Flags: W
LayerCount: 2
Fore
SplineSet
484 563 m 1,0,-1
 484 185 l 2,1,2
 484 100 484 100 426.5 42 c 128,-1,3
 369 -16 369 -16 285 -16 c 0,4,5
 200 -16 200 -16 143 41.5 c 128,-1,6
 86 99 86 99 86 185 c 2,7,-1
 86 563 l 1,8,-1
 127 563 l 1,9,-1
 127 185 l 2,10,11
 127 117 127 117 172.5 71 c 128,-1,12
 218 25 218 25 285 25 c 0,13,14
 351 25 351 25 397 71.5 c 128,-1,15
 443 118 443 118 443 185 c 2,16,-1
 443 563 l 1,17,-1
 484 563 l 1,0,-1
EndSplineSet
EndChar

StartChar: V
Encoding: 86 86 57
Width: 546
GlyphClass: 2
Flags: W
LayerCount: 2
Fore
SplineSet
521 563 m 1,0,-1
 296 0 l 1,1,-1
 239 0 l 1,2,-1
 23 563 l 1,3,-1
 66 563 l 1,4,-1
 268 41 l 1,5,-1
 271 41 l 1,6,-1
 480 563 l 1,7,-1
 521 563 l 1,0,-1
EndSplineSet
EndChar

StartChar: W
Encoding: 87 87 58
Width: 611
GlyphClass: 2
Flags: W
LayerCount: 2
Fore
SplineSet
539 563 m 1,0,-1
 472 0 l 1,1,-1
 408 0 l 1,2,-1
 296 400 l 1,3,-1
 181 0 l 1,4,-1
 118 0 l 1,5,-1
 53 563 l 1,6,-1
 94 563 l 1,7,-1
 155 46 l 1,8,-1
 267 438 l 1,9,-1
 329 438 l 1,10,-1
 438 46 l 1,11,-1
 500 563 l 1,12,-1
 539 563 l 1,0,-1
EndSplineSet
EndChar

StartChar: X
Encoding: 88 88 59
Width: 584
GlyphClass: 2
Flags: W
LayerCount: 2
Fore
SplineSet
541 0 m 1,0,-1
 488 0 l 1,1,-1
 291 255 l 1,2,-1
 95 0 l 1,3,-1
 45 0 l 1,4,-1
 265 288 l 1,5,-1
 54 563 l 1,6,-1
 106 563 l 1,7,-1
 293 321 l 1,8,-1
 477 563 l 1,9,-1
 529 563 l 1,10,-1
 318 288 l 1,11,-1
 541 0 l 1,0,-1
EndSplineSet
EndChar

StartChar: Y
Encoding: 89 89 60
Width: 486
GlyphClass: 2
Flags: W
LayerCount: 2
Fore
SplineSet
17 563 m 1,0,-1
 66 563 l 1,1,-1
 246 295 l 1,2,-1
 422 563 l 1,3,-1
 468 563 l 1,4,-1
 265 254 l 1,5,-1
 265 0 l 1,6,-1
 224 0 l 1,7,-1
 224 254 l 1,8,-1
 17 563 l 1,0,-1
EndSplineSet
EndChar

StartChar: Z
Encoding: 90 90 61
Width: 462
GlyphClass: 2
Flags: W
LayerCount: 2
Fore
SplineSet
52 563 m 1,0,-1
 401 563 l 1,1,-1
 401 505 l 1,2,-1
 73 45 l 1,3,-1
 73 41 l 1,4,-1
 428 41 l 1,5,-1
 428 0 l 1,6,-1
 34 0 l 1,7,-1
 34 59 l 1,8,-1
 362 519 l 1,9,-1
 362 522 l 1,10,-1
 52 522 l 1,11,-1
 52 563 l 1,0,-1
EndSplineSet
EndChar

StartChar: bracketleft
Encoding: 91 91 62
Width: 337
GlyphClass: 2
Flags: W
LayerCount: 2
Fore
SplineSet
128 563 m 1,0,-1
 128 -83 l 1,1,-1
 225 -83 l 2,2,3
 252 -83 252 -83 252 -103 c 0,4,5
 252 -124 252 -124 225 -124 c 2,6,-1
 87 -124 l 1,7,-1
 87 604 l 1,8,-1
 225 604 l 2,9,10
 252 604 252 604 252 584 c 0,11,12
 252 563 252 563 225 563 c 2,13,-1
 128 563 l 1,0,-1
EndSplineSet
EndChar

StartChar: backslash
Encoding: 92 92 63
Width: 398
GlyphClass: 2
Flags: W
LayerCount: 2
Fore
SplineSet
54 650 m 2,0,-1
 381 -46 l 2,1,2
 386 -55 386 -55 386 -62 c 128,-1,3
 386 -69 386 -69 380 -75 c 128,-1,4
 374 -81 374 -81 366 -81 c 0,5,6
 353 -81 353 -81 344 -63 c 2,7,-1
 17 633 l 2,8,9
 12 643 12 643 12 649 c 0,10,11
 12 656 12 656 18.5 662 c 128,-1,12
 25 668 25 668 33 668 c 0,13,14
 45 668 45 668 54 650 c 2,0,-1
EndSplineSet
EndChar

StartChar: bracketright
Encoding: 93 93 64
Width: 337
GlyphClass: 2
Flags: W
LayerCount: 2
Fore
SplineSet
211 -83 m 1,0,-1
 211 563 l 1,1,-1
 114 563 l 2,2,3
 87 563 87 563 87 583 c 0,4,5
 87 604 87 604 114 604 c 2,6,-1
 252 604 l 1,7,-1
 252 -124 l 1,8,-1
 114 -124 l 2,9,10
 87 -124 87 -124 87 -104 c 0,11,12
 87 -83 87 -83 114 -83 c 2,13,-1
 211 -83 l 1,0,-1
EndSplineSet
EndChar

StartChar: asciicircum
Encoding: 94 94 65
Width: 566
GlyphClass: 2
Flags: W
LayerCount: 2
Fore
SplineSet
283 615 m 1,0,-1
 461 392 l 2,1,2
 470 382 470 382 470 374 c 256,3,4
 470 366 470 366 464 360 c 128,-1,5
 458 354 458 354 450 354 c 0,6,7
 439 354 439 354 430 367 c 1,8,-1
 283 552 l 1,9,-1
 136 367 l 1,10,11
 127 354 127 354 116 354 c 0,12,13
 108 354 108 354 102 360 c 128,-1,14
 96 366 96 366 96 374 c 128,-1,15
 96 382 96 382 105 392 c 2,16,-1
 283 615 l 1,0,-1
EndSplineSet
EndChar

StartChar: underscore
Encoding: 95 95 66
Width: 610
GlyphClass: 2
Flags: W
LayerCount: 2
Fore
SplineSet
617 -75 m 1,0,-1
 617 -125 l 1,1,-1
 -7 -125 l 1,2,-1
 -7 -75 l 1,3,-1
 617 -75 l 1,0,-1
EndSplineSet
EndChar

StartChar: grave
Encoding: 96 96 67
Width: 396
GlyphClass: 2
Flags: W
LayerCount: 2
Fore
SplineSet
115 630 m 1,0,-1
 229 530 l 1,1,-1
 236 522 l 2,2,3
 241 517 241 517 241 511 c 0,4,5
 241 502 241 502 235 496 c 128,-1,6
 229 490 229 490 220 490 c 0,7,8
 213 490 213 490 202 499 c 2,9,-1
 88 599 l 2,10,11
 76 610 76 610 76 619 c 0,12,13
 76 627 76 627 82 633 c 128,-1,14
 88 639 88 639 96 639 c 0,15,16
 103 639 103 639 115 630 c 1,0,-1
EndSplineSet
EndChar

StartChar: a
Encoding: 97 97 68
Width: 538
GlyphClass: 2
Flags: W
LayerCount: 2
Fore
SplineSet
410 0 m 1,0,-1
 410 67 l 1,1,2
 321 -16 321 -16 219 -16 c 0,3,4
 149 -16 149 -16 106 19.5 c 128,-1,5
 63 55 63 55 63 112 c 0,6,7
 63 177 63 177 121.5 217.5 c 128,-1,8
 180 258 180 258 274 258 c 0,9,10
 333 258 333 258 410 237 c 1,11,-1
 410 308 l 2,12,13
 410 345 410 345 376 367.5 c 128,-1,14
 342 390 342 390 287 390 c 0,15,16
 243 390 243 390 145 360 c 0,17,18
 137 358 137 358 135 358 c 0,19,20
 127 358 127 358 121.5 364 c 128,-1,21
 116 370 116 370 116 378 c 0,22,23
 116 393 116 393 133 399 c 0,24,25
 226 431 226 431 290 431 c 0,26,27
 360 431 360 431 405.5 396 c 128,-1,28
 451 361 451 361 451 308 c 2,29,-1
 451 0 l 1,30,-1
 410 0 l 1,0,-1
410 112 m 1,31,-1
 410 202 l 1,32,33
 350 217 350 217 282 217 c 0,34,35
 203 217 203 217 153.5 187.5 c 128,-1,36
 104 158 104 158 104 111 c 0,37,38
 104 72 104 72 135 48.5 c 128,-1,39
 166 25 166 25 218 25 c 0,40,41
 271 25 271 25 315.5 45 c 128,-1,42
 360 65 360 65 410 112 c 1,31,-1
EndSplineSet
EndChar

StartChar: b
Encoding: 98 98 69
Width: 587
GlyphClass: 2
Flags: W
LayerCount: 2
Fore
SplineSet
129 0 m 1,0,-1
 88 0 l 1,1,-1
 88 604 l 1,2,-1
 129 604 l 1,3,-1
 129 328 l 1,4,5
 202 431 202 431 309 431 c 0,6,7
 400 431 400 431 463 367 c 128,-1,8
 526 303 526 303 526 210 c 0,9,10
 526 116 526 116 462.5 50 c 128,-1,11
 399 -16 399 -16 309 -16 c 0,12,13
 199 -16 199 -16 129 88 c 1,14,-1
 129 0 l 1,0,-1
307 390 m 0,15,16
 233 390 233 390 181 337 c 128,-1,17
 129 284 129 284 129 208 c 128,-1,18
 129 132 129 132 181 78.5 c 128,-1,19
 233 25 233 25 307 25 c 0,20,21
 380 25 380 25 432.5 78 c 128,-1,22
 485 131 485 131 485 205 c 0,23,24
 485 283 485 283 433.5 336.5 c 128,-1,25
 382 390 382 390 307 390 c 0,15,16
EndSplineSet
EndChar

StartChar: c
Encoding: 99 99 70
Width: 550
GlyphClass: 2
Flags: W
LayerCount: 2
Fore
SplineSet
479 298 m 1,0,1
 479 271 479 271 459 271 c 0,2,3
 441 271 441 271 438 295 c 1,4,5
 435 335 435 335 388.5 362.5 c 128,-1,6
 342 390 342 390 279 390 c 0,7,8
 196 390 196 390 144.5 338.5 c 128,-1,9
 93 287 93 287 93 205 c 0,10,11
 93 126 93 126 145 75.5 c 128,-1,12
 197 25 197 25 279 25 c 0,13,14
 388 25 388 25 466 97 c 0,15,16
 476 107 476 107 484 107 c 128,-1,17
 492 107 492 107 497.5 101.5 c 128,-1,18
 503 96 503 96 503 88 c 0,19,20
 503 68 503 68 460 39 c 0,21,22
 380 -16 380 -16 277 -16 c 0,23,24
 179 -16 179 -16 115.5 46 c 128,-1,25
 52 108 52 108 52 204 c 0,26,27
 52 303 52 303 117 367 c 128,-1,28
 182 431 182 431 282 431 c 0,29,30
 308 431 308 431 336 425 c 128,-1,31
 364 419 364 419 395 405.5 c 128,-1,32
 426 392 426 392 449 364 c 128,-1,33
 472 336 472 336 479 298 c 1,0,1
EndSplineSet
EndChar

StartChar: d
Encoding: 100 100 71
Width: 588
GlyphClass: 2
Flags: W
LayerCount: 2
Fore
SplineSet
486 0 m 1,0,-1
 486 89 l 1,1,2
 416 -16 416 -16 304 -16 c 0,3,4
 215 -16 215 -16 151.5 50 c 128,-1,5
 88 116 88 116 88 208 c 128,-1,6
 88 300 88 300 151.5 365.5 c 128,-1,7
 215 431 215 431 304 431 c 0,8,9
 414 431 414 431 486 327 c 1,10,-1
 486 604 l 1,11,-1
 527 604 l 1,12,-1
 527 0 l 1,13,-1
 486 0 l 1,0,-1
307 390 m 0,14,15
 233 390 233 390 181 337 c 128,-1,16
 129 284 129 284 129 208 c 0,17,18
 129 131 129 131 181 78 c 128,-1,19
 233 25 233 25 308 25 c 0,20,21
 382 25 382 25 434 78 c 128,-1,22
 486 131 486 131 486 206 c 0,23,24
 486 284 486 284 434.5 337 c 128,-1,25
 383 390 383 390 307 390 c 0,14,15
EndSplineSet
EndChar

StartChar: e
Encoding: 101 101 72
Width: 576
GlyphClass: 2
Flags: W
LayerCount: 2
Fore
SplineSet
518 199 m 1,0,-1
 102 199 l 1,1,2
 113 120 113 120 168 72.5 c 128,-1,3
 223 25 223 25 304 25 c 0,4,5
 351 25 351 25 400 40 c 128,-1,6
 449 55 449 55 479 79 c 0,7,8
 489 86 489 86 495 86 c 0,9,10
 503 86 503 86 508.5 80 c 128,-1,11
 514 74 514 74 514 66 c 0,12,13
 514 40 514 40 442.5 12 c 128,-1,14
 371 -16 371 -16 303 -16 c 0,15,16
 202 -16 202 -16 131.5 52 c 128,-1,17
 61 120 61 120 61 217 c 0,18,19
 61 308 61 308 127 369.5 c 128,-1,20
 193 431 193 431 289 431 c 0,21,22
 361 431 361 431 417.5 395 c 128,-1,23
 474 359 474 359 501 297 c 0,24,25
 518 257 518 257 518 199 c 1,0,-1
102 240 m 1,26,-1
 476 240 l 1,27,28
 464 308 464 308 413 349 c 128,-1,29
 362 390 362 390 289 390 c 128,-1,30
 216 390 216 390 166 349.5 c 128,-1,31
 116 309 116 309 102 240 c 1,26,-1
EndSplineSet
EndChar

StartChar: f
Encoding: 102 102 73
Width: 463
GlyphClass: 2
Flags: W
LayerCount: 2
Fore
SplineSet
150 0 m 1,0,-1
 150 376 l 1,1,-1
 62 376 l 2,2,3
 35 376 35 376 35 397 c 0,4,5
 35 417 35 417 62 417 c 2,6,-1
 150 417 l 1,7,-1
 150 478 l 2,8,9
 150 533 150 533 193.5 568.5 c 128,-1,10
 237 604 237 604 304 604 c 0,11,12
 374 604 374 604 443 591 c 1,13,14
 461 586 461 586 461 571 c 0,15,16
 461 551 461 551 440 551 c 0,17,18
 438 551 438 551 390 557 c 0,19,20
 336 563 336 563 302 563 c 0,21,22
 253 563 253 563 222 539.5 c 128,-1,23
 191 516 191 516 191 478 c 2,24,-1
 191 417 l 1,25,-1
 380 417 l 2,26,27
 407 417 407 417 407 397 c 0,28,29
 407 376 407 376 380 376 c 2,30,-1
 191 376 l 1,31,-1
 191 0 l 1,32,-1
 150 0 l 1,0,-1
EndSplineSet
EndChar

StartChar: g
Encoding: 103 103 74
Width: 540
GlyphClass: 2
Flags: W
LayerCount: 2
Fore
SplineSet
439 417 m 1,0,-1
 480 417 l 1,1,-1
 480 -28 l 2,2,3
 480 -86 480 -86 437 -132 c 0,4,5
 386 -186 386 -186 315 -186 c 2,6,-1
 201 -186 l 2,7,8
 174 -186 174 -186 174 -165 c 0,9,10
 174 -145 174 -145 201 -145 c 2,11,-1
 317 -145 l 2,12,13
 368 -145 368 -145 403.5 -109 c 128,-1,14
 439 -73 439 -73 439 -22 c 2,15,-1
 439 107 l 1,16,17
 373 10 373 10 268 10 c 0,18,19
 183 10 183 10 122.5 72 c 128,-1,20
 62 134 62 134 62 221 c 128,-1,21
 62 308 62 308 122.5 369.5 c 128,-1,22
 183 431 183 431 268 431 c 0,23,24
 374 431 374 431 439 334 c 1,25,-1
 439 417 l 1,0,-1
271 390 m 0,26,27
 201 390 201 390 152 341 c 128,-1,28
 103 292 103 292 103 221 c 128,-1,29
 103 150 103 150 152 100.5 c 128,-1,30
 201 51 201 51 271 51 c 128,-1,31
 341 51 341 51 390 100 c 128,-1,32
 439 149 439 149 439 219 c 0,33,34
 439 292 439 292 390.5 341 c 128,-1,35
 342 390 342 390 271 390 c 0,26,27
EndSplineSet
EndChar

StartChar: h
Encoding: 104 104 75
Width: 523
GlyphClass: 2
Flags: W
LayerCount: 2
Fore
SplineSet
128 604 m 1,0,-1
 128 347 l 1,1,2
 166 393 166 393 201 412 c 128,-1,3
 236 431 236 431 282 431 c 0,4,5
 352 431 352 431 396.5 391.5 c 128,-1,6
 441 352 441 352 441 291 c 2,7,-1
 441 0 l 1,8,-1
 400 0 l 1,9,-1
 400 288 l 2,10,11
 400 334 400 334 362 364 c 1,12,13
 331 390 331 390 277 390 c 0,14,15
 235 390 235 390 207.5 373.5 c 128,-1,16
 180 357 180 357 139 309 c 2,17,-1
 128 296 l 1,18,-1
 128 0 l 1,19,-1
 87 0 l 1,20,-1
 87 604 l 1,21,-1
 128 604 l 1,0,-1
EndSplineSet
EndChar

StartChar: i
Encoding: 105 105 76
Width: 238
GlyphClass: 2
Flags: W
LayerCount: 2
Fore
SplineSet
135 417 m 1,0,-1
 135 0 l 1,1,-1
 94 0 l 1,2,-1
 94 417 l 1,3,-1
 135 417 l 1,0,-1
145 624 m 1,4,-1
 145 520 l 1,5,-1
 86 520 l 1,6,-1
 86 624 l 1,7,-1
 145 624 l 1,4,-1
EndSplineSet
EndChar

StartChar: j
Encoding: 106 106 77
Width: 297
GlyphClass: 2
Flags: W
LayerCount: 2
Fore
SplineSet
167 376 m 1,0,-1
 76 376 l 2,1,2
 49 376 49 376 49 397 c 0,3,4
 49 417 49 417 76 417 c 2,5,-1
 208 417 l 1,6,-1
 208 -28 l 2,7,8
 208 -98 208 -98 164.5 -142 c 128,-1,9
 121 -186 121 -186 53 -186 c 2,10,-1
 14 -186 l 2,11,12
 -13 -186 -13 -186 -13 -165 c 0,13,14
 -13 -145 -13 -145 14 -145 c 2,15,-1
 52 -145 l 2,16,17
 102 -145 102 -145 134.5 -112 c 128,-1,18
 167 -79 167 -79 167 -28 c 2,19,-1
 167 376 l 1,0,-1
196 624 m 1,20,-1
 196 520 l 1,21,-1
 137 520 l 1,22,-1
 137 624 l 1,23,-1
 196 624 l 1,20,-1
EndSplineSet
EndChar

StartChar: k
Encoding: 107 107 78
Width: 512
GlyphClass: 2
Flags: W
LayerCount: 2
Fore
SplineSet
122 0 m 1,0,-1
 122 604 l 1,1,-1
 163 604 l 1,2,-1
 163 229 l 1,3,-1
 385 417 l 1,4,-1
 446 417 l 1,5,-1
 240 245 l 1,6,-1
 488 0 l 1,7,-1
 430 0 l 1,8,-1
 209 219 l 1,9,-1
 163 180 l 1,10,-1
 163 0 l 1,11,-1
 122 0 l 1,0,-1
EndSplineSet
EndChar

StartChar: l
Encoding: 108 108 79
Width: 274
GlyphClass: 2
Flags: W
LayerCount: 2
Fore
SplineSet
141 0 m 1,0,-1
 141 563 l 1,1,-1
 114 563 l 2,2,3
 87 563 87 563 87 584 c 0,4,5
 87 604 87 604 114 604 c 2,6,-1
 182 604 l 1,7,-1
 182 0 l 1,8,-1
 141 0 l 1,0,-1
EndSplineSet
EndChar

StartChar: m
Encoding: 109 109 80
Width: 629
GlyphClass: 2
Flags: W
LayerCount: 2
Fore
SplineSet
547 0 m 1,0,-1
 507 0 l 1,1,-1
 507 319 l 2,2,3
 507 347 507 347 487 368.5 c 128,-1,4
 467 390 467 390 441 390 c 0,5,6
 391 390 391 390 337 308 c 1,7,-1
 337 0 l 1,8,-1
 297 0 l 1,9,-1
 297 316 l 2,10,11
 297 345 297 345 277.5 367.5 c 128,-1,12
 258 390 258 390 232 390 c 0,13,14
 182 390 182 390 127 308 c 1,15,-1
 127 0 l 1,16,-1
 87 0 l 1,17,-1
 87 417 l 1,18,-1
 127 417 l 1,19,-1
 127 365 l 1,20,21
 152 401 152 401 176 416 c 128,-1,22
 200 431 200 431 232 431 c 0,23,24
 296 431 296 431 329 360 c 1,25,26
 384 431 384 431 442 431 c 0,27,28
 485 431 485 431 516 399 c 128,-1,29
 547 367 547 367 547 323 c 2,30,-1
 547 0 l 1,0,-1
EndSplineSet
EndChar

StartChar: n
Encoding: 110 110 81
Width: 523
GlyphClass: 2
Flags: W
LayerCount: 2
Fore
SplineSet
128 417 m 1,0,-1
 128 348 l 1,1,2
 171 396 171 396 204 413.5 c 128,-1,3
 237 431 237 431 284 431 c 0,4,5
 351 431 351 431 396 392 c 128,-1,6
 441 353 441 353 441 295 c 2,7,-1
 441 0 l 1,8,-1
 400 0 l 1,9,-1
 400 288 l 2,10,11
 400 332 400 332 362 364 c 0,12,13
 331 390 331 390 280 390 c 0,14,15
 225 390 225 390 185 357 c 1,16,17
 167 344 167 344 128 294 c 1,18,-1
 128 0 l 1,19,-1
 87 0 l 1,20,-1
 87 417 l 1,21,-1
 128 417 l 1,0,-1
EndSplineSet
EndChar

StartChar: o
Encoding: 111 111 82
Width: 578
GlyphClass: 2
Flags: W
LayerCount: 2
Fore
SplineSet
289 431 m 0,0,1
 385 431 385 431 451 365.5 c 128,-1,2
 517 300 517 300 517 205 c 0,3,4
 517 113 517 113 450 48.5 c 128,-1,5
 383 -16 383 -16 289 -16 c 0,6,7
 194 -16 194 -16 127.5 49 c 128,-1,8
 61 114 61 114 61 208 c 0,9,10
 61 300 61 300 127.5 365.5 c 128,-1,11
 194 431 194 431 289 431 c 0,0,1
289 390 m 0,12,13
 211 390 211 390 156.5 337 c 128,-1,14
 102 284 102 284 102 208 c 128,-1,15
 102 132 102 132 156.5 78.5 c 128,-1,16
 211 25 211 25 289 25 c 0,17,18
 366 25 366 25 421 78 c 128,-1,19
 476 131 476 131 476 205 c 0,20,21
 476 284 476 284 422 337 c 128,-1,22
 368 390 368 390 289 390 c 0,12,13
EndSplineSet
EndChar

StartChar: p
Encoding: 112 112 83
Width: 587
GlyphClass: 2
Flags: W
LayerCount: 2
Fore
SplineSet
88 -186 m 1,0,-1
 88 417 l 1,1,-1
 129 417 l 1,2,-1
 129 335 l 1,3,4
 169 387 169 387 210 409 c 128,-1,5
 251 431 251 431 308 431 c 0,6,7
 401 431 401 431 463.5 370.5 c 128,-1,8
 526 310 526 310 526 221 c 128,-1,9
 526 132 526 132 463 71 c 128,-1,10
 400 10 400 10 308 10 c 0,11,12
 196 10 196 10 129 106 c 1,13,-1
 129 -186 l 1,14,-1
 88 -186 l 1,0,-1
307 390 m 0,15,16
 233 390 233 390 181 340.5 c 128,-1,17
 129 291 129 291 129 221 c 0,18,19
 129 150 129 150 181 100.5 c 128,-1,20
 233 51 233 51 307 51 c 128,-1,21
 381 51 381 51 433 100 c 128,-1,22
 485 149 485 149 485 219 c 0,23,24
 485 292 485 292 434 341 c 128,-1,25
 383 390 383 390 307 390 c 0,15,16
EndSplineSet
EndChar

StartChar: q
Encoding: 113 113 84
Width: 588
GlyphClass: 2
Flags: W
LayerCount: 2
Fore
SplineSet
527 417 m 1,0,-1
 527 -186 l 1,1,-1
 486 -186 l 1,2,-1
 486 106 l 1,3,4
 419 10 419 10 306 10 c 0,5,6
 214 10 214 10 151 71 c 128,-1,7
 88 132 88 132 88 221 c 128,-1,8
 88 310 88 310 151 370.5 c 128,-1,9
 214 431 214 431 307 431 c 0,10,11
 418 431 418 431 486 335 c 1,12,-1
 486 417 l 1,13,-1
 527 417 l 1,0,-1
307 390 m 0,14,15
 232 390 232 390 180.5 341 c 128,-1,16
 129 292 129 292 129 221 c 128,-1,17
 129 150 129 150 180.5 100.5 c 128,-1,18
 232 51 232 51 307 51 c 0,19,20
 381 51 381 51 433.5 100 c 128,-1,21
 486 149 486 149 486 219 c 0,22,23
 486 292 486 292 434.5 341 c 128,-1,24
 383 390 383 390 307 390 c 0,14,15
EndSplineSet
EndChar

StartChar: r
Encoding: 114 114 85
Width: 422
GlyphClass: 2
Flags: W
LayerCount: 2
Fore
SplineSet
129 417 m 1,0,-1
 129 315 l 1,1,2
 198 378 198 378 241 402.5 c 128,-1,3
 284 427 284 427 322 427 c 0,4,5
 362 427 362 427 399 396 c 0,6,7
 422 377 422 377 422 365 c 0,8,9
 422 356 422 356 416 350 c 128,-1,10
 410 344 410 344 401 344 c 0,11,12
 393 344 393 344 385 352 c 0,13,14
 350 386 350 386 319 386 c 0,15,16
 285 386 285 386 248.5 362 c 128,-1,17
 212 338 212 338 129 262 c 1,18,-1
 129 0 l 1,19,-1
 88 0 l 1,20,-1
 88 417 l 1,21,-1
 129 417 l 1,0,-1
EndSplineSet
EndChar

StartChar: s
Encoding: 115 115 86
Width: 507
GlyphClass: 2
Flags: W
LayerCount: 2
Fore
SplineSet
79 137 m 0,0,1
 88 137 88 137 93.5 131 c 128,-1,2
 99 125 99 125 99 115 c 2,3,-1
 99 108 l 2,4,5
 99 74 99 74 144 49.5 c 128,-1,6
 189 25 189 25 253 25 c 0,7,8
 319 25 319 25 363 51 c 128,-1,9
 407 77 407 77 407 117 c 0,10,11
 407 156 407 156 363 180 c 0,12,13
 328 199 328 199 255 207 c 0,14,15
 161 217 161 217 125 239 c 1,16,17
 79 269 79 269 79 318 c 128,-1,18
 79 367 79 367 127.5 399 c 128,-1,19
 176 431 176 431 250 431 c 0,20,21
 328 431 328 431 380 392 c 0,22,23
 402 375 402 375 414.5 355.5 c 128,-1,24
 427 336 427 336 428 319 c 0,25,26
 428 318 428 318 428 317 c 0,27,28
 428 294 428 294 408 293 c 0,29,30
 390 293 390 293 387 316 c 0,31,32
 383 350 383 350 347 370 c 128,-1,33
 311 390 311 390 254 390 c 0,34,35
 198 390 198 390 161 368.5 c 128,-1,36
 124 347 124 347 124 315 c 0,37,38
 124 288 124 288 156 270 c 1,39,40
 173 259 173 259 190 255.5 c 128,-1,41
 207 252 207 252 272 245 c 0,42,43
 358 235 358 235 402 206 c 0,44,45
 452 172 452 172 452 116 c 0,46,47
 452 59 452 59 396.5 21.5 c 128,-1,48
 341 -16 341 -16 256 -16 c 0,49,50
 160 -16 160 -16 101 34 c 0,51,52
 61 69 61 69 58 109 c 0,53,54
 58 110 58 110 58 112 c 0,55,56
 58 137 58 137 79 137 c 0,0,1
EndSplineSet
EndChar

StartChar: t
Encoding: 116 116 87
Width: 529
GlyphClass: 2
Flags: W
LayerCount: 2
Fore
SplineSet
181 417 m 1,0,-1
 401 417 l 2,1,2
 428 417 428 417 428 397 c 0,3,4
 428 376 428 376 401 376 c 2,5,-1
 181 376 l 1,6,-1
 181 109 l 2,7,8
 181 71 181 71 211 48 c 128,-1,9
 241 25 241 25 293 25 c 0,10,11
 335 25 335 25 382.5 36.5 c 128,-1,12
 430 48 430 48 459 65 c 0,13,14
 469 71 469 71 475 71 c 0,15,16
 482 71 482 71 488 65 c 128,-1,17
 494 59 494 59 494 51 c 0,18,19
 494 29 494 29 426.5 6.5 c 128,-1,20
 359 -16 359 -16 295 -16 c 0,21,22
 224 -16 224 -16 182 17.5 c 128,-1,23
 140 51 140 51 140 107 c 2,24,-1
 140 376 l 1,25,-1
 66 376 l 2,26,27
 38 376 38 376 38 397 c 0,28,29
 38 417 38 417 66 417 c 2,30,-1
 140 417 l 1,31,-1
 140 536 l 2,32,33
 140 563 140 563 161 563 c 0,34,35
 181 563 181 563 181 536 c 2,36,-1
 181 417 l 1,0,-1
EndSplineSet
EndChar

StartChar: u
Encoding: 117 117 88
Width: 525
GlyphClass: 2
Flags: W
LayerCount: 2
Fore
SplineSet
443 417 m 1,0,-1
 443 0 l 1,1,-1
 402 0 l 1,2,-1
 402 66 l 1,3,4
 318 -16 318 -16 220 -16 c 0,5,6
 160 -16 160 -16 123.5 20 c 128,-1,7
 87 56 87 56 87 115 c 2,8,-1
 87 417 l 1,9,-1
 128 417 l 1,10,-1
 128 115 l 2,11,12
 128 77 128 77 154.5 51 c 128,-1,13
 181 25 181 25 219 25 c 0,14,15
 319 25 319 25 402 115 c 1,16,-1
 402 417 l 1,17,-1
 443 417 l 1,0,-1
EndSplineSet
EndChar

StartChar: v
Encoding: 118 118 89
Width: 538
GlyphClass: 2
Flags: W
LayerCount: 2
Fore
SplineSet
489 417 m 1,0,-1
 305 0 l 1,1,-1
 235 0 l 1,2,-1
 49 417 l 1,3,-1
 94 417 l 1,4,-1
 262 41 l 1,5,-1
 281 41 l 1,6,-1
 446 417 l 1,7,-1
 489 417 l 1,0,-1
EndSplineSet
EndChar

StartChar: w
Encoding: 119 119 90
Width: 587
GlyphClass: 2
Flags: W
LayerCount: 2
Fore
SplineSet
516 417 m 1,0,-1
 424 0 l 1,1,-1
 374 0 l 1,2,-1
 283 259 l 1,3,-1
 194 0 l 1,4,-1
 143 0 l 1,5,-1
 49 417 l 1,6,-1
 89 417 l 1,7,-1
 170 56 l 1,8,-1
 256 311 l 1,9,-1
 307 311 l 1,10,-1
 396 56 l 1,11,-1
 474 417 l 1,12,-1
 516 417 l 1,0,-1
EndSplineSet
EndChar

StartChar: x
Encoding: 120 120 91
Width: 596
GlyphClass: 2
Flags: W
LayerCount: 2
Fore
SplineSet
122 417 m 1,0,-1
 298 246 l 1,1,-1
 478 417 l 1,2,-1
 533 417 l 1,3,-1
 327 219 l 1,4,-1
 554 0 l 1,5,-1
 496 0 l 1,6,-1
 298 190 l 1,7,-1
 98 0 l 1,8,-1
 42 0 l 1,9,-1
 269 219 l 1,10,-1
 64 417 l 1,11,-1
 122 417 l 1,0,-1
EndSplineSet
EndChar

StartChar: y
Encoding: 121 121 92
Width: 536
GlyphClass: 2
Flags: W
LayerCount: 2
Fore
SplineSet
495 417 m 1,0,-1
 199 -186 l 1,1,-1
 158 -186 l 1,2,-1
 249 0 l 1,3,-1
 41 417 l 1,4,-1
 88 417 l 1,5,-1
 272 45 l 1,6,-1
 453 417 l 1,7,-1
 495 417 l 1,0,-1
EndSplineSet
EndChar

StartChar: z
Encoding: 122 122 93
Width: 440
GlyphClass: 2
Flags: W
LayerCount: 2
Fore
SplineSet
407 0 m 1,0,-1
 33 0 l 1,1,-1
 33 36 l 1,2,-1
 334 376 l 1,3,-1
 42 376 l 1,4,-1
 42 417 l 1,5,-1
 392 417 l 1,6,-1
 392 381 l 1,7,-1
 89 41 l 1,8,-1
 407 41 l 1,9,-1
 407 0 l 1,0,-1
EndSplineSet
EndChar

StartChar: braceleft
Encoding: 123 123 94
Width: 494
GlyphClass: 2
Flags: W
LayerCount: 2
Fore
SplineSet
255 499 m 2,0,-1
 255 326 l 2,1,2
 255 295 255 295 245.5 276.5 c 128,-1,3
 236 258 236 258 211 240 c 1,4,5
 236 222 236 222 245.5 203.5 c 128,-1,6
 255 185 255 185 255 154 c 2,7,-1
 255 -19 l 2,8,9
 255 -45 255 -45 270.5 -63 c 128,-1,10
 286 -81 286 -81 310 -83 c 0,11,12
 336 -86 336 -86 336 -104 c 0,13,14
 336 -124 336 -124 312 -124 c 0,15,16
 271 -124 271 -124 242.5 -93.5 c 128,-1,17
 214 -63 214 -63 214 -19 c 2,18,-1
 214 154 l 2,19,20
 214 181 214 181 197.5 199 c 128,-1,21
 181 217 181 217 154 219 c 0,22,23
 130 220 130 220 130 240 c 256,24,25
 130 260 130 260 154 261 c 0,26,27
 181 263 181 263 197.5 280.5 c 128,-1,28
 214 298 214 298 214 326 c 2,29,-1
 214 499 l 2,30,31
 214 543 214 543 242.5 573.5 c 128,-1,32
 271 604 271 604 312 604 c 0,33,34
 336 604 336 604 336 584 c 0,35,36
 336 566 336 566 310 563 c 0,37,38
 286 561 286 561 270.5 543 c 128,-1,39
 255 525 255 525 255 499 c 2,0,-1
EndSplineSet
EndChar

StartChar: bar
Encoding: 124 124 95
Width: 263
GlyphClass: 2
Flags: W
LayerCount: 2
Fore
SplineSet
153 577 m 2,0,-1
 153 -97 l 2,1,2
 153 -124 153 -124 133 -124 c 128,-1,3
 113 -124 113 -124 113 -97 c 2,4,-1
 113 577 l 2,5,6
 113 604 113 604 133 604 c 128,-1,7
 153 604 153 604 153 577 c 2,0,-1
EndSplineSet
EndChar

StartChar: braceright
Encoding: 125 125 96
Width: 494
GlyphClass: 2
Flags: W
LayerCount: 2
Fore
SplineSet
211 -19 m 2,0,-1
 211 154 l 2,1,2
 211 185 211 185 220.5 203.5 c 128,-1,3
 230 222 230 222 255 240 c 1,4,5
 230 258 230 258 220.5 276.5 c 128,-1,6
 211 295 211 295 211 326 c 2,7,-1
 211 499 l 2,8,9
 211 525 211 525 195.5 543 c 128,-1,10
 180 561 180 561 156 563 c 0,11,12
 130 566 130 566 130 584 c 0,13,14
 130 604 130 604 154 604 c 0,15,16
 195 604 195 604 223.5 573.5 c 128,-1,17
 252 543 252 543 252 499 c 2,18,-1
 252 326 l 2,19,20
 252 299 252 299 268.5 281 c 128,-1,21
 285 263 285 263 312 261 c 0,22,23
 336 260 336 260 336 240 c 256,24,25
 336 220 336 220 312 219 c 0,26,27
 285 217 285 217 268.5 199.5 c 128,-1,28
 252 182 252 182 252 154 c 2,29,-1
 252 -19 l 2,30,31
 252 -63 252 -63 223.5 -93.5 c 128,-1,32
 195 -124 195 -124 154 -124 c 0,33,34
 130 -124 130 -124 130 -104 c 0,35,36
 130 -86 130 -86 156 -83 c 0,37,38
 180 -81 180 -81 195.5 -63 c 128,-1,39
 211 -45 211 -45 211 -19 c 2,0,-1
EndSplineSet
EndChar

StartChar: asciitilde
Encoding: 126 126 97
Width: 578
GlyphClass: 2
Flags: W
LayerCount: 2
Fore
SplineSet
477 330 m 0,0,1
 485 330 485 330 491 324.5 c 128,-1,2
 497 319 497 319 497 311 c 0,3,4
 497 300 497 300 472 271 c 0,5,6
 423 212 423 212 378 212 c 0,7,8
 354 212 354 212 331.5 224.5 c 128,-1,9
 309 237 309 237 262 277 c 1,10,11
 225 307 225 307 201 307 c 0,12,13
 182 307 182 307 167.5 295.5 c 128,-1,14
 153 284 153 284 120 242 c 0,15,16
 111 230 111 230 100 230 c 0,17,18
 93 230 93 230 87 236 c 128,-1,19
 81 242 81 242 81 249 c 0,20,21
 81 262 81 262 109 294 c 0,22,23
 156 348 156 348 201 348 c 0,24,25
 225 348 225 348 243 339 c 128,-1,26
 261 330 261 330 302 297 c 0,27,28
 356 253 356 253 375 253 c 0,29,30
 411 253 411 253 448 305 c 0,31,32
 465 330 465 330 477 330 c 0,0,1
EndSplineSet
EndChar

StartChar: exclamdown
Encoding: 161 161 98
Width: 392
GlyphClass: 2
Flags: W
LayerCount: 2
Fore
SplineSet
158 -161 m 2,0,-1
 176 165 l 2,1,2
 177 193 177 193 197 193 c 0,3,4
 216 193 216 193 217 165 c 2,5,-1
 235 -161 l 2,6,7
 236 -168 236 -168 236 -177 c 0,8,9
 236 -194 236 -194 224.5 -205 c 128,-1,10
 213 -216 213 -216 196 -216 c 0,11,12
 180 -216 180 -216 168.5 -205 c 128,-1,13
 157 -194 157 -194 157 -177 c 0,14,15
 157 -169 157 -169 158 -161 c 2,0,-1
203 317 m 2,16,-1
 190 317 l 2,17,18
 167 317 167 317 151.5 331.5 c 128,-1,19
 136 346 136 346 136 367 c 128,-1,20
 136 388 136 388 151.5 402.5 c 128,-1,21
 167 417 167 417 190 417 c 2,22,-1
 203 417 l 2,23,24
 225 417 225 417 240.5 402.5 c 128,-1,25
 256 388 256 388 256 367 c 128,-1,26
 256 346 256 346 240.5 331.5 c 128,-1,27
 225 317 225 317 203 317 c 2,16,-1
EndSplineSet
EndChar

StartChar: cent
Encoding: 162 162 99
Width: 524
GlyphClass: 2
Flags: W
LayerCount: 2
Fore
SplineSet
251 496 m 1,0,-1
 251 603 l 2,1,2
 251 630 251 630 272 630 c 0,3,4
 292 630 292 630 292 603 c 2,5,-1
 292 497 l 1,6,7
 355 497 355 497 396 461 c 1,8,9
 401 478 401 478 416 478 c 0,10,11
 437 478 437 478 437 453 c 2,12,-1
 437 392 l 2,13,14
 437 364 437 364 417 364 c 0,15,16
 400 364 400 364 397 387 c 0,17,18
 392 419 392 419 361 438.5 c 128,-1,19
 330 458 330 458 282 458 c 0,20,21
 214 458 214 458 169.5 416.5 c 128,-1,22
 125 375 125 375 125 311 c 0,23,24
 125 248 125 248 168.5 206.5 c 128,-1,25
 212 165 212 165 278 165 c 0,26,27
 352 165 352 165 403 207 c 0,28,29
 413 215 413 215 421 215 c 0,30,31
 440 215 440 215 440 195 c 128,-1,32
 440 175 440 175 391 152 c 128,-1,33
 342 129 342 129 292 127 c 1,34,-1
 292 14 l 2,35,36
 292 -13 292 -13 272 -13 c 0,37,38
 251 -13 251 -13 251 14 c 2,39,-1
 251 127 l 1,40,41
 178 135 178 135 131 187.5 c 128,-1,42
 84 240 84 240 84 311 c 0,43,44
 84 409 84 409 165 463 c 0,45,46
 198 485 198 485 251 496 c 1,0,-1
EndSplineSet
EndChar

StartChar: sterling
Encoding: 163 163 100
Width: 573
GlyphClass: 2
Flags: W
LayerCount: 2
Fore
SplineSet
167 41 m 1,0,-1
 419 41 l 2,1,2
 438 41 438 41 450.5 54.5 c 128,-1,3
 463 68 463 68 464 92 c 1,4,5
 467 115 467 115 485 115 c 0,6,7
 505 115 505 115 505 93 c 0,8,9
 505 55 505 55 480.5 27.5 c 128,-1,10
 456 0 456 0 421 0 c 2,11,-1
 98 0 l 2,12,13
 71 0 71 0 71 21 c 0,14,15
 71 40 71 40 93 40 c 1,16,17
 128 42 128 42 155.5 96.5 c 128,-1,18
 183 151 183 151 183 220 c 0,19,20
 183 247 183 247 179 273 c 1,21,-1
 75 273 l 2,22,23
 48 273 48 273 48 294 c 0,24,25
 48 314 48 314 75 314 c 2,26,-1
 169 314 l 1,27,28
 142 399 142 399 142 435 c 0,29,30
 142 494 142 494 183.5 536 c 128,-1,31
 225 578 225 578 283 578 c 0,32,33
 337 578 337 578 381 539 c 0,34,35
 412 511 412 511 412 495 c 0,36,37
 412 488 412 488 405.5 482 c 128,-1,38
 399 476 399 476 392 476 c 0,39,40
 383 476 383 476 374 488 c 0,41,42
 334 537 334 537 284 537 c 0,43,44
 243 537 243 537 213 506.5 c 128,-1,45
 183 476 183 476 183 435 c 0,46,47
 183 407 183 407 206 328 c 1,48,-1
 207 326 l 2,49,50
 207 324 207 324 208 320.5 c 128,-1,51
 209 317 209 317 210 314 c 1,52,-1
 309 314 l 2,53,54
 336 314 336 314 336 293 c 0,55,56
 336 273 336 273 309 273 c 2,57,-1
 219 273 l 1,58,59
 224 238 224 238 224 216 c 0,60,61
 224 112 224 112 167 41 c 1,0,-1
EndSplineSet
EndChar

StartChar: currency
Encoding: 164 164 101
Width: 486
GlyphClass: 2
Flags: W
LayerCount: 2
Fore
SplineSet
142 162 m 1,0,-1
 85 106 l 2,1,2
 75 95 75 95 67 95 c 0,3,4
 58 95 58 95 52 101 c 128,-1,5
 46 107 46 107 46 115 c 0,6,7
 46 124 46 124 57 135 c 2,8,-1
 113 191 l 1,9,10
 78 238 78 238 78 292 c 0,11,12
 78 351 78 351 112 394 c 1,13,-1
 57 450 l 2,14,15
 46 460 46 460 46 469 c 0,16,17
 46 477 46 477 52 483 c 128,-1,18
 58 489 58 489 66 489 c 128,-1,19
 74 489 74 489 85 478 c 2,20,-1
 141 423 l 1,21,22
 185 458 185 458 243 458 c 0,23,24
 300 458 300 458 345 423 c 1,25,-1
 400 478 l 2,26,27
 411 489 411 489 420 489 c 0,28,29
 428 489 428 489 434 483 c 128,-1,30
 440 477 440 477 440 468 c 0,31,32
 440 460 440 460 430 450 c 2,33,-1
 375 394 l 1,34,35
 409 347 409 347 409 293 c 0,36,37
 409 235 409 235 374 191 c 1,38,-1
 429 135 l 2,39,40
 439 125 439 125 439 115 c 0,41,42
 439 107 439 107 433 101 c 128,-1,43
 427 95 427 95 419 95 c 0,44,45
 410 95 410 95 400 106 c 2,46,-1
 344 162 l 1,47,48
 297 127 297 127 243 127 c 0,49,50
 188 127 188 127 142 162 c 1,0,-1
243 417 m 0,51,52
 192 417 192 417 155.5 380.5 c 128,-1,53
 119 344 119 344 119 293 c 0,54,55
 119 241 119 241 155.5 204.5 c 128,-1,56
 192 168 192 168 243 168 c 0,57,58
 293 168 293 168 330 204.5 c 128,-1,59
 367 241 367 241 367 291 c 0,60,61
 367 344 367 344 331 380.5 c 128,-1,62
 295 417 295 417 243 417 c 0,51,52
EndSplineSet
EndChar

StartChar: yen
Encoding: 165 165 102
Width: 545
GlyphClass: 2
Flags: W
LayerCount: 2
Fore
SplineSet
94 563 m 1,0,-1
 272 295 l 1,1,-1
 450 563 l 1,2,-1
 498 563 l 1,3,-1
 306 275 l 1,4,-1
 424 275 l 2,5,6
 445 275 445 275 445 257 c 0,7,8
 445 238 445 238 424 238 c 2,9,-1
 293 238 l 1,10,-1
 293 178 l 1,11,-1
 424 178 l 2,12,13
 445 178 445 178 445 160 c 0,14,15
 445 141 445 141 424 141 c 2,16,-1
 293 141 l 1,17,-1
 293 0 l 1,18,-1
 252 0 l 1,19,-1
 252 141 l 1,20,-1
 122 141 l 2,21,22
 100 141 100 141 100 160 c 0,23,24
 100 178 100 178 122 178 c 2,25,-1
 252 178 l 1,26,-1
 252 238 l 1,27,-1
 122 238 l 2,28,29
 100 238 100 238 100 257 c 0,30,31
 100 275 100 275 122 275 c 2,32,-1
 238 275 l 1,33,-1
 47 563 l 1,34,-1
 94 563 l 1,0,-1
EndSplineSet
EndChar

StartChar: brokenbar
Encoding: 166 166 103
Width: 262
GlyphClass: 2
Flags: W
LayerCount: 2
Fore
SplineSet
149 577 m 2,0,-1
 149 310 l 2,1,2
 149 283 149 283 129 283 c 128,-1,3
 109 283 109 283 109 310 c 2,4,-1
 109 577 l 2,5,6
 109 604 109 604 129 604 c 128,-1,7
 149 604 149 604 149 577 c 2,0,-1
149 170 m 2,8,-1
 149 -97 l 2,9,10
 149 -124 149 -124 129 -124 c 128,-1,11
 109 -124 109 -124 109 -97 c 2,12,-1
 109 170 l 2,13,14
 109 197 109 197 129 197 c 128,-1,15
 149 197 149 197 149 170 c 2,8,-1
EndSplineSet
EndChar

StartChar: section
Encoding: 167 167 104
Width: 544
GlyphClass: 2
Flags: W
LayerCount: 2
Fore
SplineSet
74 -22 m 1,0,-1
 280 -22 l 2,1,2
 320 -22 320 -22 346.5 -0.5 c 128,-1,3
 373 21 373 21 373 53 c 0,4,5
 373 79 373 79 343.5 107 c 128,-1,6
 314 135 314 135 242 175 c 2,7,-1
 177 211 l 1,8,9
 35 291 35 291 35 358 c 0,10,11
 35 392 35 392 63 414.5 c 128,-1,12
 91 437 91 437 138 441 c 1,13,14
 125 463 125 463 125 487 c 0,15,16
 125 534 125 534 163 568.5 c 128,-1,17
 201 603 201 603 253 603 c 2,18,-1
 465 603 l 1,19,-1
 465 563 l 1,20,-1
 256 563 l 2,21,22
 219 563 219 563 192 540.5 c 128,-1,23
 165 518 165 518 165 487 c 0,24,25
 165 459 165 459 195 433 c 128,-1,26
 225 407 225 407 314 358 c 2,27,-1
 370 327 l 2,28,29
 440 289 440 289 471.5 255.5 c 128,-1,30
 503 222 503 222 503 185 c 0,31,32
 503 146 503 146 467 121 c 0,33,34
 444 106 444 106 401 101 c 1,35,36
 414 79 414 79 414 52 c 0,37,38
 414 3 414 3 376 -29.5 c 128,-1,39
 338 -62 338 -62 281 -62 c 2,40,-1
 74 -62 l 1,41,-1
 74 -22 l 1,0,-1
353 290 m 1,42,-1
 289 326 l 1,43,44
 205 372 205 372 170 403 c 1,45,46
 164 402 164 402 152 402 c 0,47,48
 120 402 120 402 99 389 c 128,-1,49
 78 376 78 376 78 357 c 0,50,51
 78 314 78 314 203 243 c 2,52,-1
 265 208 l 2,53,54
 345 163 345 163 369 139 c 1,55,56
 373 141 373 141 387 142 c 0,57,58
 421 143 421 143 440.5 154 c 128,-1,59
 460 165 460 165 460 184 c 0,60,61
 460 206 460 206 431 235 c 128,-1,62
 402 264 402 264 353 290 c 1,42,-1
EndSplineSet
EndChar

StartChar: dieresis
Encoding: 168 168 105
Width: 565
GlyphClass: 2
Flags: W
LayerCount: 2
Fore
SplineSet
172 611 m 0,0,1
 193 611 193 611 207.5 596 c 128,-1,2
 222 581 222 581 222 560 c 0,3,4
 222 540 222 540 207 525.5 c 128,-1,5
 192 511 192 511 172 511 c 128,-1,6
 152 511 152 511 137 526 c 128,-1,7
 122 541 122 541 122 561 c 128,-1,8
 122 581 122 581 137 596 c 128,-1,9
 152 611 152 611 172 611 c 0,0,1
393 611 m 0,10,11
 414 611 414 611 428.5 596 c 128,-1,12
 443 581 443 581 443 560 c 0,13,14
 443 540 443 540 428 525.5 c 128,-1,15
 413 511 413 511 393 511 c 128,-1,16
 373 511 373 511 358 526 c 128,-1,17
 343 541 343 541 343 561 c 128,-1,18
 343 581 343 581 358 596 c 128,-1,19
 373 611 373 611 393 611 c 0,10,11
EndSplineSet
EndChar

StartChar: copyright
Encoding: 169 169 106
Width: 805
GlyphClass: 2
Flags: W
LayerCount: 2
Fore
SplineSet
520 358 m 1,0,1
 520 338 520 338 502 338 c 0,2,3
 487 338 487 338 484 357 c 1,4,5
 482 380 482 380 456 397 c 128,-1,6
 430 414 430 414 396 414 c 0,7,8
 353 414 353 414 322.5 381.5 c 128,-1,9
 292 349 292 349 292 302 c 2,10,-1
 292 263 l 2,11,12
 292 216 292 216 325.5 181.5 c 128,-1,13
 359 147 359 147 405 147 c 0,14,15
 455 147 455 147 495 194 c 0,16,17
 502 202 502 202 511 202 c 0,18,19
 518 202 518 202 523 197 c 128,-1,20
 528 192 528 192 528 185 c 0,21,22
 528 172 528 172 505 152 c 1,23,24
 461 111 461 111 405 111 c 0,25,26
 346 111 346 111 301 156 c 128,-1,27
 256 201 256 201 256 260 c 2,28,-1
 256 305 l 2,29,30
 256 365 256 365 297 407.5 c 128,-1,31
 338 450 338 450 395 450 c 0,32,33
 416 450 416 450 439 444.5 c 128,-1,34
 462 439 462 439 487.5 416.5 c 128,-1,35
 513 394 513 394 520 358 c 1,0,1
403 578 m 0,36,37
 525 578 525 578 612 491 c 128,-1,38
 699 404 699 404 699 282 c 0,39,40
 699 157 699 157 612 71 c 128,-1,41
 525 -15 525 -15 399 -15 c 0,42,43
 279 -15 279 -15 192.5 72.5 c 128,-1,44
 106 160 106 160 106 282 c 128,-1,45
 106 404 106 404 193 491 c 128,-1,46
 280 578 280 578 403 578 c 0,36,37
403 537 m 0,47,48
 297 537 297 537 222 462.5 c 128,-1,49
 147 388 147 388 147 282 c 0,50,51
 147 177 147 177 221.5 101.5 c 128,-1,52
 296 26 296 26 399 26 c 0,53,54
 508 26 508 26 583 100.5 c 128,-1,55
 658 175 658 175 658 282 c 0,56,57
 658 387 658 387 583 462 c 128,-1,58
 508 537 508 537 403 537 c 0,47,48
EndSplineSet
EndChar

StartChar: ordfeminine
Encoding: 170 170 107
Width: 347
GlyphClass: 2
Flags: W
LayerCount: 2
Fore
SplineSet
295 282 m 1,0,-1
 258 282 l 1,1,-1
 258 308 l 1,2,3
 204 279 204 279 151 279 c 0,4,5
 107 279 107 279 79.5 301 c 128,-1,6
 52 323 52 323 52 358 c 0,7,8
 52 401 52 401 89.5 428 c 128,-1,9
 127 455 127 455 185 455 c 0,10,11
 213 455 213 455 258 446 c 1,12,-1
 258 490 l 2,13,14
 258 511 258 511 240 524 c 128,-1,15
 222 537 222 537 193 537 c 0,16,17
 165 537 165 537 117 518 c 0,18,19
 109 514 109 514 103 514 c 0,20,21
 96 514 96 514 91 519.5 c 128,-1,22
 86 525 86 525 86 533 c 0,23,24
 86 545 86 545 100 552 c 1,25,26
 155 574 155 574 195 574 c 0,27,28
 239 574 239 574 267 550.5 c 128,-1,29
 295 527 295 527 295 490 c 2,30,-1
 295 282 l 1,0,-1
258 350 m 1,31,-1
 258 409 l 1,32,33
 229 420 229 420 187 420 c 0,34,35
 144 420 144 420 116.5 402 c 128,-1,36
 89 384 89 384 89 356 c 0,37,38
 89 338 89 338 106 327 c 128,-1,39
 123 316 123 316 151 316 c 0,40,41
 206 316 206 316 258 350 c 1,31,-1
EndSplineSet
EndChar

StartChar: guillemotleft
Encoding: 171 171 108
Width: 609
GlyphClass: 2
Flags: W
LayerCount: 2
Fore
SplineSet
72 209 m 1,0,-1
 280 406 l 2,1,2
 291 417 291 417 301 417 c 0,3,4
 309 417 309 417 315 411 c 128,-1,5
 321 405 321 405 321 397 c 128,-1,6
 321 389 321 389 310 377 c 2,7,-1
 167 209 l 1,8,-1
 310 40 l 2,9,10
 321 28 321 28 321 20 c 128,-1,11
 321 12 321 12 315 6 c 128,-1,12
 309 0 309 0 301 0 c 128,-1,13
 293 0 293 0 280 11 c 2,14,-1
 72 209 l 1,0,-1
301 209 m 1,15,-1
 509 406 l 2,16,17
 520 417 520 417 530 417 c 0,18,19
 538 417 538 417 544 411 c 128,-1,20
 550 405 550 405 550 397 c 128,-1,21
 550 389 550 389 539 377 c 2,22,-1
 396 209 l 1,23,-1
 539 40 l 2,24,25
 550 28 550 28 550 20 c 128,-1,26
 550 12 550 12 544 6 c 128,-1,27
 538 0 538 0 530 0 c 128,-1,28
 522 0 522 0 509 11 c 2,29,-1
 301 209 l 1,15,-1
EndSplineSet
EndChar

StartChar: logicalnot
Encoding: 172 172 109
Width: 631
GlyphClass: 2
Flags: W
LayerCount: 2
Fore
SplineSet
496 397 m 1,0,-1
 108 397 l 2,1,2
 81 397 81 397 81 418 c 0,3,4
 81 438 81 438 108 438 c 2,5,-1
 537 438 l 1,6,-1
 537 195 l 2,7,8
 537 168 537 168 516 168 c 0,9,10
 496 168 496 168 496 195 c 2,11,-1
 496 397 l 1,0,-1
EndSplineSet
EndChar

StartChar: registered
Encoding: 174 174 110
Width: 805
GlyphClass: 2
Flags: W
LayerCount: 2
Fore
SplineSet
549 120 m 1,0,-1
 510 120 l 1,1,2
 453 239 453 239 399 258 c 1,3,-1
 336 258 l 1,4,-1
 336 120 l 1,5,-1
 300 120 l 1,6,-1
 300 443 l 1,7,-1
 414 443 l 2,8,9
 460 443 460 443 489.5 417 c 128,-1,10
 519 391 519 391 519 350 c 0,11,12
 519 322 519 322 500 300 c 128,-1,13
 481 278 481 278 449 269 c 1,14,15
 474 253 474 253 505 206 c 128,-1,16
 536 159 536 159 549 120 c 1,0,-1
336 294 m 1,17,-1
 392 294 l 2,18,19
 434 294 434 294 458.5 309.5 c 128,-1,20
 483 325 483 325 483 352 c 0,21,22
 483 376 483 376 463.5 391.5 c 128,-1,23
 444 407 444 407 413 407 c 2,24,-1
 336 407 l 1,25,-1
 336 294 l 1,17,-1
403 578 m 0,26,27
 525 578 525 578 612 491 c 128,-1,28
 699 404 699 404 699 282 c 0,29,30
 699 157 699 157 612 71 c 128,-1,31
 525 -15 525 -15 399 -15 c 0,32,33
 279 -15 279 -15 192.5 72.5 c 128,-1,34
 106 160 106 160 106 282 c 128,-1,35
 106 404 106 404 193 491 c 128,-1,36
 280 578 280 578 403 578 c 0,26,27
403 537 m 0,37,38
 297 537 297 537 222 462.5 c 128,-1,39
 147 388 147 388 147 282 c 0,40,41
 147 177 147 177 221.5 101.5 c 128,-1,42
 296 26 296 26 399 26 c 0,43,44
 508 26 508 26 583 100.5 c 128,-1,45
 658 175 658 175 658 282 c 0,46,47
 658 387 658 387 583 462 c 128,-1,48
 508 537 508 537 403 537 c 0,37,38
EndSplineSet
EndChar

StartChar: macron
Encoding: 175 175 111
Width: 450
GlyphClass: 2
Flags: W
LayerCount: 2
Fore
SplineSet
343 536 m 2,0,-1
 107 536 l 2,1,2
 80 536 80 536 80 556 c 128,-1,3
 80 576 80 576 107 576 c 2,4,-1
 343 576 l 2,5,6
 370 576 370 576 370 556 c 128,-1,7
 370 536 370 536 343 536 c 2,0,-1
EndSplineSet
EndChar

StartChar: degree
Encoding: 176 176 112
Width: 468
GlyphClass: 2
Flags: W
LayerCount: 2
Fore
SplineSet
234 636 m 0,0,1
 294 636 294 636 336.5 593.5 c 128,-1,2
 379 551 379 551 379 491 c 128,-1,3
 379 431 379 431 336.5 388.5 c 128,-1,4
 294 346 294 346 234 346 c 0,5,6
 173 346 173 346 131 388.5 c 128,-1,7
 89 431 89 431 89 493 c 0,8,9
 89 551 89 551 132 593.5 c 128,-1,10
 175 636 175 636 234 636 c 0,0,1
234 595 m 128,-1,12
 191 595 191 595 160.5 564.5 c 128,-1,13
 130 534 130 534 130 492 c 0,14,15
 130 448 130 448 160.5 417.5 c 128,-1,16
 191 387 191 387 234 387 c 128,-1,17
 277 387 277 387 307.5 417.5 c 128,-1,18
 338 448 338 448 338 491 c 128,-1,19
 338 534 338 534 307.5 564.5 c 128,-1,11
 277 595 277 595 234 595 c 128,-1,12
EndSplineSet
EndChar

StartChar: plusminus
Encoding: 177 177 113
Width: 618
GlyphClass: 2
Flags: W
LayerCount: 2
Fore
SplineSet
329 301 m 1,0,-1
 329 139 l 2,1,2
 329 112 329 112 309 112 c 0,3,4
 288 112 288 112 288 139 c 2,5,-1
 288 301 l 1,6,-1
 108 301 l 2,7,8
 81 301 81 301 81 321 c 128,-1,9
 81 341 81 341 108 341 c 2,10,-1
 288 341 l 1,11,-1
 288 502 l 2,12,13
 288 529 288 529 309 529 c 0,14,15
 329 529 329 529 329 502 c 2,16,-1
 329 341 l 1,17,-1
 509 341 l 2,18,19
 537 341 537 341 537 321 c 128,-1,20
 537 301 537 301 509 301 c 2,21,-1
 329 301 l 1,0,-1
108 40 m 2,22,-1
 510 40 l 2,23,24
 537 40 537 40 537 20 c 128,-1,25
 537 0 537 0 510 0 c 2,26,-1
 108 0 l 2,27,28
 81 0 81 0 81 20 c 128,-1,29
 81 40 81 40 108 40 c 2,22,-1
EndSplineSet
EndChar

StartChar: twosuperior
Encoding: 178 178 114
Width: 313
GlyphClass: 2
Flags: W
LayerCount: 2
Fore
SplineSet
265 259 m 1,0,-1
 35 259 l 1,1,-1
 35 302 l 1,2,-1
 167 425 l 1,3,4
 205 463 205 463 216 479 c 128,-1,5
 227 495 227 495 227 511 c 0,6,7
 227 537 227 537 205.5 556.5 c 128,-1,8
 184 576 184 576 155 576 c 0,9,10
 129 576 129 576 108.5 561.5 c 128,-1,11
 88 547 88 547 81 524 c 0,12,13
 77 508 77 508 63 508 c 0,14,15
 56 508 56 508 51 513 c 128,-1,16
 46 518 46 518 46 525 c 0,17,18
 46 544 46 544 65 568 c 0,19,20
 100 612 100 612 155 612 c 0,21,22
 198 612 198 612 230.5 582 c 128,-1,23
 263 552 263 552 263 511 c 0,24,25
 263 479 263 479 233.5 444.5 c 128,-1,26
 204 410 204 410 79 295 c 1,27,-1
 265 295 l 1,28,-1
 265 259 l 1,0,-1
EndSplineSet
EndChar

StartChar: threesuperior
Encoding: 179 179 115
Width: 318
GlyphClass: 2
Flags: W
LayerCount: 2
Fore
SplineSet
213 446 m 1,0,1
 271 410 271 410 271 358 c 0,2,3
 271 314 271 314 235.5 282.5 c 128,-1,4
 200 251 200 251 150 251 c 0,5,6
 113 251 113 251 74.5 269 c 128,-1,7
 36 287 36 287 36 304 c 0,8,9
 36 311 36 311 41 316 c 128,-1,10
 46 321 46 321 53 321 c 128,-1,11
 60 321 60 321 66 316 c 0,12,13
 107 287 107 287 150 287 c 0,14,15
 184 287 184 287 209.5 308 c 128,-1,16
 235 329 235 329 235 358 c 0,17,18
 235 388 235 388 209 409 c 128,-1,19
 183 430 183 430 143 431 c 1,20,21
 122 433 122 433 122 449 c 0,22,23
 122 459 122 459 131 465 c 0,24,25
 134 467 134 467 159 467 c 0,26,27
 187 467 187 467 205 482 c 128,-1,28
 223 497 223 497 223 520 c 0,29,30
 223 544 223 544 203.5 560 c 128,-1,31
 184 576 184 576 155 576 c 0,32,33
 110 576 110 576 86 549 c 1,34,35
 79 539 79 539 70 539 c 0,36,37
 63 539 63 539 57.5 544 c 128,-1,38
 52 549 52 549 52 556 c 0,39,40
 52 575 52 575 86.5 593.5 c 128,-1,41
 121 612 121 612 155 612 c 0,42,43
 199 612 199 612 229 585.5 c 128,-1,44
 259 559 259 559 259 520 c 0,45,46
 259 477 259 477 213 446 c 1,0,1
EndSplineSet
EndChar

StartChar: acute
Encoding: 180 180 116
Width: 383
GlyphClass: 2
Flags: W
LayerCount: 2
Fore
SplineSet
292 599 m 2,0,-1
 178 499 l 1,1,2
 166 490 166 490 159 490 c 0,3,4
 151 490 151 490 145 496 c 128,-1,5
 139 502 139 502 139 511 c 0,6,7
 139 519 139 519 151 530 c 2,8,-1
 265 630 l 1,9,10
 277 639 277 639 284 639 c 0,11,12
 292 639 292 639 298 633 c 128,-1,13
 304 627 304 627 304 618 c 0,14,15
 304 610 304 610 292 599 c 2,0,-1
EndSplineSet
EndChar

StartChar: paragraph
Encoding: 182 182 117
Width: 602
GlyphClass: 2
Flags: W
LayerCount: 2
Fore
SplineSet
423 -62 m 1,0,1
 399 -62 399 -62 388 -62 c 0,2,3
 381 -62 381 -62 381 -62 c 129,-1,4
 381 -62 381 -62 383 -62 c 1,5,-1
 383 563 l 1,6,-1
 311 563 l 1,7,-1
 311 -62 l 1,8,9
 313 -62 313 -62 313 -62 c 129,-1,10
 313 -62 313 -62 306 -62 c 2,11,-1
 270 -62 l 1,12,-1
 270 260 l 1,13,14
 205 264 205 264 159 284 c 0,15,16
 116 303 116 303 90.5 336 c 128,-1,17
 65 369 65 369 65 406 c 2,18,-1
 65 453 l 2,19,20
 65 520 65 520 125.5 562 c 128,-1,21
 186 604 186 604 284 604 c 2,22,-1
 484 604 l 2,23,24
 509 604 509 604 509 584 c 0,25,26
 509 563 509 563 484 563 c 2,27,-1
 423 563 l 1,28,-1
 423 -62 l 1,0,1
270 307 m 1,29,-1
 270 558 l 1,30,31
 212 552 212 552 173.5 521.5 c 128,-1,32
 135 491 135 491 135 451 c 2,33,-1
 135 414 l 2,34,35
 135 374 135 374 173.5 343.5 c 128,-1,36
 212 313 212 313 270 307 c 1,29,-1
EndSplineSet
EndChar

StartChar: periodcentered
Encoding: 183 183 118
Width: 353
GlyphClass: 2
Flags: W
LayerCount: 2
Fore
SplineSet
171 348 m 2,0,-1
 181 348 l 2,1,2
 210 348 210 348 230 329.5 c 128,-1,3
 250 311 250 311 250 283 c 128,-1,4
 250 255 250 255 230 236 c 128,-1,5
 210 217 210 217 181 217 c 2,6,-1
 171 217 l 2,7,8
 142 217 142 217 122 236 c 128,-1,9
 102 255 102 255 102 283 c 128,-1,10
 102 311 102 311 122 329.5 c 128,-1,11
 142 348 142 348 171 348 c 2,0,-1
EndSplineSet
EndChar

StartChar: cedilla
Encoding: 184 184 119
Width: 405
GlyphClass: 2
Flags: W
LayerCount: 2
Fore
SplineSet
173 0 m 1,0,-1
 211 0 l 1,1,-1
 211 -47 l 1,2,3
 276 -49 276 -49 276 -108 c 0,4,5
 276 -137 276 -137 254 -155 c 128,-1,6
 232 -173 232 -173 197 -173 c 0,7,8
 161 -173 161 -173 127 -155 c 0,9,10
 109 -146 109 -146 109 -133 c 0,11,12
 109 -125 109 -125 115 -119.5 c 128,-1,13
 121 -114 121 -114 129 -114 c 0,14,15
 134 -114 134 -114 144 -119 c 0,16,17
 173 -135 173 -135 195 -135 c 0,18,19
 214 -135 214 -135 226.5 -127 c 128,-1,20
 239 -119 239 -119 239 -106 c 0,21,22
 239 -81 239 -81 193 -81 c 2,23,-1
 173 -81 l 1,24,-1
 173 0 l 1,0,-1
EndSplineSet
EndChar

StartChar: onesuperior
Encoding: 185 185 120
Width: 220
GlyphClass: 2
Flags: W
LayerCount: 2
Fore
SplineSet
142 259 m 1,0,-1
 142 563 l 1,1,-1
 77 542 l 2,2,3
 69 540 69 540 68 540 c 0,4,5
 62 540 62 540 56.5 545.5 c 128,-1,6
 51 551 51 551 51 558 c 0,7,8
 51 569 51 569 67 576 c 128,-1,9
 83 583 83 583 178 612 c 1,10,-1
 178 259 l 1,11,-1
 142 259 l 1,0,-1
EndSplineSet
EndChar

StartChar: ordmasculine
Encoding: 186 186 121
Width: 391
GlyphClass: 2
Flags: W
LayerCount: 2
Fore
SplineSet
195 577 m 0,0,1
 257 577 257 577 299.5 534 c 128,-1,2
 342 491 342 491 342 429 c 0,3,4
 342 370 342 370 298.5 327 c 128,-1,5
 255 284 255 284 195 284 c 0,6,7
 134 284 134 284 91 327 c 128,-1,8
 48 370 48 370 48 431 c 0,9,10
 48 491 48 491 91 534 c 128,-1,11
 134 577 134 577 195 577 c 0,0,1
195 540 m 128,-1,13
 149 540 149 540 117 508 c 128,-1,14
 85 476 85 476 85 431 c 0,15,16
 85 385 85 385 117.5 353 c 128,-1,17
 150 321 150 321 195 321 c 128,-1,18
 240 321 240 321 272.5 353 c 128,-1,19
 305 385 305 385 305 429 c 0,20,21
 305 476 305 476 273 508 c 128,-1,12
 241 540 241 540 195 540 c 128,-1,13
EndSplineSet
EndChar

StartChar: guillemotright
Encoding: 187 187 122
Width: 609
GlyphClass: 2
Flags: W
LayerCount: 2
Fore
SplineSet
320 208 m 1,0,-1
 113 11 l 2,1,2
 102 0 102 0 92 0 c 0,3,4
 84 0 84 0 78 6 c 128,-1,5
 72 12 72 12 72 20 c 128,-1,6
 72 28 72 28 83 40 c 2,7,-1
 225 208 l 1,8,-1
 83 377 l 2,9,10
 72 389 72 389 72 397 c 128,-1,11
 72 405 72 405 78 411 c 128,-1,12
 84 417 84 417 92 417 c 128,-1,13
 100 417 100 417 113 406 c 1,14,-1
 320 208 l 1,0,-1
550 208 m 1,15,-1
 343 11 l 2,16,17
 332 0 332 0 322 0 c 0,18,19
 314 0 314 0 308 6 c 128,-1,20
 302 12 302 12 302 20 c 128,-1,21
 302 28 302 28 313 40 c 2,22,-1
 455 208 l 1,23,-1
 313 377 l 2,24,25
 302 389 302 389 302 397 c 128,-1,26
 302 405 302 405 308 411 c 128,-1,27
 314 417 314 417 322 417 c 128,-1,28
 330 417 330 417 343 406 c 1,29,-1
 550 208 l 1,15,-1
EndSplineSet
EndChar

StartChar: onequarter
Encoding: 188 188 123
Width: 648
GlyphClass: 2
Flags: W
LayerCount: 2
Fore
SplineSet
142 259 m 1,0,-1
 142 563 l 1,1,-1
 77 542 l 2,2,3
 69 540 69 540 68 540 c 0,4,5
 62 540 62 540 56.5 545.5 c 128,-1,6
 51 551 51 551 51 558 c 0,7,8
 51 569 51 569 67 576 c 128,-1,9
 83 583 83 583 178 612 c 1,10,-1
 178 259 l 1,11,12
 161 259 161 259 152 259 c 0,13,14
 142 259 142 259 142 259 c 1,0,-1
525 477 m 1,15,-1
 174 63 l 2,16,17
 164 51 164 51 156 51 c 128,-1,18
 148 51 148 51 142 57 c 128,-1,19
 136 63 136 63 136 71 c 0,20,21
 136 78 136 78 145 88 c 2,22,-1
 495 502 l 2,23,24
 506 514 506 514 513 514 c 0,25,26
 521 514 521 514 527 508 c 128,-1,27
 533 502 533 502 533 494 c 0,28,29
 533 489 533 489 525 477 c 1,15,-1
543 0 m 1,30,-1
 543 93 l 1,31,-1
 394 93 l 1,32,-1
 394 127 l 1,33,-1
 522 345 l 1,34,-1
 579 345 l 1,35,-1
 579 129 l 1,36,-1
 592 129 l 2,37,38
 613 129 613 129 613 111 c 128,-1,39
 613 93 613 93 588 93 c 2,40,-1
 579 93 l 1,41,-1
 579 0 l 1,42,-1
 578 0 l 1,43,-1
 577 0 l 1,44,-1
 575 0 l 1,45,-1
 574 0 l 1,46,-1
 572 0 l 1,47,-1
 570 0 l 1,48,-1
 568 0 l 1,49,-1
 566 0 l 1,50,-1
 563 0 l 1,51,-1
 560 0 l 1,52,-1
 556 0 l 1,53,-1
 552 0 l 1,54,-1
 543 0 l 1,30,-1
543 129 m 1,55,-1
 543 309 l 1,56,-1
 541 309 l 1,57,-1
 434 129 l 1,58,-1
 543 129 l 1,55,-1
EndSplineSet
EndChar

StartChar: onehalf
Encoding: 189 189 124
Width: 649
GlyphClass: 2
Flags: W
LayerCount: 2
Fore
SplineSet
512 477 m 1,0,-1
 161 63 l 2,1,2
 151 51 151 51 143 51 c 128,-1,3
 135 51 135 51 129 57 c 128,-1,4
 123 63 123 63 123 71 c 0,5,6
 123 78 123 78 132 88 c 2,7,-1
 482 502 l 2,8,9
 493 514 493 514 500 514 c 0,10,11
 508 514 508 514 514 508 c 128,-1,12
 520 502 520 502 520 494 c 0,13,14
 520 489 520 489 512 477 c 1,0,-1
142 259 m 1,15,-1
 142 563 l 1,16,-1
 77 542 l 2,17,18
 69 540 69 540 68 540 c 0,19,20
 62 540 62 540 56.5 545.5 c 128,-1,21
 51 551 51 551 51 558 c 0,22,23
 51 569 51 569 67 576 c 128,-1,24
 83 583 83 583 178 612 c 1,25,-1
 178 259 l 1,26,27
 161 259 161 259 152 259 c 0,28,29
 142 259 142 259 142 259 c 1,15,-1
600 0 m 1,30,-1
 370 0 l 1,31,-1
 370 43 l 1,32,-1
 502 166 l 1,33,34
 540 204 540 204 551 220 c 128,-1,35
 562 236 562 236 562 252 c 0,36,37
 562 278 562 278 540.5 297.5 c 128,-1,38
 519 317 519 317 490 317 c 0,39,40
 464 317 464 317 443.5 302.5 c 128,-1,41
 423 288 423 288 416 265 c 0,42,43
 412 249 412 249 398 249 c 0,44,45
 391 249 391 249 386 254 c 128,-1,46
 381 259 381 259 381 266 c 0,47,48
 381 285 381 285 400 309 c 0,49,50
 435 353 435 353 490 353 c 0,51,52
 533 353 533 353 565.5 323 c 128,-1,53
 598 293 598 293 598 252 c 0,54,55
 598 220 598 220 568.5 185.5 c 128,-1,56
 539 151 539 151 414 36 c 1,57,-1
 600 36 l 1,58,-1
 600 0 l 1,30,-1
EndSplineSet
EndChar

StartChar: threequarters
Encoding: 190 190 125
Width: 645
GlyphClass: 2
Flags: W
LayerCount: 2
Fore
SplineSet
540 0 m 1,0,-1
 540 93 l 1,1,-1
 391 93 l 1,2,-1
 391 127 l 1,3,-1
 519 345 l 1,4,-1
 576 345 l 1,5,-1
 576 129 l 1,6,-1
 589 129 l 2,7,8
 610 129 610 129 610 111 c 128,-1,9
 610 93 610 93 585 93 c 2,10,-1
 576 93 l 1,11,-1
 576 0 l 1,12,-1
 528 0 l 1,13,-1
 540 0 l 1,0,-1
540 129 m 1,14,-1
 540 309 l 1,15,-1
 538 309 l 1,16,-1
 431 129 l 1,17,-1
 540 129 l 1,14,-1
213 446 m 1,18,19
 271 410 271 410 271 358 c 0,20,21
 271 314 271 314 235.5 282.5 c 128,-1,22
 200 251 200 251 150 251 c 0,23,24
 113 251 113 251 74.5 269 c 128,-1,25
 36 287 36 287 36 304 c 0,26,27
 36 311 36 311 41 316 c 128,-1,28
 46 321 46 321 53 321 c 128,-1,29
 60 321 60 321 66 316 c 0,30,31
 107 287 107 287 150 287 c 0,32,33
 184 287 184 287 209.5 308 c 128,-1,34
 235 329 235 329 235 358 c 0,35,36
 235 388 235 388 209 409 c 128,-1,37
 183 430 183 430 143 431 c 1,38,39
 122 433 122 433 122 449 c 0,40,41
 122 459 122 459 131 465 c 0,42,43
 134 467 134 467 159 467 c 0,44,45
 187 467 187 467 205 482 c 128,-1,46
 223 497 223 497 223 520 c 0,47,48
 223 544 223 544 203.5 560 c 128,-1,49
 184 576 184 576 155 576 c 0,50,51
 110 576 110 576 86 549 c 0,52,53
 78 539 78 539 70 539 c 0,54,55
 63 539 63 539 57.5 544 c 128,-1,56
 52 549 52 549 52 556 c 0,57,58
 52 575 52 575 86.5 593.5 c 128,-1,59
 121 612 121 612 155 612 c 0,60,61
 199 612 199 612 229 585.5 c 128,-1,62
 259 559 259 559 259 520 c 0,63,64
 259 477 259 477 213 446 c 1,18,19
521 477 m 1,65,-1
 170 63 l 2,66,67
 160 51 160 51 152 51 c 128,-1,68
 144 51 144 51 138 57 c 128,-1,69
 132 63 132 63 132 71 c 0,70,71
 132 78 132 78 141 88 c 2,72,-1
 491 502 l 2,73,74
 502 514 502 514 509 514 c 0,75,76
 517 514 517 514 523 508 c 128,-1,77
 529 502 529 502 529 494 c 0,78,79
 529 489 529 489 521 477 c 1,65,-1
EndSplineSet
EndChar

StartChar: questiondown
Encoding: 191 191 126
Width: 486
GlyphClass: 2
Flags: W
LayerCount: 2
Fore
SplineSet
370 -100 m 1,0,-1
 411 -126 l 1,1,2
 405 -129 405 -129 395 -133.5 c 128,-1,3
 385 -138 385 -138 382 -139 c 0,4,5
 301 -175 301 -175 236 -175 c 0,6,7
 156 -175 156 -175 107 -132.5 c 128,-1,8
 58 -90 58 -90 58 -21 c 0,9,10
 58 35 58 35 93.5 73 c 128,-1,11
 129 111 129 111 223 155 c 1,12,-1
 223 196 l 2,13,14
 223 223 223 223 243 223 c 0,15,16
 264 223 264 223 264 196 c 2,17,-1
 264 128 l 1,18,19
 177 92 177 92 138 57 c 128,-1,20
 99 22 99 22 99 -21 c 0,21,22
 99 -71 99 -71 139 -102.5 c 128,-1,23
 179 -134 179 -134 241 -134 c 0,24,25
 301 -134 301 -134 370 -100 c 1,0,-1
258 317 m 2,26,-1
 231 317 l 2,27,28
 206 317 206 317 190 331 c 128,-1,29
 174 345 174 345 174 367 c 128,-1,30
 174 389 174 389 190 403 c 128,-1,31
 206 417 206 417 231 417 c 2,32,-1
 258 417 l 2,33,34
 284 417 284 417 299.5 403 c 128,-1,35
 315 389 315 389 315 367 c 128,-1,36
 315 345 315 345 299.5 331 c 128,-1,37
 284 317 284 317 258 317 c 2,26,-1
EndSplineSet
EndChar

StartChar: Agrave
Encoding: 192 192 127
Width: 538
GlyphClass: 2
Flags: W
LayerCount: 2
Fore
SplineSet
175 780 m 1,0,-1
 289 680 l 1,1,-1
 296 672 l 2,2,3
 301 667 301 667 301 661 c 0,4,5
 301 652 301 652 295 646 c 128,-1,6
 289 640 289 640 280 640 c 0,7,8
 273 640 273 640 262 649 c 2,9,-1
 148 749 l 2,10,11
 136 760 136 760 136 769 c 0,12,13
 136 777 136 777 142 783 c 128,-1,14
 148 789 148 789 156 789 c 0,15,16
 163 789 163 789 175 780 c 1,0,-1
23 0 m 1,17,-1
 233 563 l 1,18,-1
 301 563 l 1,19,-1
 513 0 l 1,20,-1
 470 0 l 1,21,-1
 399 188 l 1,22,-1
 133 188 l 1,23,-1
 64 0 l 1,24,-1
 23 0 l 1,17,-1
384 229 m 1,25,-1
 272 522 l 1,26,-1
 257 522 l 1,27,-1
 149 229 l 1,28,-1
 384 229 l 1,25,-1
EndSplineSet
EndChar

StartChar: Aacute
Encoding: 193 193 128
Width: 538
GlyphClass: 2
Flags: W
LayerCount: 2
Fore
SplineSet
342 749 m 2,0,-1
 228 649 l 1,1,2
 216 640 216 640 209 640 c 0,3,4
 201 640 201 640 195 646 c 128,-1,5
 189 652 189 652 189 661 c 0,6,7
 189 669 189 669 201 680 c 2,8,-1
 315 780 l 1,9,10
 327 789 327 789 334 789 c 0,11,12
 342 789 342 789 348 783 c 128,-1,13
 354 777 354 777 354 768 c 0,14,15
 354 760 354 760 342 749 c 2,0,-1
23 0 m 1,16,-1
 233 563 l 1,17,-1
 301 563 l 1,18,-1
 513 0 l 1,19,-1
 470 0 l 1,20,-1
 399 188 l 1,21,-1
 133 188 l 1,22,-1
 64 0 l 1,23,-1
 23 0 l 1,16,-1
384 229 m 1,24,-1
 272 522 l 1,25,-1
 257 522 l 1,26,-1
 149 229 l 1,27,-1
 384 229 l 1,24,-1
EndSplineSet
EndChar

StartChar: AE
Encoding: 198 198 133
Width: 598
GlyphClass: 2
Flags: W
LayerCount: 2
Fore
SplineSet
63 0 m 1,0,-1
 21 0 l 1,1,-1
 177 563 l 1,2,-1
 529 563 l 1,3,-1
 529 522 l 1,4,-1
 297 522 l 1,5,-1
 297 314 l 1,6,-1
 415 314 l 1,7,-1
 415 273 l 1,8,-1
 297 273 l 1,9,-1
 297 41 l 1,10,-1
 549 41 l 1,11,-1
 549 0 l 1,12,-1
 256 0 l 1,13,-1
 256 189 l 1,14,-1
 115 189 l 1,15,-1
 63 0 l 1,0,-1
256 230 m 1,16,-1
 256 522 l 1,17,-1
 206 522 l 1,18,-1
 126 230 l 1,19,-1
 256 230 l 1,16,-1
EndSplineSet
EndChar

StartChar: Ccedilla
Encoding: 199 199 134
Width: 576
GlyphClass: 2
Flags: W
LayerCount: 2
Fore
SplineSet
301 10 m 1,0,-1
 318 -16 l 1,1,-1
 318 -47 l 1,2,3
 383 -49 383 -49 383 -108 c 0,4,5
 383 -137 383 -137 361 -155 c 128,-1,6
 339 -173 339 -173 304 -173 c 0,7,8
 268 -173 268 -173 234 -155 c 0,9,10
 216 -146 216 -146 216 -133 c 0,11,12
 216 -125 216 -125 222 -119.5 c 128,-1,13
 228 -114 228 -114 236 -114 c 0,14,15
 241 -114 241 -114 251 -119 c 0,16,17
 282 -135 282 -135 302 -135 c 0,18,19
 321 -135 321 -135 333.5 -127 c 128,-1,20
 346 -119 346 -119 346 -106 c 0,21,22
 346 -81 346 -81 300 -81 c 2,23,-1
 280 -81 l 1,24,-1
 280 -12 l 1,25,26
 269 -9 269 -9 301 10 c 1,0,-1
520 424 m 1,27,28
 520 397 520 397 499 397 c 0,29,30
 480 397 480 397 479 421 c 0,31,32
 476 467 476 467 424.5 501 c 128,-1,33
 373 535 373 535 306 535 c 0,34,35
 223 535 223 535 164 471.5 c 128,-1,36
 105 408 105 408 105 319 c 2,37,-1
 105 248 l 2,38,39
 105 158 105 158 170 91.5 c 128,-1,40
 235 25 235 25 323 25 c 0,41,42
 375 25 375 25 416 46 c 128,-1,43
 457 67 457 67 497 115 c 0,44,45
 506 125 506 125 515 125 c 0,46,47
 535 125 535 125 535 106 c 0,48,49
 535 90 535 90 497 55 c 0,50,51
 421 -16 421 -16 323 -16 c 0,52,53
 221 -16 221 -16 142.5 62.5 c 128,-1,54
 64 141 64 141 64 242 c 2,55,-1
 64 325 l 2,56,57
 64 371 64 371 83.5 419.5 c 128,-1,58
 103 468 103 468 135 502 c 0,59,60
 204 576 204 576 306 576 c 0,61,62
 345 576 345 576 385.5 564.5 c 128,-1,63
 426 553 426 553 467 516.5 c 128,-1,64
 508 480 508 480 520 424 c 1,27,28
EndSplineSet
EndChar

StartChar: Egrave
Encoding: 200 200 135
Width: 558
GlyphClass: 2
Flags: W
LayerCount: 2
Fore
SplineSet
184 780 m 1,0,-1
 298 680 l 1,1,-1
 305 672 l 2,2,3
 310 667 310 667 310 661 c 0,4,5
 310 652 310 652 304 646 c 128,-1,6
 298 640 298 640 289 640 c 0,7,8
 281 640 281 640 271 649 c 2,9,-1
 157 749 l 2,10,11
 145 760 145 760 145 769 c 0,12,13
 145 777 145 777 151 783 c 128,-1,14
 157 789 157 789 165 789 c 0,15,16
 172 789 172 789 184 780 c 1,0,-1
468 522 m 1,17,-1
 134 522 l 1,18,-1
 134 313 l 1,19,-1
 320 313 l 1,20,-1
 320 272 l 1,21,-1
 134 272 l 1,22,-1
 134 41 l 1,23,-1
 489 41 l 1,24,-1
 489 0 l 1,25,-1
 93 0 l 1,26,-1
 93 563 l 1,27,-1
 468 563 l 1,28,-1
 468 522 l 1,17,-1
EndSplineSet
EndChar

StartChar: Igrave
Encoding: 204 204 139
Width: 275
GlyphClass: 2
Flags: W
LayerCount: 2
Fore
SplineSet
75 780 m 1,0,-1
 189 680 l 1,1,-1
 196 672 l 2,2,3
 201 667 201 667 201 661 c 0,4,5
 201 652 201 652 195 646 c 128,-1,6
 189 640 189 640 180 640 c 0,7,8
 172 640 172 640 162 649 c 2,9,-1
 48 749 l 2,10,11
 36 760 36 760 36 769 c 0,12,13
 36 777 36 777 42 783 c 128,-1,14
 48 789 48 789 56 789 c 0,15,16
 63 789 63 789 75 780 c 1,0,-1
124 563 m 1,17,-1
 165 563 l 1,18,-1
 165 0 l 1,19,-1
 124 0 l 1,20,-1
 124 563 l 1,17,-1
EndSplineSet
EndChar

StartChar: Eth
Encoding: 208 208 143
Width: 591
GlyphClass: 2
Flags: W
LayerCount: 2
Fore
SplineSet
30 272 m 2,0,1
 3 272 3 272 3 293 c 0,2,3
 3 313 3 313 30 313 c 2,4,-1
 310 313 l 2,5,6
 337 313 337 313 337 293 c 0,7,8
 337 272 337 272 310 272 c 2,9,-1
 30 272 l 2,0,1
294 0 m 2,10,-1
 107 0 l 1,11,-1
 107 563 l 1,12,-1
 293 563 l 1,13,-1
 297 563 l 1,14,15
 392 562 392 562 457.5 488.5 c 128,-1,16
 523 415 523 415 523 310 c 2,17,-1
 523 254 l 2,18,19
 523 147 523 147 457 73.5 c 128,-1,20
 391 0 391 0 294 0 c 2,10,-1
148 41 m 1,21,-1
 298 41 l 2,22,23
 370 41 370 41 426 103 c 128,-1,24
 482 165 482 165 482 245 c 2,25,-1
 482 318 l 2,26,27
 482 405 482 405 417 472 c 1,28,29
 367 522 367 522 291 522 c 2,30,-1
 148 522 l 1,31,-1
 148 41 l 1,21,-1
EndSplineSet
EndChar

StartChar: Ograve
Encoding: 210 210 145
Width: 622
GlyphClass: 2
Flags: W
LayerCount: 2
Fore
SplineSet
235 780 m 1,0,-1
 349 680 l 1,1,-1
 356 672 l 2,2,3
 361 667 361 667 361 661 c 0,4,5
 361 652 361 652 355 646 c 128,-1,6
 349 640 349 640 340 640 c 0,7,8
 332 640 332 640 322 649 c 2,9,-1
 208 749 l 2,10,11
 196 760 196 760 196 769 c 0,12,13
 196 777 196 777 202 783 c 128,-1,14
 208 789 208 789 216 789 c 0,15,16
 223 789 223 789 235 780 c 1,0,-1
311 576 m 0,17,18
 417 576 417 576 488.5 489.5 c 128,-1,19
 560 403 560 403 560 276 c 0,20,21
 560 155 560 155 487 69.5 c 128,-1,22
 414 -16 414 -16 311 -16 c 0,23,24
 207 -16 207 -16 134.5 70 c 128,-1,25
 62 156 62 156 62 280 c 128,-1,26
 62 404 62 404 134.5 490 c 128,-1,27
 207 576 207 576 311 576 c 0,17,18
311 535 m 0,28,29
 225 535 225 535 164 460 c 128,-1,30
 103 385 103 385 103 280 c 128,-1,31
 103 175 103 175 164 100 c 128,-1,32
 225 25 225 25 311 25 c 0,33,34
 396 25 396 25 457.5 99.5 c 128,-1,35
 519 174 519 174 519 277 c 0,36,37
 519 385 519 385 458.5 460 c 128,-1,38
 398 535 398 535 311 535 c 0,28,29
EndSplineSet
EndChar

StartChar: multiply
Encoding: 215 215 150
Width: 612
GlyphClass: 2
Flags: W
LayerCount: 2
Fore
SplineSet
306 311 m 1,0,-1
 448 453 l 2,1,2
 459 464 459 464 467 464 c 128,-1,3
 475 464 475 464 481.5 458 c 128,-1,4
 488 452 488 452 488 443 c 0,5,6
 488 435 488 435 477 424 c 2,7,-1
 335 282 l 1,8,-1
 477 139 l 2,9,10
 488 129 488 129 488 120 c 0,11,12
 488 112 488 112 482 106 c 128,-1,13
 476 100 476 100 467 100 c 128,-1,14
 458 100 458 100 448 110 c 2,15,-1
 306 253 l 1,16,-1
 164 110 l 2,17,18
 153 100 153 100 145 100 c 0,19,20
 136 100 136 100 130 106 c 128,-1,21
 124 112 124 112 124 120 c 0,22,23
 124 129 124 129 134 139 c 2,24,-1
 277 282 l 1,25,-1
 134 424 l 2,26,27
 124 435 124 435 124 443 c 0,28,29
 124 452 124 452 130 458 c 128,-1,30
 136 464 136 464 145 464 c 0,31,32
 152 464 152 464 163 453 c 2,33,-1
 306 311 l 1,0,-1
EndSplineSet
EndChar

StartChar: Oslash
Encoding: 216 216 151
Width: 610
GlyphClass: 2
Flags: W
LayerCount: 2
Fore
SplineSet
147 51 m 1,0,-1
 82 -31 l 2,1,2
 73 -43 73 -43 64 -43 c 0,3,4
 56 -43 56 -43 51 -37.5 c 128,-1,5
 46 -32 46 -32 46 -25 c 0,6,7
 46 -19 46 -19 54 -9 c 2,8,-1
 123 78 l 1,9,10
 57 166 57 166 57 280 c 0,11,12
 57 404 57 404 129.5 490 c 128,-1,13
 202 576 202 576 306 576 c 0,14,15
 392 576 392 576 464 510 c 1,16,-1
 530 593 l 2,17,18
 539 605 539 605 548 605 c 0,19,20
 556 605 556 605 561 599.5 c 128,-1,21
 566 594 566 594 566 587 c 0,22,23
 566 582 566 582 558 571 c 2,24,-1
 488 483 l 1,25,26
 555 400 555 400 555 280 c 0,27,28
 555 156 555 156 482.5 70 c 128,-1,29
 410 -16 410 -16 306 -16 c 0,30,31
 216 -16 216 -16 147 51 c 1,0,-1
150 112 m 1,32,-1
 438 476 l 1,33,34
 379 535 379 535 306 535 c 0,35,36
 220 535 220 535 159 460 c 128,-1,37
 98 385 98 385 98 280 c 0,38,39
 98 189 98 189 150 112 c 1,32,-1
462 449 m 1,40,-1
 173 84 l 1,41,42
 232 25 232 25 306 25 c 0,43,44
 392 25 392 25 453 100 c 128,-1,45
 514 175 514 175 514 280 c 0,46,47
 514 374 514 374 462 449 c 1,40,-1
EndSplineSet
EndChar

StartChar: Ugrave
Encoding: 217 217 152
Width: 570
GlyphClass: 2
Flags: W
LayerCount: 2
Fore
SplineSet
212 780 m 1,0,-1
 326 680 l 1,1,-1
 333 672 l 2,2,3
 338 667 338 667 338 661 c 0,4,5
 338 652 338 652 332 646 c 128,-1,6
 326 640 326 640 317 640 c 0,7,8
 310 640 310 640 299 649 c 2,9,-1
 185 749 l 2,10,11
 173 760 173 760 173 769 c 0,12,13
 173 777 173 777 179 783 c 128,-1,14
 185 789 185 789 193 789 c 0,15,16
 200 789 200 789 212 780 c 1,0,-1
484 563 m 1,17,-1
 484 185 l 2,18,19
 484 100 484 100 426.5 42 c 128,-1,20
 369 -16 369 -16 285 -16 c 0,21,22
 200 -16 200 -16 143 41.5 c 128,-1,23
 86 99 86 99 86 185 c 2,24,-1
 86 563 l 1,25,-1
 127 563 l 1,26,-1
 127 185 l 2,27,28
 127 117 127 117 172.5 71 c 128,-1,29
 218 25 218 25 285 25 c 0,30,31
 351 25 351 25 397 71.5 c 128,-1,32
 443 118 443 118 443 185 c 2,33,-1
 443 563 l 1,34,-1
 484 563 l 1,17,-1
EndSplineSet
EndChar

StartChar: Thorn
Encoding: 222 222 157
Width: 596
GlyphClass: 2
Flags: W
LayerCount: 2
Fore
SplineSet
215 131 m 1,0,-1
 215 41 l 1,1,-1
 353 41 l 2,2,3
 381 41 381 41 381 21 c 0,4,5
 381 0 381 0 353 0 c 2,6,-1
 120 0 l 2,7,8
 93 0 93 0 93 21 c 0,9,10
 93 41 93 41 120 41 c 2,11,-1
 174 41 l 1,12,-1
 174 522 l 1,13,-1
 120 522 l 2,14,15
 93 522 93 522 93 543 c 0,16,17
 93 563 93 563 120 563 c 2,18,-1
 353 563 l 2,19,20
 381 563 381 563 381 543 c 0,21,22
 381 522 381 522 353 522 c 2,23,-1
 215 522 l 1,24,-1
 215 463 l 1,25,-1
 360 463 l 2,26,27
 440 463 440 463 494.5 415.5 c 128,-1,28
 549 368 549 368 549 298 c 128,-1,29
 549 228 549 228 490 179.5 c 128,-1,30
 431 131 431 131 346 131 c 2,31,-1
 215 131 l 1,0,-1
215 172 m 1,32,-1
 349 172 l 2,33,34
 414 172 414 172 461 209 c 128,-1,35
 508 246 508 246 508 298 c 0,36,37
 508 349 508 349 465.5 385.5 c 128,-1,38
 423 422 423 422 364 422 c 2,39,-1
 215 422 l 1,40,-1
 215 172 l 1,32,-1
EndSplineSet
EndChar

StartChar: germandbls
Encoding: 223 223 158
Width: 554
GlyphClass: 2
Flags: W
LayerCount: 2
Fore
SplineSet
102 0 m 1,0,-1
 102 476 l 2,1,2
 102 529 102 529 143.5 566.5 c 128,-1,3
 185 604 185 604 244 604 c 0,4,5
 305 604 305 604 347.5 561.5 c 128,-1,6
 390 519 390 519 390 458 c 0,7,8
 390 398 390 398 332 359 c 1,9,10
 477 300 477 300 477 161 c 0,11,12
 477 85 477 85 438.5 34.5 c 128,-1,13
 400 -16 400 -16 343 -16 c 0,14,15
 298 -16 298 -16 267.5 17.5 c 128,-1,16
 237 51 237 51 237 101 c 0,17,18
 237 124 237 124 257 124 c 0,19,20
 276 124 276 124 278 100 c 0,21,22
 280 65 280 65 297.5 45 c 128,-1,23
 315 25 315 25 343 25 c 0,24,25
 382 25 382 25 409 64.5 c 128,-1,26
 436 104 436 104 436 162 c 0,27,28
 436 240 436 240 375 290 c 0,29,30
 321 334 321 334 257 334 c 2,31,-1
 252 334 l 2,32,33
 225 334 225 334 225 355 c 0,34,35
 225 375 225 375 248 375 c 2,36,-1
 253 375 l 2,37,38
 291 375 291 375 320 400.5 c 128,-1,39
 349 426 349 426 349 459 c 0,40,41
 349 502 349 502 318 532.5 c 128,-1,42
 287 563 287 563 244 563 c 0,43,44
 202 563 202 563 172.5 538 c 128,-1,45
 143 513 143 513 143 476 c 2,46,-1
 143 0 l 1,47,-1
 102 0 l 1,0,-1
EndSplineSet
EndChar

StartChar: ae
Encoding: 230 230 165
Width: 680
GlyphClass: 2
Flags: W
LayerCount: 2
Fore
SplineSet
370 61 m 1,0,-1
 370 27 l 2,1,2
 370 0 370 0 350 0 c 128,-1,3
 330 0 330 0 330 27 c 2,4,-1
 330 52 l 1,5,6
 274 -16 274 -16 210 -16 c 128,-1,7
 146 -16 146 -16 104 26 c 128,-1,8
 62 68 62 68 62 132 c 0,9,10
 62 181 62 181 107 217 c 1,11,12
 130 234 130 234 169 245.5 c 128,-1,13
 208 257 208 257 245 257 c 0,14,15
 286 257 286 257 330 245 c 1,16,-1
 330 305 l 2,17,18
 330 340 330 340 304.5 365 c 128,-1,19
 279 390 279 390 242 390 c 0,20,21
 197 390 197 390 158 365 c 0,22,23
 146 358 146 358 140 358 c 0,24,25
 133 358 133 358 127 364.5 c 128,-1,26
 121 371 121 371 121 378 c 0,27,28
 121 394 121 394 150 406 c 0,29,30
 206 431 206 431 249 431 c 0,31,32
 286 431 286 431 317 408 c 128,-1,33
 348 385 348 385 362 347 c 1,34,35
 380 386 380 386 412 408.5 c 128,-1,36
 444 431 444 431 480 431 c 0,37,38
 525 431 525 431 559 403 c 128,-1,39
 593 375 593 375 609 325 c 0,40,41
 626 274 626 274 627 199 c 1,42,-1
 369 199 l 1,43,44
 374 123 374 123 410 74 c 128,-1,45
 446 25 446 25 496 25 c 0,46,47
 518 25 518 25 538.5 37 c 128,-1,48
 559 49 559 49 595 82 c 1,49,50
 602 87 602 87 608 87 c 0,51,52
 616 87 616 87 622 81 c 128,-1,53
 628 75 628 75 628 67 c 0,54,55
 628 55 628 55 597 29 c 1,56,57
 537 -16 537 -16 494 -16 c 0,58,59
 420 -16 420 -16 370 61 c 1,0,-1
330 110 m 1,60,-1
 330 203 l 1,61,62
 286 216 286 216 251 216 c 0,63,64
 219 216 219 216 182 204 c 128,-1,65
 145 192 145 192 128 176 c 0,66,67
 107 155 107 155 107 121 c 0,68,69
 107 79 107 79 136.5 52 c 128,-1,70
 166 25 166 25 212 25 c 0,71,72
 263 25 263 25 330 110 c 1,60,-1
370 240 m 1,73,-1
 585 240 l 1,74,75
 577 305 577 305 562 335 c 0,76,77
 535 390 535 390 479 390 c 0,78,79
 390 390 390 390 370 240 c 1,73,-1
EndSplineSet
EndChar

StartChar: eth
Encoding: 240 240 175
Width: 578
GlyphClass: 2
Flags: W
LayerCount: 2
Fore
SplineSet
428 577 m 2,0,-1
 353 543 l 1,1,2
 428 479 428 479 472 391.5 c 128,-1,3
 516 304 516 304 516 221 c 0,4,5
 516 114 516 114 450 48 c 1,6,7
 383 -17 383 -17 288 -17 c 128,-1,8
 193 -17 193 -17 126.5 48 c 128,-1,9
 60 113 60 113 60 207 c 0,10,11
 60 299 60 299 126 364.5 c 128,-1,12
 192 430 192 430 286 430 c 0,13,14
 327 430 327 430 359 418 c 128,-1,15
 391 406 391 406 432 377 c 1,16,17
 379 476 379 476 311 525 c 1,18,-1
 220 483 l 2,19,20
 218 482 218 482 213 482 c 0,21,22
 205 482 205 482 199 489 c 128,-1,23
 193 496 193 496 193 505 c 0,24,25
 193 518 193 518 202 521 c 2,26,-1
 265 549 l 1,27,28
 213 571 213 571 167 580 c 0,29,30
 147 584 147 584 147 598 c 0,31,32
 147 608 147 608 153 614 c 128,-1,33
 159 620 159 620 168 620 c 0,34,35
 215 620 215 620 316 572 c 1,36,-1
 411 614 l 1,37,-1
 418 615 l 1,38,39
 426 615 426 615 431.5 609 c 128,-1,40
 437 603 437 603 437 594 c 0,41,42
 437 581 437 581 428 577 c 2,0,-1
289 390 m 0,43,44
 211 390 211 390 156.5 337 c 128,-1,45
 102 284 102 284 102 208 c 128,-1,46
 102 132 102 132 156.5 78.5 c 128,-1,47
 211 25 211 25 289 25 c 0,48,49
 366 25 366 25 421 78 c 128,-1,50
 476 131 476 131 476 205 c 0,51,52
 476 284 476 284 422 337 c 128,-1,53
 368 390 368 390 289 390 c 0,43,44
EndSplineSet
EndChar

StartChar: divide
Encoding: 247 247 182
Width: 618
GlyphClass: 2
Flags: W
LayerCount: 2
Fore
SplineSet
510 262 m 2,0,-1
 108 262 l 2,1,2
 81 262 81 262 81 282 c 128,-1,3
 81 302 81 302 108 302 c 2,4,-1
 510 302 l 2,5,6
 537 302 537 302 537 282 c 128,-1,7
 537 262 537 262 510 262 c 2,0,-1
309 124 m 0,8,9
 330 124 330 124 344.5 109.5 c 128,-1,10
 359 95 359 95 359 74 c 0,11,12
 359 54 359 54 344 39.5 c 128,-1,13
 329 25 329 25 309 25 c 128,-1,14
 289 25 289 25 274.5 39.5 c 128,-1,15
 260 54 260 54 260 75 c 0,16,17
 260 95 260 95 274.5 109.5 c 128,-1,18
 289 124 289 124 309 124 c 0,8,9
309 540 m 0,19,20
 330 540 330 540 344.5 525.5 c 128,-1,21
 359 511 359 511 359 490 c 0,22,23
 359 470 359 470 344 455.5 c 128,-1,24
 329 441 329 441 309 441 c 128,-1,25
 289 441 289 441 274.5 455.5 c 128,-1,26
 260 470 260 470 260 491 c 0,27,28
 260 511 260 511 274.5 525.5 c 128,-1,29
 289 540 289 540 309 540 c 0,19,20
EndSplineSet
EndChar

StartChar: oslash
Encoding: 248 248 183
Width: 552
GlyphClass: 2
Flags: W
LayerCount: 2
Fore
SplineSet
131 35 m 1,0,-1
 65 -33 l 2,1,2
 55 -43 55 -43 48 -43 c 128,-1,3
 41 -43 41 -43 35.5 -37.5 c 128,-1,4
 30 -32 30 -32 30 -25 c 128,-1,5
 30 -18 30 -18 40 -8 c 2,6,-1
 106 59 l 1,7,8
 49 125 49 125 49 208 c 0,9,10
 49 301 49 301 115.5 366 c 128,-1,11
 182 431 182 431 277 431 c 0,12,13
 359 431 359 431 421 382 c 1,14,-1
 485 448 l 2,15,16
 496 458 496 458 503 458 c 128,-1,17
 510 458 510 458 515 452.5 c 128,-1,18
 520 447 520 447 520 440 c 128,-1,19
 520 433 520 433 510 423 c 2,20,-1
 446 358 l 1,21,22
 505 293 505 293 505 207 c 0,23,24
 505 114 505 114 438.5 49 c 128,-1,25
 372 -16 372 -16 277 -16 c 0,26,27
 197 -16 197 -16 131 35 c 1,0,-1
418 329 m 1,28,-1
 160 65 l 1,29,30
 211 25 211 25 277 25 c 0,31,32
 355 25 355 25 409.5 78 c 128,-1,33
 464 131 464 131 464 207 c 0,34,35
 464 275 464 275 418 329 c 1,28,-1
135 89 m 1,36,-1
 392 352 l 1,37,38
 342 390 342 390 277 390 c 0,39,40
 199 390 199 390 144.5 337 c 128,-1,41
 90 284 90 284 90 208 c 0,42,43
 90 140 90 140 135 89 c 1,36,-1
EndSplineSet
EndChar

StartChar: thorn
Encoding: 254 254 189
Width: 668
GlyphClass: 2
Flags: W
LayerCount: 2
Fore
SplineSet
210 590 m 1,0,-1
 210 335 l 1,1,2
 250 387 250 387 291 409 c 128,-1,3
 332 431 332 431 389 431 c 0,4,5
 482 431 482 431 544.5 370.5 c 128,-1,6
 607 310 607 310 607 221 c 128,-1,7
 607 132 607 132 544 71 c 128,-1,8
 481 10 481 10 389 10 c 0,9,10
 277 10 277 10 210 106 c 1,11,-1
 210 -145 l 1,12,-1
 308 -145 l 2,13,14
 335 -145 335 -145 335 -165 c 0,15,16
 335 -186 335 -186 308 -186 c 2,17,-1
 115 -186 l 2,18,19
 88 -186 88 -186 88 -165 c 0,20,21
 88 -145 88 -145 115 -145 c 2,22,-1
 169 -145 l 1,23,-1
 169 549 l 1,24,-1
 115 549 l 2,25,26
 88 549 88 549 88 570 c 0,27,28
 88 590 88 590 115 590 c 2,29,-1
 210 590 l 1,0,-1
388 390 m 0,30,31
 314 390 314 390 262 340.5 c 128,-1,32
 210 291 210 291 210 221 c 0,33,34
 210 150 210 150 262 100.5 c 128,-1,35
 314 51 314 51 388 51 c 128,-1,36
 462 51 462 51 514 100 c 128,-1,37
 566 149 566 149 566 219 c 0,38,39
 566 292 566 292 515 341 c 128,-1,40
 464 390 464 390 388 390 c 0,30,31
EndSplineSet
EndChar

StartChar: Abreve
Encoding: 258 258 193
Width: 538
GlyphClass: 2
Flags: W
LayerCount: 2
Fore
SplineSet
147 770 m 0,0,1
 164 770 164 770 167 748 c 1,2,3
 169 719 169 719 199 700 c 128,-1,4
 229 681 229 681 271 681 c 128,-1,5
 313 681 313 681 342.5 700 c 128,-1,6
 372 719 372 719 375 748 c 0,7,8
 378 770 378 770 396 770 c 0,9,10
 404 770 404 770 410 763.5 c 128,-1,11
 416 757 416 757 416 747 c 0,12,13
 416 702 416 702 374 671 c 128,-1,14
 332 640 332 640 271 640 c 128,-1,15
 210 640 210 640 168 671 c 128,-1,16
 126 702 126 702 126 747 c 0,17,18
 126 770 126 770 147 770 c 0,0,1
23 0 m 1,19,-1
 233 563 l 1,20,-1
 301 563 l 1,21,-1
 513 0 l 1,22,-1
 470 0 l 1,23,-1
 399 188 l 1,24,-1
 133 188 l 1,25,-1
 64 0 l 1,26,-1
 23 0 l 1,19,-1
384 229 m 1,27,-1
 272 522 l 1,28,-1
 257 522 l 1,29,-1
 149 229 l 1,30,-1
 384 229 l 1,27,-1
EndSplineSet
EndChar

StartChar: Aogonek
Encoding: 260 260 195
Width: 539
GlyphClass: 2
Flags: W
LayerCount: 2
Fore
SplineSet
495 41 m 1,0,-1
 535 41 l 2,1,2
 562 41 562 41 562 21 c 0,3,4
 562 12 562 12 558 8 c 128,-1,5
 554 4 554 4 538 -3 c 0,6,7
 502 -19 502 -19 479.5 -42.5 c 128,-1,8
 457 -66 457 -66 457 -89 c 0,9,10
 457 -123 457 -123 500 -123 c 0,11,12
 522 -123 522 -123 549 -107 c 0,13,14
 553 -104 553 -104 557 -104 c 0,15,16
 562 -104 562 -104 566.5 -108.5 c 128,-1,17
 571 -113 571 -113 571 -119 c 0,18,19
 571 -132 571 -132 546.5 -143.5 c 128,-1,20
 522 -155 522 -155 494 -155 c 0,21,22
 458 -155 458 -155 438 -139 c 128,-1,23
 418 -123 418 -123 418 -94 c 0,24,25
 418 -63 418 -63 435.5 -41.5 c 128,-1,26
 453 -20 453 -20 495 0 c 1,27,-1
 495 41 l 1,0,-1
23 0 m 1,28,-1
 233 563 l 1,29,-1
 301 563 l 1,30,-1
 513 0 l 1,31,-1
 470 0 l 1,32,-1
 399 188 l 1,33,-1
 133 188 l 1,34,-1
 64 0 l 1,35,-1
 23 0 l 1,28,-1
384 229 m 1,36,-1
 272 522 l 1,37,-1
 257 522 l 1,38,-1
 149 229 l 1,39,-1
 384 229 l 1,36,-1
EndSplineSet
EndChar

StartChar: aogonek
Encoding: 261 261 196
Width: 553
GlyphClass: 2
Flags: W
LayerCount: 2
Fore
SplineSet
410 41 m 1,0,-1
 505 41 l 2,1,2
 532 41 532 41 532 21 c 0,3,4
 532 8 532 8 520 2 c 0,5,6
 433 -44 433 -44 433 -89 c 0,7,8
 433 -123 433 -123 476 -123 c 0,9,10
 498 -123 498 -123 525 -107 c 0,11,12
 529 -104 529 -104 533 -104 c 0,13,14
 538 -104 538 -104 542.5 -108.5 c 128,-1,15
 547 -113 547 -113 547 -119 c 0,16,17
 547 -132 547 -132 522.5 -143.5 c 128,-1,18
 498 -155 498 -155 470 -155 c 0,19,20
 434 -155 434 -155 414 -139 c 128,-1,21
 394 -123 394 -123 394 -94 c 0,22,23
 394 -63 394 -63 411.5 -41.5 c 128,-1,24
 429 -20 429 -20 471 0 c 1,25,-1
 410 0 l 1,26,-1
 410 41 l 1,0,-1
410 0 m 1,27,-1
 410 67 l 1,28,29
 321 -16 321 -16 219 -16 c 0,30,31
 149 -16 149 -16 106 19.5 c 128,-1,32
 63 55 63 55 63 112 c 0,33,34
 63 177 63 177 121.5 217.5 c 128,-1,35
 180 258 180 258 274 258 c 0,36,37
 333 258 333 258 410 237 c 1,38,-1
 410 308 l 2,39,40
 410 345 410 345 376 367.5 c 128,-1,41
 342 390 342 390 287 390 c 0,42,43
 243 390 243 390 145 360 c 0,44,45
 137 358 137 358 135 358 c 0,46,47
 127 358 127 358 121.5 364 c 128,-1,48
 116 370 116 370 116 378 c 0,49,50
 116 393 116 393 133 399 c 0,51,52
 226 431 226 431 290 431 c 0,53,54
 360 431 360 431 405.5 396 c 128,-1,55
 451 361 451 361 451 308 c 2,56,-1
 451 0 l 1,57,-1
 410 0 l 1,27,-1
410 112 m 1,58,-1
 410 202 l 1,59,60
 350 217 350 217 282 217 c 0,61,62
 203 217 203 217 153.5 187.5 c 128,-1,63
 104 158 104 158 104 111 c 0,64,65
 104 72 104 72 135 48.5 c 128,-1,66
 166 25 166 25 218 25 c 0,67,68
 271 25 271 25 315.5 45 c 128,-1,69
 360 65 360 65 410 112 c 1,58,-1
EndSplineSet
EndChar

StartChar: cacute
Encoding: 263 263 198
Width: 550
GlyphClass: 2
Flags: W
LayerCount: 2
Fore
SplineSet
401 599 m 2,0,-1
 287 499 l 1,1,2
 275 490 275 490 268 490 c 0,3,4
 260 490 260 490 254 496 c 128,-1,5
 248 502 248 502 248 511 c 0,6,7
 248 519 248 519 260 530 c 2,8,-1
 374 630 l 1,9,10
 386 639 386 639 393 639 c 0,11,12
 401 639 401 639 407 633 c 128,-1,13
 413 627 413 627 413 618 c 0,14,15
 413 610 413 610 401 599 c 2,0,-1
479 298 m 1,16,17
 479 271 479 271 459 271 c 0,18,19
 441 271 441 271 438 295 c 1,20,21
 435 335 435 335 388.5 362.5 c 128,-1,22
 342 390 342 390 279 390 c 0,23,24
 196 390 196 390 144.5 338.5 c 128,-1,25
 93 287 93 287 93 205 c 0,26,27
 93 126 93 126 145 75.5 c 128,-1,28
 197 25 197 25 279 25 c 0,29,30
 388 25 388 25 466 97 c 0,31,32
 476 107 476 107 484 107 c 128,-1,33
 492 107 492 107 497.5 101.5 c 128,-1,34
 503 96 503 96 503 88 c 0,35,36
 503 68 503 68 460 39 c 0,37,38
 380 -16 380 -16 277 -16 c 0,39,40
 179 -16 179 -16 115.5 46 c 128,-1,41
 52 108 52 108 52 204 c 0,42,43
 52 303 52 303 117 367 c 128,-1,44
 182 431 182 431 282 431 c 0,45,46
 308 431 308 431 336 425 c 128,-1,47
 364 419 364 419 395 405.5 c 128,-1,48
 426 392 426 392 449 364 c 128,-1,49
 472 336 472 336 479 298 c 1,16,17
EndSplineSet
EndChar

StartChar: Ccaron
Encoding: 268 268 203
Width: 576
GlyphClass: 2
Flags: W
LayerCount: 2
Fore
SplineSet
301 640 m 1,0,-1
 169 749 l 1,1,2
 156 758 156 758 156 769 c 0,3,4
 156 777 156 777 162 783 c 128,-1,5
 168 789 168 789 176 789 c 0,6,7
 183 789 183 789 194 781 c 2,8,-1
 301 693 l 1,9,-1
 408 781 l 2,10,11
 419 789 419 789 426 789 c 0,12,13
 434 789 434 789 440 782.5 c 128,-1,14
 446 776 446 776 446 769 c 0,15,16
 446 759 446 759 433 748 c 2,17,-1
 301 640 l 1,0,-1
520 424 m 1,18,19
 520 397 520 397 499 397 c 0,20,21
 480 397 480 397 479 421 c 0,22,23
 476 467 476 467 424.5 501 c 128,-1,24
 373 535 373 535 306 535 c 0,25,26
 223 535 223 535 164 471.5 c 128,-1,27
 105 408 105 408 105 319 c 2,28,-1
 105 248 l 2,29,30
 105 158 105 158 170 91.5 c 128,-1,31
 235 25 235 25 323 25 c 0,32,33
 375 25 375 25 416 46 c 128,-1,34
 457 67 457 67 497 115 c 0,35,36
 506 125 506 125 515 125 c 0,37,38
 535 125 535 125 535 106 c 0,39,40
 535 90 535 90 497 55 c 0,41,42
 421 -16 421 -16 323 -16 c 0,43,44
 221 -16 221 -16 142.5 62.5 c 128,-1,45
 64 141 64 141 64 242 c 2,46,-1
 64 325 l 2,47,48
 64 371 64 371 83.5 419.5 c 128,-1,49
 103 468 103 468 135 502 c 0,50,51
 204 576 204 576 306 576 c 0,52,53
 345 576 345 576 385.5 564.5 c 128,-1,54
 426 553 426 553 467 516.5 c 128,-1,55
 508 480 508 480 520 424 c 1,18,19
EndSplineSet
EndChar

StartChar: ccaron
Encoding: 269 269 204
Width: 550
GlyphClass: 2
Flags: W
LayerCount: 2
Fore
SplineSet
298 490 m 1,0,-1
 166 599 l 1,1,2
 153 608 153 608 153 619 c 0,3,4
 153 627 153 627 159 633 c 128,-1,5
 165 639 165 639 173 639 c 0,6,7
 180 639 180 639 191 631 c 2,8,-1
 298 543 l 1,9,-1
 405 631 l 2,10,11
 416 639 416 639 423 639 c 128,-1,12
 430 639 430 639 436.5 632.5 c 128,-1,13
 443 626 443 626 443 619 c 0,14,15
 443 609 443 609 430 598 c 2,16,-1
 298 490 l 1,0,-1
479 298 m 1,17,18
 479 271 479 271 459 271 c 0,19,20
 441 271 441 271 438 295 c 1,21,22
 435 335 435 335 388.5 362.5 c 128,-1,23
 342 390 342 390 279 390 c 0,24,25
 196 390 196 390 144.5 338.5 c 128,-1,26
 93 287 93 287 93 205 c 0,27,28
 93 126 93 126 145 75.5 c 128,-1,29
 197 25 197 25 279 25 c 0,30,31
 388 25 388 25 466 97 c 0,32,33
 476 107 476 107 484 107 c 128,-1,34
 492 107 492 107 497.5 101.5 c 128,-1,35
 503 96 503 96 503 88 c 0,36,37
 503 68 503 68 460 39 c 0,38,39
 380 -16 380 -16 277 -16 c 0,40,41
 179 -16 179 -16 115.5 46 c 128,-1,42
 52 108 52 108 52 204 c 0,43,44
 52 303 52 303 117 367 c 128,-1,45
 182 431 182 431 282 431 c 0,46,47
 308 431 308 431 336 425 c 128,-1,48
 364 419 364 419 395 405.5 c 128,-1,49
 426 392 426 392 449 364 c 128,-1,50
 472 336 472 336 479 298 c 1,17,18
EndSplineSet
EndChar

StartChar: Dcaron
Encoding: 270 270 205
Width: 573
GlyphClass: 2
Flags: W
LayerCount: 2
Fore
SplineSet
289 640 m 1,0,-1
 157 749 l 1,1,2
 144 758 144 758 144 769 c 0,3,4
 144 777 144 777 150 783 c 128,-1,5
 156 789 156 789 164 789 c 0,6,7
 171 789 171 789 182 781 c 2,8,-1
 289 693 l 1,9,-1
 396 781 l 2,10,11
 407 789 407 789 414 789 c 128,-1,12
 421 789 421 789 427.5 782.5 c 128,-1,13
 434 776 434 776 434 769 c 0,14,15
 434 759 434 759 421 748 c 2,16,-1
 289 640 l 1,0,-1
280 0 m 2,17,-1
 93 0 l 1,18,-1
 93 563 l 1,19,-1
 279 563 l 1,20,-1
 283 563 l 1,21,22
 378 562 378 562 443.5 488.5 c 128,-1,23
 509 415 509 415 509 310 c 2,24,-1
 509 254 l 2,25,26
 509 147 509 147 443 73.5 c 128,-1,27
 377 0 377 0 280 0 c 2,17,-1
134 41 m 1,28,-1
 284 41 l 2,29,30
 356 41 356 41 412 103 c 128,-1,31
 468 165 468 165 468 245 c 2,32,-1
 468 318 l 2,33,34
 468 405 468 405 403 472 c 1,35,36
 353 522 353 522 277 522 c 2,37,-1
 134 522 l 1,38,-1
 134 41 l 1,28,-1
EndSplineSet
EndChar

StartChar: dcaron
Encoding: 271 271 206
Width: 620
GlyphClass: 2
Flags: W
LayerCount: 2
Fore
SplineSet
667 579 m 1,0,-1
 583 453 l 2,1,2
 573 439 573 439 562 439 c 0,3,4
 554 439 554 439 548 445 c 128,-1,5
 542 451 542 451 542 460 c 0,6,7
 542 466 542 466 549 476 c 2,8,-1
 633 602 l 2,9,10
 643 616 643 616 654 616 c 0,11,12
 663 616 663 616 669 610 c 128,-1,13
 675 604 675 604 675 595 c 0,14,15
 675 591 675 591 670 583 c 2,16,-1
 667 579 l 1,0,-1
486 0 m 1,17,-1
 486 89 l 1,18,19
 416 -16 416 -16 304 -16 c 0,20,21
 215 -16 215 -16 151.5 50 c 128,-1,22
 88 116 88 116 88 208 c 128,-1,23
 88 300 88 300 151.5 365.5 c 128,-1,24
 215 431 215 431 304 431 c 0,25,26
 414 431 414 431 486 327 c 1,27,-1
 486 604 l 1,28,-1
 527 604 l 1,29,-1
 527 0 l 1,30,-1
 486 0 l 1,17,-1
307 390 m 0,31,32
 233 390 233 390 181 337 c 128,-1,33
 129 284 129 284 129 208 c 0,34,35
 129 131 129 131 181 78 c 128,-1,36
 233 25 233 25 308 25 c 0,37,38
 382 25 382 25 434 78 c 128,-1,39
 486 131 486 131 486 206 c 0,40,41
 486 284 486 284 434.5 337 c 128,-1,42
 383 390 383 390 307 390 c 0,31,32
EndSplineSet
EndChar

StartChar: Dcroat
Encoding: 272 272 207
Width: 591
GlyphClass: 2
Flags: W
LayerCount: 2
Fore
SplineSet
30 272 m 2,0,1
 3 272 3 272 3 293 c 0,2,3
 3 313 3 313 30 313 c 2,4,-1
 310 313 l 2,5,6
 337 313 337 313 337 293 c 0,7,8
 337 272 337 272 310 272 c 2,9,-1
 30 272 l 2,0,1
294 0 m 2,10,-1
 107 0 l 1,11,-1
 107 563 l 1,12,-1
 293 563 l 1,13,-1
 297 563 l 1,14,15
 392 562 392 562 457.5 488.5 c 128,-1,16
 523 415 523 415 523 310 c 2,17,-1
 523 254 l 2,18,19
 523 147 523 147 457 73.5 c 128,-1,20
 391 0 391 0 294 0 c 2,10,-1
148 41 m 1,21,-1
 298 41 l 2,22,23
 370 41 370 41 426 103 c 128,-1,24
 482 165 482 165 482 245 c 2,25,-1
 482 318 l 2,26,27
 482 405 482 405 417 472 c 1,28,29
 367 522 367 522 291 522 c 2,30,-1
 148 522 l 1,31,-1
 148 41 l 1,21,-1
EndSplineSet
EndChar

StartChar: dcroat
Encoding: 273 273 208
Width: 610
GlyphClass: 2
Flags: W
LayerCount: 2
Fore
SplineSet
555 479 m 2,0,-1
 321 479 l 2,1,2
 294 479 294 479 294 500 c 0,3,4
 294 520 294 520 321 520 c 2,5,-1
 555 520 l 2,6,7
 581 520 581 520 581 500 c 0,8,9
 581 479 581 479 555 479 c 2,0,-1
459 0 m 1,10,-1
 459 89 l 1,11,12
 389 -16 389 -16 277 -16 c 0,13,14
 188 -16 188 -16 124.5 50 c 128,-1,15
 61 116 61 116 61 208 c 128,-1,16
 61 300 61 300 124.5 365.5 c 128,-1,17
 188 431 188 431 277 431 c 0,18,19
 387 431 387 431 459 327 c 1,20,-1
 459 604 l 1,21,-1
 500 604 l 1,22,-1
 500 0 l 1,23,-1
 459 0 l 1,10,-1
280 390 m 0,24,25
 206 390 206 390 154 337 c 128,-1,26
 102 284 102 284 102 208 c 0,27,28
 102 131 102 131 154 78 c 128,-1,29
 206 25 206 25 281 25 c 0,30,31
 355 25 355 25 407 78 c 128,-1,32
 459 131 459 131 459 206 c 0,33,34
 459 284 459 284 407.5 337 c 128,-1,35
 356 390 356 390 280 390 c 0,24,25
EndSplineSet
EndChar

StartChar: ebreve
Encoding: 277 277 212
Width: 575
GlyphClass: 2
Flags: W
LayerCount: 2
Fore
SplineSet
167 613 m 0,0,1
 181 613 181 613 187 593 c 1,2,3
 190 564 190 564 219.5 544.5 c 128,-1,4
 249 525 249 525 291 525 c 0,5,6
 332 525 332 525 362 545 c 128,-1,7
 392 565 392 565 395 593 c 0,8,9
 398 613 398 613 415 613 c 0,10,11
 435 613 435 613 435 591 c 0,12,13
 435 546 435 546 393.5 515 c 128,-1,14
 352 484 352 484 291 484 c 0,15,16
 231 484 231 484 189 515 c 128,-1,17
 147 546 147 546 147 591 c 0,18,19
 147 613 147 613 167 613 c 0,0,1
517 200 m 1,20,-1
 101 200 l 1,21,22
 111 120 111 120 166.5 72.5 c 128,-1,23
 222 25 222 25 305 25 c 0,24,25
 352 25 352 25 400.5 40 c 128,-1,26
 449 55 449 55 479 79 c 0,27,28
 489 86 489 86 495 86 c 0,29,30
 503 86 503 86 509 80 c 128,-1,31
 515 74 515 74 515 66 c 0,32,33
 515 40 515 40 443.5 12 c 128,-1,34
 372 -16 372 -16 303 -16 c 0,35,36
 201 -16 201 -16 131 52 c 128,-1,37
 61 120 61 120 61 217 c 0,38,39
 61 308 61 308 126.5 369.5 c 128,-1,40
 192 431 192 431 289 431 c 0,41,42
 361 431 361 431 417.5 395.5 c 128,-1,43
 474 360 474 360 501 297 c 0,44,45
 517 259 517 259 517 200 c 1,20,-1
101 241 m 1,46,-1
 477 241 l 1,47,48
 463 309 463 309 412.5 349.5 c 128,-1,49
 362 390 362 390 289 390 c 128,-1,50
 216 390 216 390 166 350 c 128,-1,51
 116 310 116 310 101 241 c 1,46,-1
EndSplineSet
EndChar

StartChar: Edotaccent
Encoding: 278 278 213
Width: 558
GlyphClass: 2
Flags: W
LayerCount: 2
Fore
SplineSet
269 761 m 0,0,1
 290 761 290 761 304.5 746 c 128,-1,2
 319 731 319 731 319 710 c 0,3,4
 319 690 319 690 304 675.5 c 128,-1,5
 289 661 289 661 269 661 c 128,-1,6
 249 661 249 661 234 676 c 128,-1,7
 219 691 219 691 219 711 c 128,-1,8
 219 731 219 731 234 746 c 128,-1,9
 249 761 249 761 269 761 c 0,0,1
468 522 m 1,10,-1
 134 522 l 1,11,-1
 134 313 l 1,12,-1
 320 313 l 1,13,-1
 320 272 l 1,14,-1
 134 272 l 1,15,-1
 134 41 l 1,16,-1
 489 41 l 1,17,-1
 489 0 l 1,18,-1
 93 0 l 1,19,-1
 93 563 l 1,20,-1
 468 563 l 1,21,-1
 468 522 l 1,10,-1
EndSplineSet
EndChar

StartChar: edotaccent
Encoding: 279 279 214
Width: 576
GlyphClass: 2
Flags: W
LayerCount: 2
Fore
SplineSet
298 611 m 0,0,1
 319 611 319 611 333.5 596 c 128,-1,2
 348 581 348 581 348 560 c 0,3,4
 348 540 348 540 333 525.5 c 128,-1,5
 318 511 318 511 298 511 c 128,-1,6
 278 511 278 511 263 526 c 128,-1,7
 248 541 248 541 248 561 c 128,-1,8
 248 581 248 581 263 596 c 128,-1,9
 278 611 278 611 298 611 c 0,0,1
518 199 m 1,10,-1
 102 199 l 1,11,12
 113 120 113 120 168 72.5 c 128,-1,13
 223 25 223 25 304 25 c 0,14,15
 351 25 351 25 400 40 c 128,-1,16
 449 55 449 55 479 79 c 0,17,18
 489 86 489 86 495 86 c 0,19,20
 503 86 503 86 508.5 80 c 128,-1,21
 514 74 514 74 514 66 c 0,22,23
 514 40 514 40 442.5 12 c 128,-1,24
 371 -16 371 -16 303 -16 c 0,25,26
 202 -16 202 -16 131.5 52 c 128,-1,27
 61 120 61 120 61 217 c 0,28,29
 61 308 61 308 127 369.5 c 128,-1,30
 193 431 193 431 289 431 c 0,31,32
 361 431 361 431 417.5 395 c 128,-1,33
 474 359 474 359 501 297 c 0,34,35
 518 257 518 257 518 199 c 1,10,-1
102 240 m 1,36,-1
 476 240 l 1,37,38
 464 308 464 308 413 349 c 128,-1,39
 362 390 362 390 289 390 c 128,-1,40
 216 390 216 390 166 349.5 c 128,-1,41
 116 309 116 309 102 240 c 1,36,-1
EndSplineSet
EndChar

StartChar: Eogonek
Encoding: 280 280 215
Width: 551
GlyphClass: 2
Flags: W
LayerCount: 2
Fore
SplineSet
489 34 m 1,0,-1
 489 0 l 1,1,-1
 462 -15 l 2,2,3
 403 -48 403 -48 403 -89 c 0,4,5
 403 -123 403 -123 447 -123 c 0,6,7
 468 -123 468 -123 495 -107 c 0,8,9
 501 -104 501 -104 504 -104 c 0,10,11
 509 -104 509 -104 513.5 -108.5 c 128,-1,12
 518 -113 518 -113 518 -119 c 0,13,14
 518 -132 518 -132 493.5 -143.5 c 128,-1,15
 469 -155 469 -155 441 -155 c 0,16,17
 405 -155 405 -155 384.5 -139 c 128,-1,18
 364 -123 364 -123 364 -94 c 0,19,20
 364 -63 364 -63 381.5 -41.5 c 128,-1,21
 399 -20 399 -20 442 0 c 1,22,-1
 489 34 l 1,0,-1
468 522 m 1,23,-1
 134 522 l 1,24,-1
 134 313 l 1,25,-1
 320 313 l 1,26,-1
 320 272 l 1,27,-1
 134 272 l 1,28,-1
 134 41 l 1,29,-1
 489 41 l 1,30,-1
 489 0 l 1,31,-1
 93 0 l 1,32,-1
 93 563 l 1,33,-1
 468 563 l 1,34,-1
 468 522 l 1,23,-1
EndSplineSet
EndChar

StartChar: eogonek
Encoding: 281 281 216
Width: 570
GlyphClass: 2
Flags: W
LayerCount: 2
Fore
SplineSet
359 -11 m 1,0,1
 351 -17 351 -17 415 6 c 1,2,-1
 466 22 l 1,3,4
 393 -18 393 -18 368.5 -40.5 c 128,-1,5
 344 -63 344 -63 344 -89 c 0,6,7
 344 -123 344 -123 387 -123 c 0,8,9
 409 -123 409 -123 436 -107 c 0,10,11
 441 -104 441 -104 444 -104 c 0,12,13
 449 -104 449 -104 453.5 -108.5 c 128,-1,14
 458 -113 458 -113 458 -119 c 0,15,16
 458 -132 458 -132 433.5 -143.5 c 128,-1,17
 409 -155 409 -155 381 -155 c 0,18,19
 345 -155 345 -155 325 -139 c 128,-1,20
 305 -123 305 -123 305 -94 c 0,21,22
 305 -44 305 -44 359 -11 c 1,0,1
518 199 m 1,23,-1
 102 199 l 1,24,25
 113 120 113 120 168 72.5 c 128,-1,26
 223 25 223 25 304 25 c 0,27,28
 351 25 351 25 400 40 c 128,-1,29
 449 55 449 55 479 79 c 0,30,31
 489 86 489 86 495 86 c 0,32,33
 503 86 503 86 508.5 80 c 128,-1,34
 514 74 514 74 514 66 c 0,35,36
 514 40 514 40 442.5 12 c 128,-1,37
 371 -16 371 -16 303 -16 c 0,38,39
 202 -16 202 -16 131.5 52 c 128,-1,40
 61 120 61 120 61 217 c 0,41,42
 61 308 61 308 127 369.5 c 128,-1,43
 193 431 193 431 289 431 c 0,44,45
 361 431 361 431 417.5 395 c 128,-1,46
 474 359 474 359 501 297 c 0,47,48
 518 257 518 257 518 199 c 1,23,-1
102 240 m 1,49,-1
 476 240 l 1,50,51
 464 308 464 308 413 349 c 128,-1,52
 362 390 362 390 289 390 c 128,-1,53
 216 390 216 390 166 349.5 c 128,-1,54
 116 309 116 309 102 240 c 1,49,-1
EndSplineSet
EndChar

StartChar: Ecaron
Encoding: 282 282 217
Width: 558
GlyphClass: 2
Flags: W
LayerCount: 2
Fore
SplineSet
269 640 m 1,0,-1
 137 749 l 1,1,2
 124 758 124 758 124 769 c 0,3,4
 124 777 124 777 130 783 c 128,-1,5
 136 789 136 789 144 789 c 0,6,7
 151 789 151 789 162 781 c 2,8,-1
 269 693 l 1,9,-1
 376 781 l 2,10,11
 387 789 387 789 394 789 c 128,-1,12
 401 789 401 789 407.5 782.5 c 128,-1,13
 414 776 414 776 414 769 c 0,14,15
 414 759 414 759 401 748 c 2,16,-1
 269 640 l 1,0,-1
468 522 m 1,17,-1
 134 522 l 1,18,-1
 134 313 l 1,19,-1
 320 313 l 1,20,-1
 320 272 l 1,21,-1
 134 272 l 1,22,-1
 134 41 l 1,23,-1
 489 41 l 1,24,-1
 489 0 l 1,25,-1
 93 0 l 1,26,-1
 93 563 l 1,27,-1
 468 563 l 1,28,-1
 468 522 l 1,17,-1
EndSplineSet
EndChar

StartChar: ecaron
Encoding: 283 283 218
Width: 576
GlyphClass: 2
Flags: W
LayerCount: 2
Fore
SplineSet
298 490 m 1,0,-1
 166 599 l 1,1,2
 153 608 153 608 153 619 c 0,3,4
 153 627 153 627 159 633 c 128,-1,5
 165 639 165 639 173 639 c 0,6,7
 180 639 180 639 191 631 c 2,8,-1
 298 543 l 1,9,-1
 405 631 l 2,10,11
 416 639 416 639 423 639 c 0,12,13
 431 639 431 639 437 632.5 c 128,-1,14
 443 626 443 626 443 619 c 0,15,16
 443 609 443 609 430 598 c 2,17,-1
 298 490 l 1,0,-1
518 199 m 1,18,-1
 102 199 l 1,19,20
 113 120 113 120 168 72.5 c 128,-1,21
 223 25 223 25 304 25 c 0,22,23
 351 25 351 25 400 40 c 128,-1,24
 449 55 449 55 479 79 c 0,25,26
 489 86 489 86 495 86 c 0,27,28
 503 86 503 86 508.5 80 c 128,-1,29
 514 74 514 74 514 66 c 0,30,31
 514 40 514 40 442.5 12 c 128,-1,32
 371 -16 371 -16 303 -16 c 0,33,34
 202 -16 202 -16 131.5 52 c 128,-1,35
 61 120 61 120 61 217 c 0,36,37
 61 308 61 308 127 369.5 c 128,-1,38
 193 431 193 431 289 431 c 0,39,40
 361 431 361 431 417.5 395 c 128,-1,41
 474 359 474 359 501 297 c 0,42,43
 518 257 518 257 518 199 c 1,18,-1
102 240 m 1,44,-1
 476 240 l 1,45,46
 464 308 464 308 413 349 c 128,-1,47
 362 390 362 390 289 390 c 128,-1,48
 216 390 216 390 166 349.5 c 128,-1,49
 116 309 116 309 102 240 c 1,44,-1
EndSplineSet
EndChar

StartChar: gcircumflex
Encoding: 285 285 220
Width: 540
GlyphClass: 2
Flags: W
LayerCount: 2
Fore
SplineSet
313 634 m 1,0,-1
 445 525 l 2,1,2
 457 514 457 514 457 503 c 0,3,4
 457 484 457 484 437 484 c 0,5,6
 430 484 430 484 419 492 c 2,7,-1
 313 580 l 1,8,-1
 205 492 l 1,9,10
 197 484 197 484 187 484 c 0,11,12
 179 484 179 484 174 489.5 c 128,-1,13
 169 495 169 495 169 503 c 0,14,15
 169 516 169 516 181 524 c 1,16,-1
 313 634 l 1,0,-1
439 417 m 1,17,-1
 480 417 l 1,18,-1
 480 -28 l 2,19,20
 480 -86 480 -86 437 -132 c 0,21,22
 386 -186 386 -186 315 -186 c 2,23,-1
 201 -186 l 2,24,25
 174 -186 174 -186 174 -165 c 0,26,27
 174 -145 174 -145 201 -145 c 2,28,-1
 317 -145 l 2,29,30
 368 -145 368 -145 403.5 -109 c 128,-1,31
 439 -73 439 -73 439 -22 c 2,32,-1
 439 107 l 1,33,34
 373 10 373 10 268 10 c 0,35,36
 183 10 183 10 122.5 72 c 128,-1,37
 62 134 62 134 62 221 c 128,-1,38
 62 308 62 308 122.5 369.5 c 128,-1,39
 183 431 183 431 268 431 c 0,40,41
 374 431 374 431 439 334 c 1,42,-1
 439 417 l 1,17,-1
271 390 m 0,43,44
 201 390 201 390 152 341 c 128,-1,45
 103 292 103 292 103 221 c 128,-1,46
 103 150 103 150 152 100.5 c 128,-1,47
 201 51 201 51 271 51 c 128,-1,48
 341 51 341 51 390 100 c 128,-1,49
 439 149 439 149 439 219 c 0,50,51
 439 292 439 292 390.5 341 c 128,-1,52
 342 390 342 390 271 390 c 0,43,44
EndSplineSet
EndChar

StartChar: Gdotaccent
Encoding: 288 288 223
Width: 603
GlyphClass: 2
Flags: W
LayerCount: 2
Fore
SplineSet
304 720 m 2,0,-1
 326 720 l 2,1,2
 347 720 347 720 347 694 c 2,3,-1
 347 637 l 2,4,5
 347 610 347 610 326 610 c 2,6,-1
 304 610 l 2,7,8
 284 610 284 610 284 637 c 2,9,-1
 284 694 l 2,10,11
 284 720 284 720 304 720 c 2,0,-1
480 209 m 1,12,-1
 341 209 l 1,13,-1
 341 250 l 1,14,-1
 521 250 l 1,15,-1
 521 36 l 1,16,17
 431 -16 431 -16 334 -16 c 0,18,19
 211 -16 211 -16 137.5 55 c 128,-1,20
 64 126 64 126 64 244 c 2,21,-1
 64 318 l 2,22,23
 64 371 64 371 86 423 c 128,-1,24
 108 475 108 475 145 511 c 1,25,26
 215 576 215 576 314 576 c 0,27,28
 343 576 343 576 372 570.5 c 128,-1,29
 401 565 401 565 434 552 c 128,-1,30
 467 539 467 539 490.5 511 c 128,-1,31
 514 483 514 483 521 445 c 1,32,33
 521 418 521 418 501 418 c 0,34,35
 482 418 482 418 481 443 c 0,36,37
 478 481 478 481 430 508 c 128,-1,38
 382 535 382 535 316 535 c 0,39,40
 232 535 232 535 177 481 c 0,41,42
 144 450 144 450 124.5 405.5 c 128,-1,43
 105 361 105 361 105 317 c 2,44,-1
 105 244 l 2,45,46
 105 142 105 142 167 83.5 c 128,-1,47
 229 25 229 25 337 25 c 0,48,49
 407 25 407 25 480 59 c 1,50,-1
 480 209 l 1,12,-1
EndSplineSet
EndChar

StartChar: gdotaccent
Encoding: 289 289 224
Width: 540
GlyphClass: 2
Flags: W
LayerCount: 2
Fore
SplineSet
301 574 m 2,0,-1
 323 574 l 2,1,2
 344 574 344 574 344 548 c 2,3,-1
 344 491 l 2,4,5
 344 464 344 464 323 464 c 2,6,-1
 301 464 l 2,7,8
 281 464 281 464 281 491 c 2,9,-1
 281 548 l 2,10,11
 281 574 281 574 301 574 c 2,0,-1
439 417 m 1,12,-1
 480 417 l 1,13,-1
 480 -28 l 2,14,15
 480 -86 480 -86 437 -132 c 0,16,17
 386 -186 386 -186 315 -186 c 2,18,-1
 201 -186 l 2,19,20
 174 -186 174 -186 174 -165 c 0,21,22
 174 -145 174 -145 201 -145 c 2,23,-1
 317 -145 l 2,24,25
 368 -145 368 -145 403.5 -109 c 128,-1,26
 439 -73 439 -73 439 -22 c 2,27,-1
 439 107 l 1,28,29
 373 10 373 10 268 10 c 0,30,31
 183 10 183 10 122.5 72 c 128,-1,32
 62 134 62 134 62 221 c 128,-1,33
 62 308 62 308 122.5 369.5 c 128,-1,34
 183 431 183 431 268 431 c 0,35,36
 374 431 374 431 439 334 c 1,37,-1
 439 417 l 1,12,-1
271 390 m 0,38,39
 201 390 201 390 152 341 c 128,-1,40
 103 292 103 292 103 221 c 128,-1,41
 103 150 103 150 152 100.5 c 128,-1,42
 201 51 201 51 271 51 c 128,-1,43
 341 51 341 51 390 100 c 128,-1,44
 439 149 439 149 439 219 c 0,45,46
 439 292 439 292 390.5 341 c 128,-1,47
 342 390 342 390 271 390 c 0,38,39
EndSplineSet
EndChar

StartChar: Gcommaaccent
Encoding: 290 290 225
Width: 603
GlyphClass: 2
Flags: W
LayerCount: 2
Fore
SplineSet
359 -97 m 1,0,-1
 275 -223 l 2,1,2
 265 -237 265 -237 254 -237 c 0,3,4
 246 -237 246 -237 240 -231 c 128,-1,5
 234 -225 234 -225 234 -216 c 0,6,7
 234 -210 234 -210 241 -200 c 2,8,-1
 325 -74 l 2,9,10
 335 -60 335 -60 346 -60 c 0,11,12
 355 -60 355 -60 361 -66 c 128,-1,13
 367 -72 367 -72 367 -81 c 0,14,15
 367 -85 367 -85 362 -93 c 2,16,-1
 359 -97 l 1,0,-1
480 209 m 1,17,-1
 341 209 l 1,18,-1
 341 250 l 1,19,-1
 521 250 l 1,20,-1
 521 36 l 1,21,22
 431 -16 431 -16 334 -16 c 0,23,24
 211 -16 211 -16 137.5 55 c 128,-1,25
 64 126 64 126 64 244 c 2,26,-1
 64 318 l 2,27,28
 64 371 64 371 86 423 c 128,-1,29
 108 475 108 475 145 511 c 1,30,31
 215 576 215 576 314 576 c 0,32,33
 343 576 343 576 372 570.5 c 128,-1,34
 401 565 401 565 434 552 c 128,-1,35
 467 539 467 539 490.5 511 c 128,-1,36
 514 483 514 483 521 445 c 1,37,38
 521 418 521 418 501 418 c 0,39,40
 482 418 482 418 481 443 c 0,41,42
 478 481 478 481 430 508 c 128,-1,43
 382 535 382 535 316 535 c 0,44,45
 232 535 232 535 177 481 c 0,46,47
 144 450 144 450 124.5 405.5 c 128,-1,48
 105 361 105 361 105 317 c 2,49,-1
 105 244 l 2,50,51
 105 142 105 142 167 83.5 c 128,-1,52
 229 25 229 25 337 25 c 0,53,54
 407 25 407 25 480 59 c 1,55,-1
 480 209 l 1,17,-1
EndSplineSet
EndChar

StartChar: Hbar
Encoding: 294 294 229
Width: 645
GlyphClass: 2
Flags: W
LayerCount: 2
Fore
SplineSet
507 412 m 2,0,-1
 135 412 l 2,1,2
 93 412 93 412 93 434 c 0,3,4
 93 453 93 453 135 453 c 2,5,-1
 507 453 l 2,6,7
 549 453 549 453 549 434 c 0,8,9
 549 412 549 412 507 412 c 2,0,-1
188 563 m 1,10,-1
 188 313 l 1,11,-1
 458 313 l 1,12,-1
 458 563 l 1,13,-1
 499 563 l 1,14,-1
 499 0 l 1,15,-1
 458 0 l 1,16,-1
 458 272 l 1,17,-1
 188 272 l 1,18,-1
 188 0 l 1,19,-1
 147 0 l 1,20,-1
 147 563 l 1,21,-1
 188 563 l 1,10,-1
EndSplineSet
EndChar

StartChar: Itilde
Encoding: 296 296 231
Width: 312
GlyphClass: 2
Flags: W
LayerCount: 2
Fore
SplineSet
289 714 m 0,0,1
 298 714 298 714 303.5 708 c 128,-1,2
 309 702 309 702 309 693 c 0,3,4
 309 683 309 683 289 663 c 0,5,6
 253 627 253 627 221 627 c 0,7,8
 188 627 188 627 139 659 c 1,9,10
 108 676 108 676 97 676 c 0,11,12
 81 676 81 676 70.5 669.5 c 128,-1,13
 60 663 60 663 37 638 c 0,14,15
 29 630 29 630 21 630 c 0,16,17
 1 630 1 630 1 649 c 0,18,19
 1 658 1 658 19 679 c 1,20,21
 59 715 59 715 95 715 c 0,22,23
 120 715 120 715 159 693 c 0,24,25
 202 668 202 668 217 668 c 0,26,27
 230 668 230 668 240.5 675.5 c 128,-1,28
 251 683 251 683 273 706 c 1,29,30
 284 714 284 714 289 714 c 0,0,1
134 563 m 1,31,-1
 175 563 l 1,32,-1
 175 0 l 1,33,-1
 134 0 l 1,34,-1
 134 563 l 1,31,-1
EndSplineSet
EndChar

StartChar: Ibreve
Encoding: 300 300 235
Width: 280
GlyphClass: 2
Flags: W
LayerCount: 2
Fore
SplineSet
16 759 m 0,0,1
 30 759 30 759 36 739 c 1,2,3
 39 710 39 710 68.5 690.5 c 128,-1,4
 98 671 98 671 140 671 c 0,5,6
 181 671 181 671 211 691 c 128,-1,7
 241 711 241 711 244 739 c 0,8,9
 247 759 247 759 264 759 c 0,10,11
 284 759 284 759 284 737 c 0,12,13
 284 692 284 692 242.5 661 c 128,-1,14
 201 630 201 630 140 630 c 0,15,16
 80 630 80 630 38 661 c 128,-1,17
 -4 692 -4 692 -4 737 c 0,18,19
 -4 759 -4 759 16 759 c 0,0,1
119 563 m 1,20,-1
 160 563 l 1,21,-1
 160 0 l 1,22,-1
 119 0 l 1,23,-1
 119 563 l 1,20,-1
EndSplineSet
EndChar

StartChar: ibreve
Encoding: 301 301 236
Width: 290
GlyphClass: 2
Flags: W
LayerCount: 2
Fore
SplineSet
32 613 m 0,0,1
 46 613 46 613 52 593 c 1,2,3
 55 564 55 564 84.5 544.5 c 128,-1,4
 114 525 114 525 156 525 c 0,5,6
 197 525 197 525 227 545 c 128,-1,7
 257 565 257 565 260 593 c 0,8,9
 263 613 263 613 280 613 c 0,10,11
 300 613 300 613 300 591 c 0,12,13
 300 546 300 546 258.5 515 c 128,-1,14
 217 484 217 484 156 484 c 0,15,16
 96 484 96 484 54 515 c 128,-1,17
 12 546 12 546 12 591 c 0,18,19
 12 613 12 613 32 613 c 0,0,1
135 0 m 1,20,-1
 135 376 l 1,21,-1
 17 376 l 2,22,23
 -10 376 -10 376 -10 397 c 0,24,25
 -10 417 -10 417 17 417 c 2,26,-1
 176 417 l 1,27,-1
 176 0 l 1,28,-1
 135 0 l 1,20,-1
EndSplineSet
EndChar

StartChar: Iogonek
Encoding: 302 302 237
Width: 467
GlyphClass: 2
Flags: W
LayerCount: 2
Fore
SplineSet
282 522 m 1,0,-1
 282 41 l 1,1,-1
 421 41 l 2,2,3
 449 41 449 41 449 21 c 0,4,5
 449 7 449 7 430 -1 c 1,6,7
 394 -20 394 -20 371 -41 c 128,-1,8
 348 -62 348 -62 348 -89 c 0,9,10
 348 -123 348 -123 391 -123 c 0,11,12
 413 -123 413 -123 440 -107 c 0,13,14
 444 -104 444 -104 448 -104 c 0,15,16
 453 -104 453 -104 457.5 -108.5 c 128,-1,17
 462 -113 462 -113 462 -119 c 0,18,19
 462 -132 462 -132 437.5 -143.5 c 128,-1,20
 413 -155 413 -155 385 -155 c 0,21,22
 349 -155 349 -155 329 -139 c 128,-1,23
 309 -123 309 -123 309 -94 c 0,24,25
 309 -63 309 -63 326.5 -41.5 c 128,-1,26
 344 -20 344 -20 386 0 c 1,27,-1
 102 0 l 2,28,29
 75 0 75 0 75 21 c 0,30,31
 75 41 75 41 102 41 c 2,32,-1
 241 41 l 1,33,-1
 241 522 l 1,34,-1
 102 522 l 2,35,36
 75 522 75 522 75 543 c 0,37,38
 75 563 75 563 102 563 c 2,39,-1
 421 563 l 2,40,41
 449 563 449 563 449 543 c 0,42,43
 449 522 449 522 421 522 c 2,44,-1
 282 522 l 1,0,-1
EndSplineSet
EndChar

StartChar: iogonek
Encoding: 303 303 238
Width: 315
GlyphClass: 2
Flags: W
LayerCount: 2
Fore
SplineSet
114 41 m 1,0,-1
 274 41 l 2,1,2
 302 41 302 41 302 21 c 0,3,4
 302 8 302 8 289 2 c 0,5,6
 237 -26 237 -26 218.5 -45 c 128,-1,7
 200 -64 200 -64 200 -89 c 0,8,9
 200 -123 200 -123 243 -123 c 0,10,11
 265 -123 265 -123 292 -107 c 0,12,13
 297 -104 297 -104 300 -104 c 0,14,15
 305 -104 305 -104 309.5 -108.5 c 128,-1,16
 314 -113 314 -113 314 -119 c 0,17,18
 314 -132 314 -132 289.5 -143.5 c 128,-1,19
 265 -155 265 -155 237 -155 c 0,20,21
 201 -155 201 -155 181 -139 c 128,-1,22
 161 -123 161 -123 161 -94 c 0,23,24
 161 -63 161 -63 178.5 -41.5 c 128,-1,25
 196 -20 196 -20 238 0 c 1,26,-1
 100 0 l 2,27,28
 90 0 90 0 102 18 c 0,29,30
 114 35 114 35 114 41 c 1,0,-1
114 417 m 1,31,-1
 114 0 l 1,32,-1
 73 0 l 1,33,-1
 73 417 l 1,34,-1
 114 417 l 1,31,-1
124 624 m 1,35,-1
 124 520 l 1,36,-1
 65 520 l 1,37,-1
 65 624 l 1,38,-1
 124 624 l 1,35,-1
EndSplineSet
EndChar

StartChar: Idotaccent
Encoding: 304 304 239
Width: 288
GlyphClass: 2
Flags: W
LayerCount: 2
Fore
SplineSet
143 761 m 0,0,1
 164 761 164 761 178.5 746 c 128,-1,2
 193 731 193 731 193 710 c 0,3,4
 193 690 193 690 178 675.5 c 128,-1,5
 163 661 163 661 143 661 c 128,-1,6
 123 661 123 661 108 676 c 128,-1,7
 93 691 93 691 93 711 c 128,-1,8
 93 731 93 731 108 746 c 128,-1,9
 123 761 123 761 143 761 c 0,0,1
122 563 m 1,10,-1
 163 563 l 1,11,-1
 163 0 l 1,12,-1
 122 0 l 1,13,-1
 122 563 l 1,10,-1
EndSplineSet
EndChar

StartChar: dotlessi
Encoding: 305 305 240
Width: 365
GlyphClass: 2
Flags: W
LayerCount: 2
Fore
SplineSet
231 0 m 1,0,-1
 231 376 l 1,1,-1
 113 376 l 2,2,3
 86 376 86 376 86 397 c 0,4,5
 86 417 86 417 113 417 c 2,6,-1
 272 417 l 1,7,-1
 272 0 l 1,8,-1
 231 0 l 1,0,-1
EndSplineSet
EndChar

StartChar: IJ
Encoding: 306 306 241
Width: 582
GlyphClass: 3
Flags: W
LayerCount: 2
Fore
SplineSet
487 563 m 1,0,-1
 487 165 l 2,1,2
 487 84 487 84 452.5 34 c 128,-1,3
 418 -16 418 -16 345 -16 c 0,4,5
 298 -16 298 -16 267.5 5 c 128,-1,6
 237 26 237 26 205 74 c 1,7,-1
 246 93 l 1,8,9
 269 52 269 52 289 38.5 c 128,-1,10
 309 25 309 25 345 25 c 0,11,12
 447 25 447 25 447 165 c 2,13,-1
 447 563 l 1,14,-1
 487 563 l 1,0,-1
135 563 m 1,15,-1
 135 0 l 1,16,-1
 93 0 l 1,17,-1
 93 563 l 1,18,-1
 135 563 l 1,15,-1
EndSplineSet
Ligature2: "'dlig' Discretionary Ligatures lookup 0 subtable" I J
EndChar

StartChar: ij
Encoding: 307 307 242
Width: 526
GlyphClass: 3
Flags: W
LayerCount: 2
Fore
SplineSet
386 376 m 1,0,-1
 306 376 l 2,1,2
 280 376 280 376 280 396 c 0,3,4
 280 418 280 418 306 418 c 2,5,-1
 428 418 l 1,6,-1
 428 -28 l 2,7,8
 428 -98 428 -98 385 -142 c 128,-1,9
 342 -186 342 -186 274 -186 c 2,10,-1
 144 -186 l 2,11,12
 118 -186 118 -186 118 -165 c 0,13,14
 118 -145 118 -145 144 -145 c 2,15,-1
 274 -145 l 2,16,17
 322 -145 322 -145 354 -112 c 128,-1,18
 386 -79 386 -79 386 -28 c 2,19,-1
 386 376 l 1,0,-1
436 624 m 1,20,-1
 436 519 l 1,21,-1
 376 519 l 1,22,-1
 376 624 l 1,23,-1
 436 624 l 1,20,-1
170 0 m 1,24,-1
 170 376 l 1,25,-1
 114 376 l 2,26,27
 86 376 86 376 86 396 c 0,28,29
 86 418 86 418 114 418 c 2,30,-1
 211 418 l 1,31,-1
 211 0 l 1,32,-1
 170 0 l 1,24,-1
222 624 m 1,33,-1
 222 519 l 1,34,-1
 164 519 l 1,35,-1
 164 624 l 1,36,-1
 222 624 l 1,33,-1
EndSplineSet
Ligature2: "'dlig' Discretionary Ligatures lookup 0 subtable" i j
EndChar

StartChar: jcircumflex
Encoding: 309 309 244
Width: 299
GlyphClass: 2
Flags: W
LayerCount: 2
Fore
SplineSet
259 376 m 1,0,-1
 17 376 l 2,1,2
 -11 376 -11 376 -11 396 c 0,3,4
 -11 418 -11 418 17 418 c 2,5,-1
 300 418 l 1,6,-1
 300 -28 l 2,7,8
 300 -98 300 -98 257 -142 c 128,-1,9
 214 -186 214 -186 145 -186 c 2,10,-1
 13 -186 l 2,11,12
 2 -186 2 -186 -5.5 -180 c 128,-1,13
 -13 -174 -13 -174 -13 -165 c 0,14,15
 -13 -145 -13 -145 13 -145 c 2,16,-1
 143 -145 l 2,17,18
 193 -145 193 -145 226 -112 c 128,-1,19
 259 -79 259 -79 259 -28 c 2,20,-1
 259 376 l 1,0,-1
143 639 m 1,21,-1
 275 531 l 2,22,23
 288 520 288 520 288 510 c 0,24,25
 288 502 288 502 282 496 c 128,-1,26
 276 490 276 490 268 490 c 0,27,28
 261 490 261 490 250 498 c 2,29,-1
 143 586 l 1,30,-1
 36 498 l 2,31,32
 25 490 25 490 18 490 c 0,33,34
 10 490 10 490 4 496 c 128,-1,35
 -2 502 -2 502 -2 510 c 0,36,37
 -2 521 -2 521 11 530 c 1,38,-1
 143 639 l 1,21,-1
EndSplineSet
EndChar

StartChar: Kcommaaccent
Encoding: 310 310 245
Width: 566
GlyphClass: 2
Flags: W
LayerCount: 2
Fore
SplineSet
367 -97 m 1,0,-1
 283 -223 l 2,1,2
 273 -237 273 -237 262 -237 c 0,3,4
 254 -237 254 -237 248 -231 c 128,-1,5
 242 -225 242 -225 242 -216 c 0,6,7
 242 -210 242 -210 249 -200 c 2,8,-1
 333 -74 l 2,9,10
 343 -60 343 -60 354 -60 c 0,11,12
 363 -60 363 -60 369 -66 c 128,-1,13
 375 -72 375 -72 375 -81 c 0,14,15
 375 -85 375 -85 370 -93 c 2,16,-1
 367 -97 l 1,0,-1
515 0 m 1,17,-1
 467 0 l 1,18,19
 412 152 412 152 369 211.5 c 128,-1,20
 326 271 326 271 255 294 c 1,21,-1
 174 221 l 1,22,-1
 174 0 l 1,23,-1
 133 0 l 1,24,-1
 133 563 l 1,25,-1
 174 563 l 1,26,-1
 174 273 l 1,27,-1
 500 563 l 1,28,-1
 557 563 l 1,29,-1
 289 324 l 1,30,31
 341 303 341 303 371.5 274.5 c 128,-1,32
 402 246 402 246 434.5 184.5 c 128,-1,33
 467 123 467 123 515 0 c 1,17,-1
EndSplineSet
EndChar

StartChar: kcommaaccent
Encoding: 311 311 246
Width: 512
GlyphClass: 2
Flags: W
LayerCount: 2
Fore
SplineSet
122 0 m 1,0,-1
 122 604 l 1,1,-1
 163 604 l 1,2,-1
 163 229 l 1,3,-1
 385 417 l 1,4,-1
 446 417 l 1,5,-1
 240 245 l 1,6,-1
 488 0 l 1,7,-1
 430 0 l 1,8,-1
 209 219 l 1,9,-1
 163 180 l 1,10,-1
 163 0 l 1,11,-1
 122 0 l 1,0,-1
296 -97 m 1,12,-1
 212 -223 l 2,13,14
 202 -237 202 -237 191 -237 c 0,15,16
 183 -237 183 -237 177 -231 c 128,-1,17
 171 -225 171 -225 171 -216 c 0,18,19
 171 -210 171 -210 178 -200 c 2,20,-1
 262 -74 l 2,21,22
 272 -60 272 -60 283 -60 c 0,23,24
 292 -60 292 -60 298 -66 c 128,-1,25
 304 -72 304 -72 304 -81 c 0,26,27
 304 -85 304 -85 299 -93 c 2,28,-1
 296 -97 l 1,12,-1
EndSplineSet
EndChar

StartChar: kgreenlandic
Encoding: 312 312 247
Width: 547
GlyphClass: 2
Flags: W
LayerCount: 2
Fore
SplineSet
206 0 m 1,0,-1
 111 0 l 2,1,2
 85 0 85 0 85 20 c 0,3,4
 85 41 85 41 111 41 c 2,5,-1
 165 41 l 1,6,-1
 165 376 l 1,7,-1
 111 376 l 2,8,9
 85 376 85 376 85 396 c 0,10,11
 85 418 85 418 111 418 c 2,12,-1
 206 418 l 1,13,-1
 206 241 l 1,14,-1
 379 376 l 1,15,-1
 357 376 l 2,16,17
 331 376 331 376 331 396 c 0,18,19
 331 418 331 418 357 418 c 2,20,-1
 487 418 l 2,21,22
 515 418 515 418 515 396 c 0,23,24
 515 376 515 376 487 376 c 2,25,-1
 441 376 l 1,26,-1
 237 217 l 1,27,-1
 473 41 l 1,28,-1
 517 41 l 2,29,30
 545 41 545 41 545 20 c 0,31,32
 545 0 545 0 517 0 c 2,33,-1
 387 0 l 2,34,35
 359 0 359 0 359 20 c 0,36,37
 359 41 359 41 387 41 c 2,38,-1
 415 41 l 1,39,-1
 206 190 l 1,40,-1
 206 0 l 1,0,-1
EndSplineSet
EndChar

StartChar: Lcommaaccent
Encoding: 315 315 250
Width: 473
GlyphClass: 2
Flags: W
LayerCount: 2
Fore
SplineSet
236 -97 m 1,0,-1
 152 -223 l 2,1,2
 142 -237 142 -237 131 -237 c 0,3,4
 123 -237 123 -237 117 -231 c 128,-1,5
 111 -225 111 -225 111 -216 c 0,6,7
 111 -210 111 -210 118 -200 c 2,8,-1
 202 -74 l 2,9,10
 212 -60 212 -60 223 -60 c 0,11,12
 232 -60 232 -60 238 -66 c 128,-1,13
 244 -72 244 -72 244 -81 c 0,14,15
 244 -85 244 -85 239 -93 c 2,16,-1
 236 -97 l 1,0,-1
449 41 m 1,17,-1
 449 0 l 1,18,-1
 94 0 l 1,19,-1
 94 563 l 1,20,-1
 135 563 l 1,21,-1
 135 41 l 1,22,-1
 449 41 l 1,17,-1
EndSplineSet
EndChar

StartChar: Lcaron
Encoding: 317 317 252
Width: 473
GlyphClass: 2
Flags: W
LayerCount: 2
Fore
SplineSet
409 529 m 1,0,-1
 325 403 l 2,1,2
 315 389 315 389 304 389 c 0,3,4
 296 389 296 389 290 395 c 128,-1,5
 284 401 284 401 284 410 c 0,6,7
 284 416 284 416 291 426 c 2,8,-1
 375 552 l 2,9,10
 385 566 385 566 396 566 c 0,11,12
 405 566 405 566 411 560 c 128,-1,13
 417 554 417 554 417 545 c 0,14,15
 417 541 417 541 412 533 c 2,16,-1
 409 529 l 1,0,-1
449 41 m 1,17,-1
 449 0 l 1,18,-1
 94 0 l 1,19,-1
 94 563 l 1,20,-1
 135 563 l 1,21,-1
 135 41 l 1,22,-1
 449 41 l 1,17,-1
EndSplineSet
EndChar

StartChar: Ldot
Encoding: 319 319 254
Width: 473
GlyphClass: 3
Flags: W
LayerCount: 2
Fore
SplineSet
289 346 m 2,0,-1
 299 346 l 2,1,2
 328 346 328 346 347.5 327 c 128,-1,3
 367 308 367 308 367 280 c 128,-1,4
 367 252 367 252 347.5 233 c 128,-1,5
 328 214 328 214 299 214 c 2,6,-1
 289 214 l 2,7,8
 259 214 259 214 239 233.5 c 128,-1,9
 219 253 219 253 219 280 c 0,10,11
 219 308 219 308 239 327 c 128,-1,12
 259 346 259 346 289 346 c 2,0,-1
449 41 m 1,13,-1
 449 0 l 1,14,-1
 94 0 l 1,15,-1
 94 563 l 1,16,-1
 135 563 l 1,17,-1
 135 41 l 1,18,-1
 449 41 l 1,13,-1
EndSplineSet
Ligature2: "'liga' Standard Ligatures in Latin lookup 1 subtable" L periodcentered
EndChar

StartChar: ldot
Encoding: 320 320 255
Width: 438
GlyphClass: 3
Flags: W
LayerCount: 2
Fore
SplineSet
318 349 m 2,0,-1
 328 349 l 2,1,2
 358 349 358 349 377.5 330.5 c 128,-1,3
 397 312 397 312 397 283 c 128,-1,4
 397 254 397 254 377.5 235.5 c 128,-1,5
 358 217 358 217 328 217 c 2,6,-1
 318 217 l 2,7,8
 290 217 290 217 270 236.5 c 128,-1,9
 250 256 250 256 250 283 c 0,10,11
 250 311 250 311 269.5 330 c 128,-1,12
 289 349 289 349 318 349 c 2,0,-1
141 0 m 1,13,-1
 141 563 l 1,14,-1
 114 563 l 2,15,16
 87 563 87 563 87 584 c 0,17,18
 87 604 87 604 114 604 c 2,19,-1
 182 604 l 1,20,-1
 182 0 l 1,21,-1
 141 0 l 1,13,-1
EndSplineSet
Ligature2: "'liga' Standard Ligatures in Latin lookup 1 subtable" l periodcentered
EndChar

StartChar: Lslash
Encoding: 321 321 256
Width: 523
GlyphClass: 2
Flags: W
LayerCount: 2
Fore
SplineSet
35 184 m 2,0,1
 26 178 26 178 18 178 c 0,2,3
 11 178 11 178 5 184.5 c 128,-1,4
 -1 191 -1 191 -1 199 c 0,5,6
 -1 210 -1 210 15 219 c 2,7,-1
 316 390 l 1,8,9
 329 395 329 395 333 395 c 0,10,11
 341 395 341 395 347 389 c 128,-1,12
 353 383 353 383 353 375 c 0,13,14
 353 365 353 365 336 355 c 2,15,-1
 35 184 l 2,0,1
496 41 m 1,16,-1
 496 0 l 1,17,-1
 141 0 l 1,18,-1
 141 563 l 1,19,-1
 182 563 l 1,20,-1
 182 41 l 1,21,-1
 496 41 l 1,16,-1
EndSplineSet
EndChar

StartChar: lslash
Encoding: 322 322 257
Width: 317
GlyphClass: 2
Flags: W
LayerCount: 2
Fore
SplineSet
148 0 m 1,0,-1
 148 280 l 1,1,-1
 61 230 l 2,2,3
 50 224 50 224 44 224 c 0,4,5
 37 224 37 224 31 230.5 c 128,-1,6
 25 237 25 237 25 245 c 0,7,8
 25 257 25 257 41 266 c 2,9,-1
 148 327 l 1,10,-1
 148 563 l 1,11,-1
 31 563 l 2,12,13
 4 563 4 563 4 584 c 0,14,15
 4 604 4 604 31 604 c 2,16,-1
 189 604 l 1,17,-1
 189 343 l 1,18,-1
 277 394 l 2,19,20
 288 400 288 400 294 400 c 0,21,22
 302 400 302 400 307.5 394 c 128,-1,23
 313 388 313 388 313 380 c 0,24,25
 313 368 313 368 297 359 c 2,26,-1
 189 297 l 1,27,-1
 189 0 l 1,28,-1
 148 0 l 1,0,-1
EndSplineSet
EndChar

StartChar: Ncommaaccent
Encoding: 325 325 260
Width: 608
GlyphClass: 2
Flags: W
LayerCount: 2
Fore
SplineSet
328 -97 m 1,0,-1
 244 -223 l 2,1,2
 234 -237 234 -237 223 -237 c 0,3,4
 215 -237 215 -237 209 -231 c 128,-1,5
 203 -225 203 -225 203 -216 c 0,6,7
 203 -210 203 -210 210 -200 c 2,8,-1
 294 -74 l 2,9,10
 304 -60 304 -60 315 -60 c 0,11,12
 324 -60 324 -60 330 -66 c 128,-1,13
 336 -72 336 -72 336 -81 c 0,14,15
 336 -85 336 -85 331 -93 c 2,16,-1
 328 -97 l 1,0,-1
93 0 m 1,17,-1
 93 563 l 1,18,-1
 145 563 l 1,19,-1
 450 59 l 1,20,-1
 450 563 l 1,21,-1
 491 563 l 1,22,-1
 491 0 l 1,23,-1
 439 0 l 1,24,-1
 134 504 l 1,25,-1
 134 0 l 1,26,-1
 93 0 l 1,17,-1
EndSplineSet
EndChar

StartChar: Ncaron
Encoding: 327 327 262
Width: 608
GlyphClass: 2
Flags: W
LayerCount: 2
Fore
SplineSet
290 640 m 1,0,-1
 158 749 l 1,1,2
 145 758 145 758 145 769 c 0,3,4
 145 777 145 777 151 783 c 128,-1,5
 157 789 157 789 165 789 c 0,6,7
 172 789 172 789 183 781 c 2,8,-1
 290 693 l 1,9,-1
 397 781 l 2,10,11
 408 789 408 789 415 789 c 0,12,13
 423 789 423 789 429 782.5 c 128,-1,14
 435 776 435 776 435 769 c 0,15,16
 435 759 435 759 422 748 c 2,17,-1
 290 640 l 1,0,-1
93 0 m 1,18,-1
 93 563 l 1,19,-1
 145 563 l 1,20,-1
 450 59 l 1,21,-1
 450 563 l 1,22,-1
 491 563 l 1,23,-1
 491 0 l 1,24,-1
 439 0 l 1,25,-1
 134 504 l 1,26,-1
 134 0 l 1,27,-1
 93 0 l 1,18,-1
EndSplineSet
EndChar

StartChar: Obreve
Encoding: 334 334 269
Width: 622
GlyphClass: 2
Flags: W
LayerCount: 2
Fore
SplineSet
187 759 m 0,0,1
 201 759 201 759 207 739 c 1,2,3
 210 710 210 710 239.5 690.5 c 128,-1,4
 269 671 269 671 311 671 c 0,5,6
 352 671 352 671 382 691 c 128,-1,7
 412 711 412 711 415 739 c 0,8,9
 418 759 418 759 435 759 c 0,10,11
 455 759 455 759 455 737 c 0,12,13
 455 692 455 692 413.5 661 c 128,-1,14
 372 630 372 630 311 630 c 0,15,16
 251 630 251 630 209 661 c 128,-1,17
 167 692 167 692 167 737 c 0,18,19
 167 759 167 759 187 759 c 0,0,1
311 576 m 0,20,21
 417 576 417 576 488.5 489.5 c 128,-1,22
 560 403 560 403 560 276 c 0,23,24
 560 155 560 155 487 69.5 c 128,-1,25
 414 -16 414 -16 311 -16 c 0,26,27
 207 -16 207 -16 134.5 70 c 128,-1,28
 62 156 62 156 62 280 c 128,-1,29
 62 404 62 404 134.5 490 c 128,-1,30
 207 576 207 576 311 576 c 0,20,21
311 535 m 0,31,32
 225 535 225 535 164 460 c 128,-1,33
 103 385 103 385 103 280 c 128,-1,34
 103 175 103 175 164 100 c 128,-1,35
 225 25 225 25 311 25 c 0,36,37
 396 25 396 25 457.5 99.5 c 128,-1,38
 519 174 519 174 519 277 c 0,39,40
 519 385 519 385 458.5 460 c 128,-1,41
 398 535 398 535 311 535 c 0,31,32
EndSplineSet
EndChar

StartChar: obreve
Encoding: 335 335 270
Width: 694
GlyphClass: 2
Flags: W
LayerCount: 2
Fore
SplineSet
580 41 m 1,0,-1
 605 41 l 2,1,2
 633 41 633 41 633 21 c 2,3,-1
 633 -98 l 2,4,5
 633 -125 633 -125 613 -125 c 0,6,7
 591 -125 591 -125 591 -98 c 2,8,-1
 591 0 l 1,9,-1
 549 0 l 2,10,11
 551 0 551 0 558.5 10.5 c 128,-1,12
 566 21 566 21 573 31 c 2,13,-1
 580 41 l 1,0,-1
590 0 m 1,14,-1
 549 0 l 1,15,16
 517 136 517 136 477 194.5 c 128,-1,17
 437 253 437 253 363 286 c 1,18,-1
 363 0 l 1,19,-1
 321 0 l 1,20,-1
 321 286 l 1,21,22
 245 252 245 252 204 193.5 c 128,-1,23
 163 135 163 135 133 0 c 1,24,-1
 92 0 l 1,25,26
 102 72 102 72 121 127 c 128,-1,27
 140 182 140 182 167.5 218 c 128,-1,28
 195 254 195 254 223 276.5 c 128,-1,29
 251 299 251 299 287 316 c 1,30,-1
 61 563 l 1,31,-1
 111 563 l 1,32,-1
 321 336 l 1,33,-1
 321 563 l 1,34,-1
 363 563 l 1,35,-1
 363 336 l 1,36,-1
 570 563 l 1,37,-1
 621 563 l 1,38,-1
 395 316 l 1,39,40
 431 299 431 299 459 276.5 c 128,-1,41
 487 254 487 254 514.5 218 c 128,-1,42
 542 182 542 182 561 127 c 128,-1,43
 580 72 580 72 590 0 c 1,14,-1
EndSplineSet
EndChar

StartChar: OE
Encoding: 338 338 273
Width: 714
GlyphClass: 2
Flags: W
LayerCount: 2
Fore
SplineSet
642 41 m 1,0,-1
 642 0 l 1,1,-1
 315 0 l 2,2,3
 201 0 201 0 131.5 77.5 c 128,-1,4
 62 155 62 155 62 282 c 0,5,6
 62 407 62 407 130 485 c 128,-1,7
 198 563 198 563 307 563 c 2,8,-1
 622 563 l 1,9,-1
 622 522 l 1,10,-1
 390 522 l 1,11,-1
 390 313 l 1,12,-1
 509 313 l 1,13,-1
 509 272 l 1,14,-1
 390 272 l 1,15,-1
 390 41 l 1,16,-1
 642 41 l 1,0,-1
349 522 m 1,17,-1
 317 522 l 2,18,19
 211 522 211 522 156 452 c 0,20,21
 103 385 103 385 103 281 c 0,22,23
 103 178 103 178 156 111 c 0,24,25
 211 41 211 41 317 41 c 2,26,-1
 349 41 l 1,27,-1
 349 522 l 1,17,-1
EndSplineSet
EndChar

StartChar: oe
Encoding: 339 339 274
Width: 685
GlyphClass: 2
Flags: W
LayerCount: 2
Fore
SplineSet
626 199 m 1,0,-1
 368 199 l 1,1,2
 374 125 374 125 410.5 75 c 128,-1,3
 447 25 447 25 495 25 c 0,4,5
 517 25 517 25 537.5 37 c 128,-1,6
 558 49 558 49 594 82 c 1,7,8
 601 87 601 87 607 87 c 0,9,10
 615 87 615 87 621 80.5 c 128,-1,11
 627 74 627 74 627 67 c 0,12,13
 627 55 627 55 596 29 c 1,14,15
 536 -16 536 -16 493 -16 c 0,16,17
 448 -16 448 -16 409.5 16 c 128,-1,18
 371 48 371 48 348 103 c 1,19,20
 326 46 326 46 291.5 15 c 128,-1,21
 257 -16 257 -16 215 -16 c 0,22,23
 153 -16 153 -16 107 52 c 128,-1,24
 61 120 61 120 61 212 c 0,25,26
 61 301 61 301 106.5 366 c 128,-1,27
 152 431 152 431 214 431 c 0,28,29
 255 431 255 431 291 400 c 128,-1,30
 327 369 327 369 348 317 c 1,31,32
 369 370 369 370 395 395 c 0,33,34
 433 431 433 431 480 431 c 0,35,36
 524 431 524 431 558.5 403 c 128,-1,37
 593 375 593 375 609 325 c 0,38,39
 626 273 626 273 626 199 c 1,0,-1
369 240 m 1,40,-1
 585 240 l 1,41,42
 577 305 577 305 562 335 c 0,43,44
 534 390 534 390 478 390 c 0,45,46
 389 390 389 390 369 240 c 1,40,-1
215 390 m 0,47,48
 170 390 170 390 136 335.5 c 128,-1,49
 102 281 102 281 102 208 c 128,-1,50
 102 135 102 135 136 80 c 128,-1,51
 170 25 170 25 216 25 c 0,52,53
 260 25 260 25 294.5 80 c 128,-1,54
 329 135 329 135 329 206 c 0,55,56
 329 280 329 280 295 335 c 128,-1,57
 261 390 261 390 215 390 c 0,47,48
EndSplineSet
EndChar

StartChar: Rcommaaccent
Encoding: 342 342 277
Width: 565
GlyphClass: 2
Flags: W
LayerCount: 2
Fore
SplineSet
329 -97 m 1,0,-1
 245 -223 l 2,1,2
 235 -237 235 -237 224 -237 c 0,3,4
 216 -237 216 -237 210 -231 c 128,-1,5
 204 -225 204 -225 204 -216 c 0,6,7
 204 -210 204 -210 211 -200 c 2,8,-1
 295 -74 l 2,9,10
 305 -60 305 -60 316 -60 c 0,11,12
 325 -60 325 -60 331 -66 c 128,-1,13
 337 -72 337 -72 337 -81 c 0,14,15
 337 -85 337 -85 332 -93 c 2,16,-1
 329 -97 l 1,0,-1
524 0 m 1,17,-1
 476 0 l 1,18,19
 410 122 410 122 367.5 173.5 c 128,-1,20
 325 225 325 225 268 251 c 1,21,-1
 136 251 l 1,22,-1
 136 0 l 1,23,-1
 95 0 l 1,24,-1
 95 563 l 1,25,-1
 289 563 l 2,26,27
 362 563 362 563 415.5 516.5 c 128,-1,28
 469 470 469 470 469 407 c 0,29,30
 469 310 469 310 330 262 c 1,31,32
 379 229 379 229 415.5 180.5 c 128,-1,33
 452 132 452 132 524 0 c 1,17,-1
136 292 m 1,34,-1
 250 292 l 2,35,36
 324 292 324 292 376 326 c 128,-1,37
 428 360 428 360 428 408 c 0,38,39
 428 453 428 453 385.5 487.5 c 128,-1,40
 343 522 343 522 289 522 c 2,41,-1
 136 522 l 1,42,-1
 136 292 l 1,34,-1
EndSplineSet
EndChar

StartChar: Rcaron
Encoding: 344 344 279
Width: 565
GlyphClass: 2
Flags: W
LayerCount: 2
Fore
SplineSet
271 640 m 1,0,-1
 139 749 l 1,1,2
 126 758 126 758 126 769 c 0,3,4
 126 777 126 777 132 783 c 128,-1,5
 138 789 138 789 146 789 c 0,6,7
 153 789 153 789 164 781 c 2,8,-1
 271 693 l 1,9,-1
 378 781 l 2,10,11
 389 789 389 789 396 789 c 128,-1,12
 403 789 403 789 409.5 782.5 c 128,-1,13
 416 776 416 776 416 769 c 0,14,15
 416 759 416 759 403 748 c 2,16,-1
 271 640 l 1,0,-1
524 0 m 1,17,-1
 476 0 l 1,18,19
 410 122 410 122 367.5 173.5 c 128,-1,20
 325 225 325 225 268 251 c 1,21,-1
 136 251 l 1,22,-1
 136 0 l 1,23,-1
 95 0 l 1,24,-1
 95 563 l 1,25,-1
 289 563 l 2,26,27
 362 563 362 563 415.5 516.5 c 128,-1,28
 469 470 469 470 469 407 c 0,29,30
 469 310 469 310 330 262 c 1,31,32
 379 229 379 229 415.5 180.5 c 128,-1,33
 452 132 452 132 524 0 c 1,17,-1
136 292 m 1,34,-1
 250 292 l 2,35,36
 324 292 324 292 376 326 c 128,-1,37
 428 360 428 360 428 408 c 0,38,39
 428 453 428 453 385.5 487.5 c 128,-1,40
 343 522 343 522 289 522 c 2,41,-1
 136 522 l 1,42,-1
 136 292 l 1,34,-1
EndSplineSet
EndChar

StartChar: scircumflex
Encoding: 349 349 284
Width: 505
GlyphClass: 2
Flags: W
LayerCount: 2
Fore
SplineSet
254 634 m 1,0,-1
 386 525 l 2,1,2
 398 514 398 514 398 503 c 0,3,4
 398 484 398 484 378 484 c 0,5,6
 371 484 371 484 360 492 c 2,7,-1
 254 580 l 1,8,-1
 146 492 l 1,9,10
 138 484 138 484 128 484 c 0,11,12
 120 484 120 484 115 489.5 c 128,-1,13
 110 495 110 495 110 503 c 0,14,15
 110 516 110 516 122 524 c 1,16,-1
 254 634 l 1,0,-1
386 385 m 1,17,-1
 386 390 l 2,18,19
 386 418 386 418 408 418 c 0,20,21
 426 418 426 418 426 390 c 2,22,-1
 426 321 l 2,23,24
 426 292 426 292 408 292 c 0,25,26
 389 292 389 292 386 316 c 0,27,28
 383 349 383 349 346 369.5 c 128,-1,29
 309 390 309 390 252 390 c 0,30,31
 197 390 197 390 159.5 369 c 128,-1,32
 122 348 122 348 122 316 c 0,33,34
 122 286 122 286 154 269 c 0,35,36
 171 259 171 259 189.5 255 c 128,-1,37
 208 251 208 251 270 245 c 1,38,39
 356 234 356 234 400 206 c 1,40,41
 450 172 450 172 450 116 c 0,42,43
 450 58 450 58 395 21 c 128,-1,44
 340 -16 340 -16 254 -16 c 0,45,46
 160 -16 160 -16 99 38 c 1,47,-1
 99 27 l 2,48,49
 99 0 99 0 78 0 c 0,50,51
 58 0 58 0 58 27 c 2,52,-1
 58 110 l 2,53,54
 58 137 58 137 78 137 c 0,55,56
 86 137 86 137 92.5 130.5 c 128,-1,57
 99 124 99 124 99 115 c 2,58,-1
 99 108 l 2,59,60
 99 73 99 73 144 49 c 128,-1,61
 189 25 189 25 252 25 c 0,62,63
 317 25 317 25 360.5 51 c 128,-1,64
 404 77 404 77 404 116 c 0,65,66
 404 157 404 157 360 179 c 1,67,68
 326 199 326 199 254 208 c 1,69,70
 160 217 160 217 124 239 c 1,71,72
 78 270 78 270 78 318 c 0,73,74
 78 367 78 367 126.5 399 c 128,-1,75
 175 431 175 431 250 431 c 0,76,77
 334 431 334 431 386 385 c 1,17,-1
EndSplineSet
EndChar

StartChar: Scaron
Encoding: 352 352 287
Width: 546
GlyphClass: 2
Flags: W
LayerCount: 2
Fore
SplineSet
286 640 m 1,0,-1
 154 749 l 1,1,2
 141 758 141 758 141 769 c 0,3,4
 141 777 141 777 147 783 c 128,-1,5
 153 789 153 789 161 789 c 0,6,7
 168 789 168 789 179 781 c 2,8,-1
 286 693 l 1,9,-1
 393 781 l 2,10,11
 404 789 404 789 411 789 c 128,-1,12
 418 789 418 789 424.5 782.5 c 128,-1,13
 431 776 431 776 431 769 c 0,14,15
 431 759 431 759 418 748 c 2,16,-1
 286 640 l 1,0,-1
68 139 m 0,17,18
 68 166 68 166 89 166 c 0,19,20
 108 166 108 166 109 142 c 0,21,22
 111 93 111 93 160 59 c 128,-1,23
 209 25 209 25 277 25 c 0,24,25
 347 25 347 25 393.5 61.5 c 128,-1,26
 440 98 440 98 440 153 c 0,27,28
 440 210 440 210 395 237 c 1,29,30
 366 256 366 256 279 271 c 0,31,32
 183 287 183 287 143 317 c 1,33,34
 91 353 91 353 91 421 c 0,35,36
 91 487 91 487 143.5 531.5 c 128,-1,37
 196 576 196 576 275 576 c 0,38,39
 362 576 362 576 412 528 c 128,-1,40
 462 480 462 480 462 433 c 0,41,42
 462 406 462 406 442 406 c 256,43,44
 422 406 422 406 421 430 c 0,45,46
 418 475 418 475 377 505 c 128,-1,47
 336 535 336 535 278 535 c 0,48,49
 216 535 216 535 175.5 502 c 128,-1,50
 135 469 135 469 135 420 c 128,-1,51
 135 371 135 371 174 344 c 1,52,53
 208 322 208 322 287 309 c 0,54,55
 385 292 385 292 422 269 c 0,56,57
 484 231 484 231 484 151 c 0,58,59
 484 78 484 78 426 31 c 128,-1,60
 368 -16 368 -16 278 -16 c 0,61,62
 196 -16 196 -16 132 32.5 c 128,-1,63
 68 81 68 81 68 139 c 0,17,18
EndSplineSet
EndChar

StartChar: Tcommaaccent
Encoding: 354 354 289
Width: 488
GlyphClass: 2
Flags: W
LayerCount: 2
Fore
SplineSet
262 -97 m 1,0,-1
 178 -223 l 2,1,2
 168 -237 168 -237 157 -237 c 0,3,4
 149 -237 149 -237 143 -231 c 128,-1,5
 137 -225 137 -225 137 -216 c 0,6,7
 137 -210 137 -210 144 -200 c 2,8,-1
 228 -74 l 2,9,10
 238 -60 238 -60 249 -60 c 0,11,12
 258 -60 258 -60 264 -66 c 128,-1,13
 270 -72 270 -72 270 -81 c 0,14,15
 270 -85 270 -85 265 -93 c 2,16,-1
 262 -97 l 1,0,-1
16 563 m 1,17,-1
 472 563 l 1,18,-1
 472 522 l 1,19,-1
 265 522 l 1,20,-1
 265 0 l 1,21,-1
 224 0 l 1,22,-1
 224 522 l 1,23,-1
 16 522 l 1,24,-1
 16 563 l 1,17,-1
EndSplineSet
EndChar

StartChar: Tcaron
Encoding: 356 356 291
Width: 488
GlyphClass: 2
Flags: W
LayerCount: 2
Fore
SplineSet
244 640 m 1,0,-1
 112 749 l 1,1,2
 99 758 99 758 99 769 c 0,3,4
 99 777 99 777 105 783 c 128,-1,5
 111 789 111 789 119 789 c 0,6,7
 126 789 126 789 137 781 c 2,8,-1
 244 693 l 1,9,-1
 351 781 l 2,10,11
 362 789 362 789 369 789 c 128,-1,12
 376 789 376 789 382.5 782.5 c 128,-1,13
 389 776 389 776 389 769 c 0,14,15
 389 759 389 759 376 748 c 2,16,-1
 244 640 l 1,0,-1
16 563 m 1,17,-1
 472 563 l 1,18,-1
 472 522 l 1,19,-1
 265 522 l 1,20,-1
 265 0 l 1,21,-1
 224 0 l 1,22,-1
 224 522 l 1,23,-1
 16 522 l 1,24,-1
 16 563 l 1,17,-1
EndSplineSet
EndChar

StartChar: Tbar
Encoding: 358 358 293
Width: 488
GlyphClass: 2
Flags: W
LayerCount: 2
Fore
SplineSet
364 338 m 2,0,1
 392 338 392 338 392 316 c 0,2,3
 392 297 392 297 364 297 c 2,4,-1
 128 297 l 2,5,6
 102 297 102 297 102 316 c 0,7,8
 102 338 102 338 128 338 c 2,9,-1
 364 338 l 2,0,1
16 563 m 1,10,-1
 472 563 l 1,11,-1
 472 522 l 1,12,-1
 265 522 l 1,13,-1
 265 0 l 1,14,-1
 224 0 l 1,15,-1
 224 522 l 1,16,-1
 16 522 l 1,17,-1
 16 563 l 1,10,-1
EndSplineSet
EndChar

StartChar: tbar
Encoding: 359 359 294
Width: 529
GlyphClass: 2
Flags: W
LayerCount: 2
Fore
SplineSet
69 236 m 2,0,1
 38 236 38 236 38 255 c 0,2,3
 38 275 38 275 68 275 c 2,4,-1
 401 275 l 2,5,6
 430 275 430 275 430 255 c 0,7,8
 430 236 430 236 402 236 c 2,9,-1
 69 236 l 2,0,1
181 417 m 1,10,-1
 401 417 l 2,11,12
 428 417 428 417 428 397 c 0,13,14
 428 376 428 376 401 376 c 2,15,-1
 181 376 l 1,16,-1
 181 109 l 2,17,18
 181 71 181 71 211 48 c 128,-1,19
 241 25 241 25 293 25 c 0,20,21
 335 25 335 25 382.5 36.5 c 128,-1,22
 430 48 430 48 459 65 c 0,23,24
 469 71 469 71 475 71 c 0,25,26
 482 71 482 71 488 65 c 128,-1,27
 494 59 494 59 494 51 c 0,28,29
 494 29 494 29 426.5 6.5 c 128,-1,30
 359 -16 359 -16 295 -16 c 0,31,32
 224 -16 224 -16 182 17.5 c 128,-1,33
 140 51 140 51 140 107 c 2,34,-1
 140 376 l 1,35,-1
 66 376 l 2,36,37
 38 376 38 376 38 397 c 0,38,39
 38 417 38 417 66 417 c 2,40,-1
 140 417 l 1,41,-1
 140 536 l 2,42,43
 140 563 140 563 161 563 c 0,44,45
 181 563 181 563 181 536 c 2,46,-1
 181 417 l 1,10,-1
EndSplineSet
EndChar

StartChar: Utilde
Encoding: 360 360 295
Width: 570
GlyphClass: 2
Flags: W
LayerCount: 2
Fore
SplineSet
418 714 m 0,0,1
 427 714 427 714 432.5 708 c 128,-1,2
 438 702 438 702 438 693 c 0,3,4
 438 683 438 683 418 663 c 0,5,6
 382 627 382 627 350 627 c 0,7,8
 317 627 317 627 268 659 c 1,9,10
 237 676 237 676 226 676 c 0,11,12
 210 676 210 676 199.5 669.5 c 128,-1,13
 189 663 189 663 166 638 c 0,14,15
 158 630 158 630 150 630 c 0,16,17
 130 630 130 630 130 649 c 0,18,19
 130 658 130 658 148 679 c 1,20,21
 188 715 188 715 224 715 c 0,22,23
 249 715 249 715 288 693 c 0,24,25
 331 668 331 668 346 668 c 0,26,27
 359 668 359 668 369.5 675.5 c 128,-1,28
 380 683 380 683 402 706 c 1,29,30
 413 714 413 714 418 714 c 0,0,1
484 563 m 1,31,-1
 484 185 l 2,32,33
 484 100 484 100 426.5 42 c 128,-1,34
 369 -16 369 -16 285 -16 c 0,35,36
 200 -16 200 -16 143 41.5 c 128,-1,37
 86 99 86 99 86 185 c 2,38,-1
 86 563 l 1,39,-1
 127 563 l 1,40,-1
 127 185 l 2,41,42
 127 117 127 117 172.5 71 c 128,-1,43
 218 25 218 25 285 25 c 0,44,45
 351 25 351 25 397 71.5 c 128,-1,46
 443 118 443 118 443 185 c 2,47,-1
 443 563 l 1,48,-1
 484 563 l 1,31,-1
EndSplineSet
EndChar

StartChar: Ubreve
Encoding: 364 364 299
Width: 570
GlyphClass: 2
Flags: W
LayerCount: 2
Fore
SplineSet
160 759 m 0,0,1
 174 759 174 759 180 739 c 1,2,3
 183 710 183 710 212.5 690.5 c 128,-1,4
 242 671 242 671 284 671 c 0,5,6
 325 671 325 671 355 691 c 128,-1,7
 385 711 385 711 388 739 c 0,8,9
 391 759 391 759 408 759 c 0,10,11
 428 759 428 759 428 737 c 0,12,13
 428 692 428 692 386.5 661 c 128,-1,14
 345 630 345 630 284 630 c 0,15,16
 224 630 224 630 182 661 c 128,-1,17
 140 692 140 692 140 737 c 0,18,19
 140 759 140 759 160 759 c 0,0,1
484 563 m 1,20,-1
 484 185 l 2,21,22
 484 100 484 100 426.5 42 c 128,-1,23
 369 -16 369 -16 285 -16 c 0,24,25
 200 -16 200 -16 143 41.5 c 128,-1,26
 86 99 86 99 86 185 c 2,27,-1
 86 563 l 1,28,-1
 127 563 l 1,29,-1
 127 185 l 2,30,31
 127 117 127 117 172.5 71 c 128,-1,32
 218 25 218 25 285 25 c 0,33,34
 351 25 351 25 397 71.5 c 128,-1,35
 443 118 443 118 443 185 c 2,36,-1
 443 563 l 1,37,-1
 484 563 l 1,20,-1
EndSplineSet
EndChar

StartChar: ubreve
Encoding: 365 365 300
Width: 525
GlyphClass: 2
Flags: W
LayerCount: 2
Fore
SplineSet
131 613 m 0,0,1
 145 613 145 613 151 593 c 1,2,3
 154 564 154 564 183.5 544.5 c 128,-1,4
 213 525 213 525 255 525 c 0,5,6
 296 525 296 525 326 545 c 128,-1,7
 356 565 356 565 359 593 c 0,8,9
 362 613 362 613 379 613 c 0,10,11
 399 613 399 613 399 591 c 0,12,13
 399 546 399 546 357.5 515 c 128,-1,14
 316 484 316 484 255 484 c 0,15,16
 195 484 195 484 153 515 c 128,-1,17
 111 546 111 546 111 591 c 0,18,19
 111 613 111 613 131 613 c 0,0,1
443 417 m 1,20,-1
 443 0 l 1,21,-1
 402 0 l 1,22,-1
 402 66 l 1,23,24
 318 -16 318 -16 220 -16 c 0,25,26
 160 -16 160 -16 123.5 20 c 128,-1,27
 87 56 87 56 87 115 c 2,28,-1
 87 417 l 1,29,-1
 128 417 l 1,30,-1
 128 115 l 2,31,32
 128 77 128 77 154.5 51 c 128,-1,33
 181 25 181 25 219 25 c 0,34,35
 319 25 319 25 402 115 c 1,36,-1
 402 417 l 1,37,-1
 443 417 l 1,20,-1
EndSplineSet
EndChar

StartChar: Uring
Encoding: 366 366 301
Width: 570
GlyphClass: 2
Flags: W
LayerCount: 2
Fore
SplineSet
285 811 m 0,0,1
 324 811 324 811 351 784.5 c 128,-1,2
 378 758 378 758 378 719 c 0,3,4
 378 683 378 683 350.5 656.5 c 128,-1,5
 323 630 323 630 285 630 c 128,-1,6
 247 630 247 630 219.5 657 c 128,-1,7
 192 684 192 684 192 721 c 128,-1,8
 192 758 192 758 219.5 784.5 c 128,-1,9
 247 811 247 811 285 811 c 0,0,1
285 778 m 128,-1,11
 260 778 260 778 242.5 761 c 128,-1,12
 225 744 225 744 225 721 c 0,13,14
 225 697 225 697 242.5 680 c 128,-1,15
 260 663 260 663 285 663 c 128,-1,16
 310 663 310 663 327.5 680 c 128,-1,17
 345 697 345 697 345 720 c 0,18,19
 345 744 345 744 327.5 761 c 128,-1,10
 310 778 310 778 285 778 c 128,-1,11
484 563 m 1,20,-1
 484 185 l 2,21,22
 484 100 484 100 426.5 42 c 128,-1,23
 369 -16 369 -16 285 -16 c 0,24,25
 200 -16 200 -16 143 41.5 c 128,-1,26
 86 99 86 99 86 185 c 2,27,-1
 86 563 l 1,28,-1
 127 563 l 1,29,-1
 127 185 l 2,30,31
 127 117 127 117 172.5 71 c 128,-1,32
 218 25 218 25 285 25 c 0,33,34
 351 25 351 25 397 71.5 c 128,-1,35
 443 118 443 118 443 185 c 2,36,-1
 443 563 l 1,37,-1
 484 563 l 1,20,-1
EndSplineSet
EndChar

StartChar: uring
Encoding: 367 367 302
Width: 525
GlyphClass: 2
Flags: W
LayerCount: 2
Fore
SplineSet
263 661 m 0,0,1
 302 661 302 661 329 634.5 c 128,-1,2
 356 608 356 608 356 569 c 0,3,4
 356 533 356 533 328.5 506.5 c 128,-1,5
 301 480 301 480 263 480 c 128,-1,6
 225 480 225 480 197.5 507 c 128,-1,7
 170 534 170 534 170 571 c 128,-1,8
 170 608 170 608 197.5 634.5 c 128,-1,9
 225 661 225 661 263 661 c 0,0,1
263 628 m 128,-1,11
 238 628 238 628 220.5 611 c 128,-1,12
 203 594 203 594 203 571 c 0,13,14
 203 547 203 547 220.5 530 c 128,-1,15
 238 513 238 513 263 513 c 128,-1,16
 288 513 288 513 305.5 530 c 128,-1,17
 323 547 323 547 323 570 c 0,18,19
 323 594 323 594 305.5 611 c 128,-1,10
 288 628 288 628 263 628 c 128,-1,11
443 417 m 1,20,-1
 443 0 l 1,21,-1
 402 0 l 1,22,-1
 402 66 l 1,23,24
 318 -16 318 -16 220 -16 c 0,25,26
 160 -16 160 -16 123.5 20 c 128,-1,27
 87 56 87 56 87 115 c 2,28,-1
 87 417 l 1,29,-1
 128 417 l 1,30,-1
 128 115 l 2,31,32
 128 77 128 77 154.5 51 c 128,-1,33
 181 25 181 25 219 25 c 0,34,35
 319 25 319 25 402 115 c 1,36,-1
 402 417 l 1,37,-1
 443 417 l 1,20,-1
EndSplineSet
EndChar

StartChar: Uhungarumlaut
Encoding: 368 368 303
Width: 570
GlyphClass: 2
Flags: W
LayerCount: 2
Fore
SplineSet
316 743 m 2,0,-1
 219 649 l 1,1,2
 208 640 208 640 200 640 c 128,-1,3
 192 640 192 640 186 646 c 128,-1,4
 180 652 180 652 180 661 c 0,5,6
 180 669 180 669 192 680 c 2,7,-1
 290 774 l 2,8,9
 299 783 299 783 308 783 c 0,10,11
 316 783 316 783 322 777 c 128,-1,12
 328 771 328 771 328 762 c 0,13,14
 328 755 328 755 316 743 c 2,0,-1
458 743 m 2,15,-1
 360 649 l 2,16,17
 350 640 350 640 341 640 c 0,18,19
 333 640 333 640 327 646 c 128,-1,20
 321 652 321 652 321 661 c 128,-1,21
 321 670 321 670 330 677 c 1,22,-1
 333 680 l 1,23,-1
 431 774 l 1,24,25
 442 783 442 783 450 783 c 128,-1,26
 458 783 458 783 464 777 c 128,-1,27
 470 771 470 771 470 762 c 0,28,29
 470 754 470 754 458 743 c 2,15,-1
484 563 m 1,30,-1
 484 185 l 2,31,32
 484 100 484 100 426.5 42 c 128,-1,33
 369 -16 369 -16 285 -16 c 0,34,35
 200 -16 200 -16 143 41.5 c 128,-1,36
 86 99 86 99 86 185 c 2,37,-1
 86 563 l 1,38,-1
 127 563 l 1,39,-1
 127 185 l 2,40,41
 127 117 127 117 172.5 71 c 128,-1,42
 218 25 218 25 285 25 c 0,43,44
 351 25 351 25 397 71.5 c 128,-1,45
 443 118 443 118 443 185 c 2,46,-1
 443 563 l 1,47,-1
 484 563 l 1,30,-1
EndSplineSet
EndChar

StartChar: Uogonek
Encoding: 370 370 305
Width: 570
GlyphClass: 2
Flags: W
LayerCount: 2
Fore
SplineSet
384 39 m 1,0,-1
 384 3 l 1,1,2
 356 -19 356 -19 340 -44.5 c 128,-1,3
 324 -70 324 -70 324 -89 c 0,4,5
 324 -123 324 -123 367 -123 c 0,6,7
 389 -123 389 -123 416 -107 c 0,8,9
 420 -104 420 -104 424 -104 c 0,10,11
 429 -104 429 -104 433.5 -108.5 c 128,-1,12
 438 -113 438 -113 438 -119 c 0,13,14
 438 -132 438 -132 413.5 -143.5 c 128,-1,15
 389 -155 389 -155 361 -155 c 0,16,17
 325 -155 325 -155 305 -139 c 128,-1,18
 285 -123 285 -123 285 -94 c 0,19,20
 285 -36 285 -36 362 0 c 1,21,-1
 384 39 l 1,0,-1
484 563 m 1,22,-1
 484 185 l 2,23,24
 484 100 484 100 426.5 42 c 128,-1,25
 369 -16 369 -16 285 -16 c 0,26,27
 200 -16 200 -16 143 41.5 c 128,-1,28
 86 99 86 99 86 185 c 2,29,-1
 86 563 l 1,30,-1
 127 563 l 1,31,-1
 127 185 l 2,32,33
 127 117 127 117 172.5 71 c 128,-1,34
 218 25 218 25 285 25 c 0,35,36
 351 25 351 25 397 71.5 c 128,-1,37
 443 118 443 118 443 185 c 2,38,-1
 443 563 l 1,39,-1
 484 563 l 1,22,-1
EndSplineSet
EndChar

StartChar: uogonek
Encoding: 371 371 306
Width: 519
GlyphClass: 2
Flags: W
LayerCount: 2
Fore
SplineSet
402 41 m 1,0,-1
 477 41 l 2,1,2
 504 41 504 41 504 21 c 0,3,4
 504 8 504 8 491 2 c 0,5,6
 405 -45 405 -45 405 -89 c 0,7,8
 405 -123 405 -123 448 -123 c 0,9,10
 470 -123 470 -123 497 -107 c 0,11,12
 501 -104 501 -104 505 -104 c 0,13,14
 510 -104 510 -104 514.5 -108.5 c 128,-1,15
 519 -113 519 -113 519 -119 c 0,16,17
 519 -132 519 -132 494.5 -143.5 c 128,-1,18
 470 -155 470 -155 442 -155 c 0,19,20
 406 -155 406 -155 386 -139 c 128,-1,21
 366 -123 366 -123 366 -94 c 0,22,23
 366 -63 366 -63 383.5 -41.5 c 128,-1,24
 401 -20 401 -20 443 0 c 1,25,-1
 402 0 l 1,26,-1
 402 41 l 1,0,-1
443 417 m 1,27,-1
 443 0 l 1,28,-1
 402 0 l 1,29,-1
 402 66 l 1,30,31
 318 -16 318 -16 220 -16 c 0,32,33
 160 -16 160 -16 123.5 20 c 128,-1,34
 87 56 87 56 87 115 c 2,35,-1
 87 417 l 1,36,-1
 128 417 l 1,37,-1
 128 115 l 2,38,39
 128 77 128 77 154.5 51 c 128,-1,40
 181 25 181 25 219 25 c 0,41,42
 319 25 319 25 402 115 c 1,43,-1
 402 417 l 1,44,-1
 443 417 l 1,27,-1
EndSplineSet
EndChar

StartChar: Ydieresis
Encoding: 376 376 311
Width: 486
GlyphClass: 2
Flags: W
LayerCount: 2
Fore
SplineSet
132 761 m 0,0,1
 153 761 153 761 167.5 746 c 128,-1,2
 182 731 182 731 182 710 c 0,3,4
 182 690 182 690 167 675.5 c 128,-1,5
 152 661 152 661 132 661 c 128,-1,6
 112 661 112 661 97 676 c 128,-1,7
 82 691 82 691 82 711 c 128,-1,8
 82 731 82 731 97 746 c 128,-1,9
 112 761 112 761 132 761 c 0,0,1
353 761 m 0,10,11
 374 761 374 761 388.5 746 c 128,-1,12
 403 731 403 731 403 710 c 0,13,14
 403 690 403 690 388 675.5 c 128,-1,15
 373 661 373 661 353 661 c 128,-1,16
 333 661 333 661 318 676 c 128,-1,17
 303 691 303 691 303 711 c 128,-1,18
 303 731 303 731 318 746 c 128,-1,19
 333 761 333 761 353 761 c 0,10,11
17 563 m 1,20,-1
 66 563 l 1,21,-1
 246 295 l 1,22,-1
 422 563 l 1,23,-1
 468 563 l 1,24,-1
 265 254 l 1,25,-1
 265 0 l 1,26,-1
 224 0 l 1,27,-1
 224 254 l 1,28,-1
 17 563 l 1,20,-1
EndSplineSet
EndChar

StartChar: zdotaccent
Encoding: 380 380 315
Width: 440
GlyphClass: 2
Flags: W
LayerCount: 2
Fore
SplineSet
218 611 m 0,0,1
 239 611 239 611 253.5 596 c 128,-1,2
 268 581 268 581 268 560 c 0,3,4
 268 540 268 540 253 525.5 c 128,-1,5
 238 511 238 511 218 511 c 128,-1,6
 198 511 198 511 183 526 c 128,-1,7
 168 541 168 541 168 561 c 128,-1,8
 168 581 168 581 183 596 c 128,-1,9
 198 611 198 611 218 611 c 0,0,1
407 0 m 1,10,-1
 33 0 l 1,11,-1
 33 36 l 1,12,-1
 334 376 l 1,13,-1
 42 376 l 1,14,-1
 42 417 l 1,15,-1
 392 417 l 1,16,-1
 392 381 l 1,17,-1
 89 41 l 1,18,-1
 407 41 l 1,19,-1
 407 0 l 1,10,-1
EndSplineSet
EndChar

StartChar: Zcaron
Encoding: 381 381 316
Width: 462
GlyphClass: 2
Flags: W
LayerCount: 2
Fore
SplineSet
227 640 m 1,0,-1
 95 749 l 1,1,2
 82 758 82 758 82 769 c 0,3,4
 82 777 82 777 88 783 c 128,-1,5
 94 789 94 789 102 789 c 0,6,7
 109 789 109 789 120 781 c 2,8,-1
 227 693 l 1,9,-1
 334 781 l 2,10,11
 345 789 345 789 352 789 c 0,12,13
 360 789 360 789 366 782.5 c 128,-1,14
 372 776 372 776 372 769 c 0,15,16
 372 759 372 759 359 748 c 2,17,-1
 227 640 l 1,0,-1
52 563 m 1,18,-1
 401 563 l 1,19,-1
 401 505 l 1,20,-1
 73 45 l 1,21,-1
 73 41 l 1,22,-1
 428 41 l 1,23,-1
 428 0 l 1,24,-1
 34 0 l 1,25,-1
 34 59 l 1,26,-1
 362 519 l 1,27,-1
 362 522 l 1,28,-1
 52 522 l 1,29,-1
 52 563 l 1,18,-1
EndSplineSet
EndChar

StartChar: zcaron
Encoding: 382 382 317
Width: 440
GlyphClass: 2
Flags: W
LayerCount: 2
Fore
SplineSet
216 490 m 1,0,-1
 84 599 l 1,1,2
 71 608 71 608 71 619 c 0,3,4
 71 627 71 627 77 633 c 128,-1,5
 83 639 83 639 91 639 c 0,6,7
 98 639 98 639 109 631 c 2,8,-1
 216 543 l 1,9,-1
 323 631 l 2,10,11
 334 639 334 639 341 639 c 0,12,13
 349 639 349 639 355 632.5 c 128,-1,14
 361 626 361 626 361 619 c 0,15,16
 361 609 361 609 348 598 c 2,17,-1
 216 490 l 1,0,-1
407 0 m 1,18,-1
 33 0 l 1,19,-1
 33 36 l 1,20,-1
 334 376 l 1,21,-1
 42 376 l 1,22,-1
 42 417 l 1,23,-1
 392 417 l 1,24,-1
 392 381 l 1,25,-1
 89 41 l 1,26,-1
 407 41 l 1,27,-1
 407 0 l 1,18,-1
EndSplineSet
EndChar

StartChar: longs
Encoding: 383 383 318
Width: 473
GlyphClass: 2
Flags: W
LayerCount: 2
Fore
SplineSet
199 41 m 1,0,-1
 381 41 l 2,1,2
 407 41 407 41 407 20 c 0,3,4
 407 11 407 11 399.5 5.5 c 128,-1,5
 392 0 392 0 381 0 c 2,6,-1
 61 0 l 2,7,8
 35 0 35 0 35 20 c 0,9,10
 35 41 35 41 61 41 c 2,11,-1
 161 41 l 1,12,-1
 161 376 l 1,13,-1
 73 376 l 2,14,15
 45 376 45 376 45 396 c 0,16,17
 45 418 45 418 73 418 c 2,18,-1
 161 418 l 1,19,-1
 161 478 l 2,20,21
 161 532 161 532 203.5 568 c 128,-1,22
 246 604 246 604 313 604 c 0,23,24
 386 604 386 604 455 591 c 1,25,26
 471 586 471 586 471 572 c 0,27,28
 471 563 471 563 464.5 556.5 c 128,-1,29
 458 550 458 550 449 550 c 1,30,-1
 399 557 l 1,31,32
 347 563 347 563 313 563 c 0,33,34
 263 563 263 563 231 539 c 128,-1,35
 199 515 199 515 199 478 c 2,36,-1
 199 41 l 1,0,-1
EndSplineSet
EndChar

StartChar: florin
Encoding: 402 402 319
Width: 431
GlyphClass: 2
Flags: W
LayerCount: 2
Fore
SplineSet
232 375 m 1,0,-1
 328 375 l 2,1,2
 355 375 355 375 355 355 c 0,3,4
 355 334 355 334 328 334 c 2,5,-1
 232 334 l 1,6,-1
 232 58 l 2,7,8
 232 -5 232 -5 189 -49 c 128,-1,9
 146 -93 146 -93 85 -93 c 0,10,11
 42 -93 42 -93 10 -77 c 0,12,13
 -2 -71 -2 -71 -2 -59 c 0,14,15
 -2 -51 -2 -51 3.5 -45 c 128,-1,16
 9 -39 9 -39 16 -39 c 0,17,18
 19 -39 19 -39 48 -47 c 1,19,20
 61 -52 61 -52 86 -52 c 0,21,22
 132 -52 132 -52 161.5 -19.5 c 128,-1,23
 191 13 191 13 191 64 c 2,24,-1
 191 334 l 1,25,-1
 95 334 l 2,26,27
 68 334 68 334 68 355 c 0,28,29
 68 375 68 375 95 375 c 2,30,-1
 191 375 l 1,31,-1
 191 462 l 2,32,33
 191 527 191 527 234.5 572.5 c 128,-1,34
 278 618 278 618 342 618 c 0,35,36
 385 618 385 618 415 604 c 0,37,38
 429 598 429 598 429 586 c 0,39,40
 429 578 429 578 423.5 572 c 128,-1,41
 418 566 418 566 410 566 c 0,42,43
 407 566 407 566 385 572 c 0,44,45
 370 577 370 577 346 577 c 0,46,47
 295 577 295 577 263.5 545 c 128,-1,48
 232 513 232 513 232 462 c 2,49,-1
 232 375 l 1,0,-1
EndSplineSet
EndChar

StartChar: Ohorn
Encoding: 416 416 320
Width: 681
GlyphClass: 2
Flags: W
LayerCount: 2
Fore
SplineSet
455 492 m 1,0,1
 451 498 451 498 460 496 c 0,2,3
 463 496 463 496 469 494 c 0,4,5
 480 492 480 492 480 493 c 0,6,7
 481 494 481 494 479 496 c 1,8,9
 520 522 520 522 520 569 c 0,10,11
 520 585 520 585 511 599.5 c 128,-1,12
 502 614 502 614 490 621 c 1,13,-1
 464 621 l 2,14,15
 441 621 441 621 441 601 c 128,-1,16
 441 581 441 581 464 581 c 2,17,-1
 477 581 l 1,18,19
 481 577 481 577 481 567 c 0,20,21
 481 537 481 537 448 525 c 1,22,23
 446 527 446 527 447 523 c 0,24,25
 448 520 448 520 451 510 c 0,26,27
 457 492 457 492 455 492 c 1,0,1
307 576 m 0,28,29
 413 576 413 576 484.5 489.5 c 128,-1,30
 556 403 556 403 556 276 c 0,31,32
 556 155 556 155 483 69.5 c 128,-1,33
 410 -16 410 -16 307 -16 c 0,34,35
 203 -16 203 -16 130.5 70 c 128,-1,36
 58 156 58 156 58 280 c 128,-1,37
 58 404 58 404 130.5 490 c 128,-1,38
 203 576 203 576 307 576 c 0,28,29
307 535 m 0,39,40
 221 535 221 535 160 460 c 128,-1,41
 99 385 99 385 99 280 c 128,-1,42
 99 175 99 175 160 100 c 128,-1,43
 221 25 221 25 307 25 c 0,44,45
 392 25 392 25 453.5 99.5 c 128,-1,46
 515 174 515 174 515 277 c 0,47,48
 515 385 515 385 454.5 460 c 128,-1,49
 394 535 394 535 307 535 c 0,39,40
EndSplineSet
EndChar

StartChar: ohorn
Encoding: 417 417 321
Width: 579
GlyphClass: 2
Flags: W
LayerCount: 2
Fore
SplineSet
440 348 m 1,0,1
 445 345 445 345 442 356 c 0,2,3
 436 379 436 379 437 379 c 0,4,5
 470 391 470 391 470 421 c 0,6,7
 470 431 470 431 466 435 c 1,8,-1
 453 435 l 2,9,10
 430 435 430 435 430 455 c 128,-1,11
 430 475 430 475 453 475 c 2,12,-1
 479 475 l 1,13,14
 515 460 515 460 515 423 c 0,15,16
 515 374 515 374 467 348 c 1,17,18
 471 343 471 343 466 345 c 0,19,20
 464 345 464 345 458 348 c 0,21,22
 440 356 440 356 439 352 c 0,23,24
 439 350 439 350 440 348 c 1,0,1
290 431 m 0,25,26
 386 431 386 431 452 365.5 c 128,-1,27
 518 300 518 300 518 205 c 0,28,29
 518 113 518 113 451 48.5 c 128,-1,30
 384 -16 384 -16 290 -16 c 0,31,32
 195 -16 195 -16 128.5 49 c 128,-1,33
 62 114 62 114 62 208 c 0,34,35
 62 300 62 300 128.5 365.5 c 128,-1,36
 195 431 195 431 290 431 c 0,25,26
290 390 m 0,37,38
 212 390 212 390 157.5 337 c 128,-1,39
 103 284 103 284 103 208 c 128,-1,40
 103 132 103 132 157.5 78.5 c 128,-1,41
 212 25 212 25 290 25 c 0,42,43
 367 25 367 25 422 78 c 128,-1,44
 477 131 477 131 477 205 c 0,45,46
 477 284 477 284 423 337 c 128,-1,47
 369 390 369 390 290 390 c 0,37,38
EndSplineSet
EndChar

StartChar: Uhorn
Encoding: 431 431 322
Width: 623
GlyphClass: 2
Flags: W
LayerCount: 2
Fore
SplineSet
455 500 m 1,0,-1
 482 522 l 1,1,2
 497 525 497 525 509.5 538 c 128,-1,3
 522 551 522 551 522 567 c 0,4,5
 522 577 522 577 518 581 c 1,6,-1
 505 581 l 2,7,8
 482 581 482 581 482 601 c 128,-1,9
 482 621 482 621 505 621 c 2,10,-1
 531 621 l 1,11,12
 543 614 543 614 552 599.5 c 128,-1,13
 561 585 561 585 561 569 c 0,14,15
 561 533 561 533 536.5 509 c 128,-1,16
 512 485 512 485 482 482 c 1,17,-1
 455 500 l 1,0,-1
482 563 m 1,18,-1
 482 185 l 2,19,20
 482 100 482 100 424.5 42 c 128,-1,21
 367 -16 367 -16 283 -16 c 0,22,23
 198 -16 198 -16 141 41.5 c 128,-1,24
 84 99 84 99 84 185 c 2,25,-1
 84 563 l 1,26,-1
 125 563 l 1,27,-1
 125 185 l 2,28,29
 125 117 125 117 170.5 71 c 128,-1,30
 216 25 216 25 283 25 c 0,31,32
 349 25 349 25 395 71.5 c 128,-1,33
 441 118 441 118 441 185 c 2,34,-1
 441 563 l 1,35,-1
 482 563 l 1,18,-1
EndSplineSet
EndChar

StartChar: uhorn
Encoding: 432 432 323
Width: 584
GlyphClass: 2
Flags: W
LayerCount: 2
Fore
SplineSet
424 354 m 1,0,-1
 444 376 l 1,1,2
 459 379 459 379 471.5 392 c 128,-1,3
 484 405 484 405 484 421 c 0,4,5
 484 431 484 431 480 435 c 1,6,-1
 467 435 l 2,7,8
 444 435 444 435 444 455 c 128,-1,9
 444 475 444 475 467 475 c 2,10,-1
 493 475 l 1,11,12
 505 468 505 468 514 453.5 c 128,-1,13
 523 439 523 439 523 423 c 0,14,15
 523 387 523 387 498.5 363 c 128,-1,16
 474 339 474 339 444 336 c 1,17,-1
 424 354 l 1,0,-1
444 417 m 1,18,-1
 444 0 l 1,19,-1
 403 0 l 1,20,-1
 403 66 l 1,21,22
 319 -16 319 -16 221 -16 c 0,23,24
 161 -16 161 -16 124.5 20 c 128,-1,25
 88 56 88 56 88 115 c 2,26,-1
 88 417 l 1,27,-1
 129 417 l 1,28,-1
 129 115 l 2,29,30
 129 77 129 77 155.5 51 c 128,-1,31
 182 25 182 25 220 25 c 0,32,33
 320 25 320 25 403 115 c 1,34,-1
 403 417 l 1,35,-1
 444 417 l 1,18,-1
EndSplineSet
EndChar

StartChar: circumflex
Encoding: 710 710 326
Width: 459
GlyphClass: 2
Flags: W
LayerCount: 2
Fore
SplineSet
230 639 m 1,0,-1
 362 531 l 2,1,2
 375 520 375 520 375 510 c 0,3,4
 375 502 375 502 369 496 c 128,-1,5
 363 490 363 490 355 490 c 0,6,7
 348 490 348 490 337 498 c 2,8,-1
 230 586 l 1,9,-1
 123 498 l 2,10,11
 112 490 112 490 105 490 c 0,12,13
 97 490 97 490 91 496 c 128,-1,14
 85 502 85 502 85 510 c 0,15,16
 85 521 85 521 98 530 c 1,17,-1
 230 639 l 1,0,-1
EndSplineSet
EndChar

StartChar: caron
Encoding: 711 711 327
Width: 459
GlyphClass: 2
Flags: W
LayerCount: 2
Fore
SplineSet
230 490 m 1,0,-1
 98 599 l 1,1,2
 85 608 85 608 85 619 c 0,3,4
 85 627 85 627 91 633 c 128,-1,5
 97 639 97 639 105 639 c 0,6,7
 112 639 112 639 123 631 c 2,8,-1
 230 543 l 1,9,-1
 337 631 l 2,10,11
 348 639 348 639 355 639 c 128,-1,12
 362 639 362 639 368.5 632.5 c 128,-1,13
 375 626 375 626 375 619 c 0,14,15
 375 609 375 609 362 598 c 2,16,-1
 230 490 l 1,0,-1
EndSplineSet
EndChar

StartChar: breve
Encoding: 728 728 328
Width: 440
GlyphClass: 2
Flags: W
LayerCount: 2
Fore
SplineSet
96 620 m 0,0,1
 113 620 113 620 116 598 c 1,2,3
 118 569 118 569 148 550 c 128,-1,4
 178 531 178 531 220 531 c 128,-1,5
 262 531 262 531 291.5 550 c 128,-1,6
 321 569 321 569 324 598 c 0,7,8
 327 620 327 620 345 620 c 0,9,10
 353 620 353 620 359 613.5 c 128,-1,11
 365 607 365 607 365 597 c 0,12,13
 365 552 365 552 323 521 c 128,-1,14
 281 490 281 490 220 490 c 128,-1,15
 159 490 159 490 117 521 c 128,-1,16
 75 552 75 552 75 597 c 0,17,18
 75 620 75 620 96 620 c 0,0,1
EndSplineSet
EndChar

StartChar: dotaccent
Encoding: 729 729 329
Width: 450
GlyphClass: 2
Flags: W
LayerCount: 2
Fore
SplineSet
225 611 m 0,0,1
 246 611 246 611 260.5 596 c 128,-1,2
 275 581 275 581 275 560 c 0,3,4
 275 540 275 540 260 525.5 c 128,-1,5
 245 511 245 511 225 511 c 128,-1,6
 205 511 205 511 190 526 c 128,-1,7
 175 541 175 541 175 561 c 128,-1,8
 175 581 175 581 190 596 c 128,-1,9
 205 611 205 611 225 611 c 0,0,1
EndSplineSet
EndChar

StartChar: ring
Encoding: 730 730 330
Width: 386
GlyphClass: 2
Flags: W
LayerCount: 2
Fore
SplineSet
193 661 m 0,0,1
 232 661 232 661 259 634.5 c 128,-1,2
 286 608 286 608 286 569 c 0,3,4
 286 533 286 533 258.5 506.5 c 128,-1,5
 231 480 231 480 193 480 c 128,-1,6
 155 480 155 480 127.5 507 c 128,-1,7
 100 534 100 534 100 571 c 128,-1,8
 100 608 100 608 127.5 634.5 c 128,-1,9
 155 661 155 661 193 661 c 0,0,1
193 628 m 128,-1,11
 168 628 168 628 150.5 611 c 128,-1,12
 133 594 133 594 133 571 c 0,13,14
 133 547 133 547 150.5 530 c 128,-1,15
 168 513 168 513 193 513 c 128,-1,16
 218 513 218 513 235.5 530 c 128,-1,17
 253 547 253 547 253 570 c 0,18,19
 253 594 253 594 235.5 611 c 128,-1,10
 218 628 218 628 193 628 c 128,-1,11
EndSplineSet
EndChar

StartChar: ogonek
Encoding: 731 731 331
Width: 390
GlyphClass: 2
Flags: W
LayerCount: 2
Fore
SplineSet
257 0 m 1,0,-1
 230 -15 l 2,1,2
 172 -48 172 -48 172 -89 c 0,3,4
 172 -123 172 -123 215 -123 c 0,5,6
 237 -123 237 -123 264 -107 c 0,7,8
 269 -104 269 -104 272 -104 c 0,9,10
 277 -104 277 -104 281.5 -108.5 c 128,-1,11
 286 -113 286 -113 286 -119 c 0,12,13
 286 -132 286 -132 261.5 -143.5 c 128,-1,14
 237 -155 237 -155 209 -155 c 0,15,16
 173 -155 173 -155 153 -139 c 128,-1,17
 133 -123 133 -123 133 -94 c 0,18,19
 133 -36 133 -36 210 0 c 1,20,-1
 257 0 l 1,0,-1
EndSplineSet
EndChar

StartChar: tilde
Encoding: 732 732 332
Width: 470
GlyphClass: 2
Flags: W
LayerCount: 2
Fore
SplineSet
369 603 m 128,-1,1
 377 603 377 603 383 597 c 128,-1,2
 389 591 389 591 389 583 c 0,3,4
 389 573 389 573 367 552 c 0,5,6
 331 516 331 516 298 516 c 0,7,8
 269 516 269 516 217 547 c 1,9,10
 191 564 191 564 174 564 c 0,11,12
 159 564 159 564 148.5 557 c 128,-1,13
 138 550 138 550 116 527 c 1,14,15
 110 519 110 519 99 519 c 0,16,17
 91 519 91 519 85 524.5 c 128,-1,18
 79 530 79 530 79 538 c 0,19,20
 79 549 79 549 98 568 c 1,21,22
 138 605 138 605 173 605 c 0,23,24
 198 605 198 605 237 582 c 1,25,26
 282 557 282 557 296 557 c 0,27,28
 309 557 309 557 319.5 564.5 c 128,-1,29
 330 572 330 572 353 595 c 0,30,0
 361 603 361 603 369 603 c 128,-1,1
EndSplineSet
EndChar

StartChar: hungarumlaut
Encoding: 733 733 333
Width: 435
GlyphClass: 2
Flags: W
LayerCount: 2
Fore
SplineSet
236 593 m 2,0,-1
 139 499 l 2,1,2
 129 490 129 490 120 490 c 0,3,4
 112 490 112 490 106 496 c 128,-1,5
 100 502 100 502 100 511 c 0,6,7
 100 519 100 519 112 530 c 2,8,-1
 210 624 l 2,9,10
 219 633 219 633 228 633 c 0,11,12
 236 633 236 633 242 627 c 128,-1,13
 248 621 248 621 248 612 c 0,14,15
 248 605 248 605 236 593 c 2,0,-1
378 593 m 2,16,-1
 280 499 l 1,17,18
 269 490 269 490 261 490 c 128,-1,19
 253 490 253 490 247 496 c 128,-1,20
 241 502 241 502 241 511 c 128,-1,21
 241 520 241 520 250 527 c 1,22,-1
 253 530 l 1,23,-1
 351 624 l 2,24,25
 361 633 361 633 370 633 c 0,26,27
 378 633 378 633 384 627 c 128,-1,28
 390 621 390 621 390 612 c 0,29,30
 390 604 390 604 378 593 c 2,16,-1
EndSplineSet
EndChar

StartChar: Delta
Encoding: 916 916 334
Width: 600
GlyphClass: 2
Flags: W
LayerCount: 2
Fore
SplineSet
43 0 m 1,0,-1
 278 563 l 1,1,-1
 322 563 l 1,2,-1
 557 0 l 1,3,-1
 43 0 l 1,0,-1
103 40 m 1,4,-1
 497 40 l 1,5,-1
 300 513 l 1,6,-1
 103 40 l 1,4,-1
EndSplineSet
EndChar

StartChar: mu
Encoding: 956 956 335
Width: 594
GlyphClass: 2
Flags: W
LayerCount: 2
Fore
SplineSet
204 16 m 1,0,-1
 204 -173 l 2,1,2
 204 -200 204 -200 183 -200 c 0,3,4
 163 -200 163 -200 163 -173 c 2,5,-1
 163 377 l 1,6,-1
 109 377 l 2,7,8
 82 377 82 377 82 397 c 128,-1,9
 82 417 82 417 109 417 c 2,10,-1
 204 417 l 1,11,-1
 204 115 l 2,12,13
 204 74 204 74 229.5 49 c 128,-1,14
 255 24 255 24 295 24 c 0,15,16
 396 24 396 24 478 115 c 1,17,-1
 478 377 l 1,18,-1
 404 377 l 2,19,20
 376 377 376 377 376 397 c 128,-1,21
 376 417 376 417 404 417 c 2,22,-1
 519 417 l 1,23,-1
 519 40 l 1,24,-1
 553 40 l 2,25,26
 580 40 580 40 580 20 c 128,-1,27
 580 0 580 0 553 0 c 2,28,-1
 478 0 l 1,29,-1
 478 59 l 1,30,31
 398 -16 398 -16 297 -16 c 0,32,33
 240 -16 240 -16 204 16 c 1,0,-1
EndSplineSet
EndChar

StartChar: uni0400
Encoding: 1024 1024 336
Width: 536
GlyphClass: 2
Flags: W
LayerCount: 2
Fore
SplineSet
161 780 m 1,0,-1
 275 680 l 1,1,-1
 282 672 l 2,2,3
 287 667 287 667 287 661 c 0,4,5
 287 652 287 652 281 646 c 128,-1,6
 275 640 275 640 266 640 c 0,7,8
 258 640 258 640 248 649 c 2,9,-1
 134 749 l 2,10,11
 122 760 122 760 122 769 c 0,12,13
 122 777 122 777 128 783 c 128,-1,14
 134 789 134 789 142 789 c 0,15,16
 149 789 149 789 161 780 c 1,0,-1
445 522 m 1,17,-1
 111 522 l 1,18,-1
 111 313 l 1,19,-1
 297 313 l 1,20,-1
 297 272 l 1,21,-1
 111 272 l 1,22,-1
 111 41 l 1,23,-1
 466 41 l 1,24,-1
 466 0 l 1,25,-1
 70 0 l 1,26,-1
 70 563 l 1,27,-1
 445 563 l 1,28,-1
 445 522 l 1,17,-1
EndSplineSet
EndChar

StartChar: afii10023
Encoding: 1025 1025 337
Width: 536
GlyphClass: 2
Flags: W
LayerCount: 2
Fore
SplineSet
146 751 m 2,0,-1
 172 751 l 2,1,2
 191 751 191 751 191 725 c 2,3,-1
 191 668 l 2,4,5
 191 641 191 641 172 641 c 2,6,-1
 146 641 l 2,7,8
 126 641 126 641 126 668 c 2,9,-1
 126 725 l 2,10,11
 126 751 126 751 146 751 c 2,0,-1
322 751 m 2,12,-1
 348 751 l 2,13,14
 367 751 367 751 367 725 c 2,15,-1
 367 668 l 2,16,17
 367 641 367 641 348 641 c 2,18,-1
 322 641 l 2,19,20
 302 641 302 641 302 668 c 2,21,-1
 302 725 l 2,22,23
 302 751 302 751 322 751 c 2,12,-1
445 522 m 1,24,-1
 111 522 l 1,25,-1
 111 313 l 1,26,-1
 297 313 l 1,27,-1
 297 272 l 1,28,-1
 111 272 l 1,29,-1
 111 41 l 1,30,-1
 466 41 l 1,31,-1
 466 0 l 1,32,-1
 70 0 l 1,33,-1
 70 563 l 1,34,-1
 445 563 l 1,35,-1
 445 522 l 1,24,-1
EndSplineSet
EndChar

StartChar: afii10051
Encoding: 1026 1026 338
Width: 600
GlyphClass: 2
Flags: W
LayerCount: 2
Fore
SplineSet
402 522 m 1,0,-1
 237 522 l 1,1,-1
 237 302 l 1,2,3
 252 326 252 326 294.5 345.5 c 128,-1,4
 337 365 337 365 393 365 c 0,5,6
 469 365 469 365 516 333.5 c 128,-1,7
 563 302 563 302 563 253 c 2,8,-1
 563 9 l 2,9,10
 563 -22 563 -22 553.5 -43.5 c 128,-1,11
 544 -65 544 -65 530.5 -76.5 c 128,-1,12
 517 -88 517 -88 494.5 -94 c 128,-1,13
 472 -100 472 -100 455 -101.5 c 128,-1,14
 438 -103 438 -103 413 -103 c 1,15,-1
 413 -69 l 1,16,17
 467 -69 467 -69 494.5 -54 c 128,-1,18
 522 -39 522 -39 522 9 c 2,19,-1
 522 249 l 2,20,21
 522 279 522 279 484.5 301.5 c 128,-1,22
 447 324 447 324 389 324 c 0,23,24
 339 324 339 324 288 297 c 128,-1,25
 237 270 237 270 237 243 c 2,26,-1
 237 0 l 1,27,-1
 195 0 l 1,28,-1
 195 522 l 1,29,-1
 27 522 l 1,30,-1
 27 563 l 1,31,-1
 402 563 l 1,32,-1
 402 522 l 1,0,-1
EndSplineSet
EndChar

StartChar: afii10053
Encoding: 1028 1028 340
Width: 600
GlyphClass: 2
Flags: W
LayerCount: 2
Fore
SplineSet
520 423 m 0,0,1
 520 396 520 396 502 396 c 0,2,3
 480 396 480 396 480 421 c 1,4,5
 477 466 477 466 425 500.5 c 128,-1,6
 373 535 373 535 306 535 c 0,7,8
 223 535 223 535 164.5 472 c 128,-1,9
 106 409 106 409 106 319 c 2,10,-1
 106 313 l 1,11,-1
 376 313 l 2,12,13
 402 313 402 313 402 292 c 0,14,15
 402 272 402 272 376 272 c 2,16,-1
 106 272 l 1,17,-1
 106 247 l 2,18,19
 106 157 106 157 171 91 c 128,-1,20
 236 25 236 25 326 25 c 0,21,22
 376 25 376 25 416 46 c 128,-1,23
 456 67 456 67 498 115 c 1,24,25
 506 126 506 126 518 126 c 0,26,27
 525 126 525 126 530.5 119.5 c 128,-1,28
 536 113 536 113 536 105 c 0,29,30
 536 90 536 90 498 55 c 1,31,32
 425 -16 425 -16 326 -16 c 0,33,34
 223 -16 223 -16 143.5 62.5 c 128,-1,35
 64 141 64 141 64 242 c 2,36,-1
 64 325 l 2,37,38
 64 370 64 370 83.5 419 c 128,-1,39
 103 468 103 468 136 503 c 0,40,41
 205 577 205 577 306 577 c 0,42,43
 405 577 405 577 480 508 c 0,44,45
 497 492 497 492 508.5 463 c 128,-1,46
 520 434 520 434 520 423 c 0,0,1
EndSplineSet
EndChar

StartChar: afii10058
Encoding: 1033 1033 345
Width: 600
GlyphClass: 2
Flags: W
LayerCount: 2
Fore
SplineSet
304 0 m 1,0,-1
 304 522 l 1,1,-1
 188 522 l 1,2,-1
 188 77 l 2,3,4
 188 40 188 40 160.5 20 c 128,-1,5
 133 0 133 0 98 0 c 0,6,7
 69 0 69 0 40.5 21 c 128,-1,8
 12 42 12 42 12 77 c 2,9,-1
 12 99 l 2,10,11
 12 127 12 127 34 127 c 0,12,13
 42 127 42 127 48.5 119.5 c 128,-1,14
 55 112 55 112 55 99 c 2,15,-1
 55 80 l 2,16,17
 55 62 55 62 70.5 51.5 c 128,-1,18
 86 41 86 41 98 41 c 0,19,20
 146 41 146 41 146 80 c 2,21,-1
 146 563 l 1,22,-1
 345 563 l 1,23,-1
 345 332 l 1,24,-1
 386 332 l 2,25,26
 471 332 471 332 530 283.5 c 128,-1,27
 589 235 589 235 589 165 c 128,-1,28
 589 95 589 95 534.5 47.5 c 128,-1,29
 480 0 480 0 400 0 c 2,30,-1
 304 0 l 1,0,-1
345 291 m 1,31,-1
 345 41 l 1,32,-1
 404 41 l 2,33,34
 464 41 464 41 506 77.5 c 128,-1,35
 548 114 548 114 548 165 c 0,36,37
 548 217 548 217 501.5 254 c 128,-1,38
 455 291 455 291 390 291 c 2,39,-1
 345 291 l 1,31,-1
EndSplineSet
EndChar

StartChar: afii10059
Encoding: 1034 1034 346
Width: 600
GlyphClass: 2
Flags: W
LayerCount: 2
Fore
SplineSet
70 0 m 1,0,-1
 70 563 l 1,1,-1
 109 563 l 1,2,-1
 109 313 l 1,3,-1
 294 313 l 1,4,-1
 294 563 l 1,5,-1
 336 563 l 1,6,-1
 336 332 l 1,7,-1
 386 332 l 2,8,9
 470 332 470 332 528.5 283.5 c 128,-1,10
 587 235 587 235 587 165 c 128,-1,11
 587 95 587 95 532.5 47.5 c 128,-1,12
 478 0 478 0 400 0 c 2,13,-1
 294 0 l 1,14,-1
 294 272 l 1,15,-1
 109 272 l 1,16,-1
 109 0 l 1,17,-1
 70 0 l 1,0,-1
336 291 m 1,18,-1
 336 41 l 1,19,-1
 402 41 l 2,20,21
 462 41 462 41 504 77.5 c 128,-1,22
 546 114 546 114 546 165 c 0,23,24
 546 217 546 217 499.5 254 c 128,-1,25
 453 291 453 291 388 291 c 2,26,-1
 336 291 l 1,18,-1
EndSplineSet
EndChar

StartChar: afii10060
Encoding: 1035 1035 347
Width: 600
GlyphClass: 2
Flags: W
LayerCount: 2
Fore
SplineSet
27 522 m 1,0,-1
 27 563 l 1,1,-1
 402 563 l 1,2,-1
 402 522 l 1,3,-1
 237 522 l 1,4,-1
 237 302 l 1,5,6
 252 326 252 326 294.5 345.5 c 128,-1,7
 337 365 337 365 393 365 c 0,8,9
 469 365 469 365 516 333.5 c 128,-1,10
 563 302 563 302 563 253 c 2,11,-1
 563 0 l 1,12,-1
 522 0 l 1,13,-1
 522 249 l 2,14,15
 522 279 522 279 484.5 301.5 c 128,-1,16
 447 324 447 324 389 324 c 0,17,18
 339 324 339 324 288 297 c 128,-1,19
 237 270 237 270 237 243 c 2,20,-1
 237 0 l 1,21,-1
 195 0 l 1,22,-1
 195 522 l 1,23,-1
 27 522 l 1,0,-1
EndSplineSet
EndChar

StartChar: afii10061
Encoding: 1036 1036 348
Width: 534
GlyphClass: 2
Flags: W
LayerCount: 2
Fore
SplineSet
314 712 m 1,0,-1
 202 612 l 2,1,2
 193 604 193 604 184 604 c 0,3,4
 164 604 164 604 164 624 c 0,5,6
 164 632 164 632 176 643 c 2,7,-1
 290 742 l 1,8,9
 301 753 301 753 308 753 c 0,10,11
 316 753 316 753 322 746 c 128,-1,12
 328 739 328 739 328 731 c 0,13,14
 328 721 328 721 314 712 c 1,0,-1
452 0 m 1,15,-1
 404 0 l 1,16,17
 349 152 349 152 306 211.5 c 128,-1,18
 263 271 263 271 192 294 c 1,19,-1
 111 221 l 1,20,-1
 111 0 l 1,21,-1
 70 0 l 1,22,-1
 70 563 l 1,23,-1
 111 563 l 1,24,-1
 111 273 l 1,25,-1
 437 563 l 1,26,-1
 494 563 l 1,27,-1
 226 324 l 1,28,29
 278 303 278 303 308.5 274.5 c 128,-1,30
 339 246 339 246 371.5 184.5 c 128,-1,31
 404 123 404 123 452 0 c 1,15,-1
EndSplineSet
EndChar

StartChar: uni040D
Encoding: 1037 1037 349
Width: 600
GlyphClass: 2
Flags: W
LayerCount: 2
Fore
SplineSet
258 742 m 1,0,-1
 372 643 l 1,1,-1
 378 635 l 1,2,3
 384 631 384 631 384 624 c 0,4,5
 384 615 384 615 377.5 609.5 c 128,-1,6
 371 604 371 604 362 604 c 128,-1,7
 353 604 353 604 344 612 c 2,8,-1
 232 712 l 1,9,10
 220 720 220 720 220 731 c 0,11,12
 220 753 220 753 238 753 c 0,13,14
 240 753 240 753 258 742 c 1,0,-1
124 0 m 1,15,-1
 124 563 l 1,16,-1
 165 563 l 1,17,-1
 165 162 l 1,18,-1
 436 429 l 1,19,-1
 436 563 l 1,20,-1
 475 563 l 1,21,-1
 475 0 l 1,22,-1
 436 0 l 1,23,-1
 436 377 l 1,24,-1
 165 108 l 1,25,-1
 165 0 l 1,26,-1
 124 0 l 1,15,-1
EndSplineSet
EndChar

StartChar: afii10145
Encoding: 1039 1039 351
Width: 600
GlyphClass: 2
Flags: W
LayerCount: 2
Fore
SplineSet
124 0 m 1,0,-1
 124 563 l 1,1,-1
 165 563 l 1,2,-1
 165 41 l 1,3,-1
 434 41 l 1,4,-1
 434 563 l 1,5,-1
 476 563 l 1,6,-1
 476 0 l 1,7,-1
 330 0 l 1,8,-1
 330 -99 l 2,9,10
 330 -126 330 -126 310 -126 c 0,11,12
 288 -126 288 -126 288 -99 c 2,13,-1
 288 0 l 1,14,-1
 124 0 l 1,0,-1
EndSplineSet
EndChar

StartChar: afii10018
Encoding: 1041 1041 353
Width: 600
GlyphClass: 2
Flags: W
LayerCount: 2
Fore
SplineSet
517 522 m 1,0,-1
 174 522 l 1,1,-1
 174 313 l 1,2,-1
 320 313 l 2,3,4
 385 313 385 313 432.5 298 c 128,-1,5
 480 283 480 283 504 258 c 128,-1,6
 528 233 528 233 538.5 207 c 128,-1,7
 549 181 549 181 549 153 c 0,8,9
 549 90 549 90 501 45 c 128,-1,10
 453 0 453 0 384 0 c 2,11,-1
 134 0 l 1,12,-1
 134 563 l 1,13,-1
 517 563 l 1,14,-1
 517 522 l 1,0,-1
174 41 m 1,15,-1
 382 41 l 2,16,17
 435 41 435 41 472.5 74 c 128,-1,18
 510 107 510 107 510 153 c 0,19,20
 510 211 510 211 448 247 c 0,21,22
 404 272 404 272 324 272 c 2,23,-1
 174 272 l 1,24,-1
 174 41 l 1,15,-1
EndSplineSet
EndChar

StartChar: afii10019
Encoding: 1042 1042 354
Width: 600
GlyphClass: 2
Flags: W
LayerCount: 2
Fore
SplineSet
130 0 m 1,0,-1
 130 563 l 1,1,-1
 334 563 l 2,2,3
 407 563 407 563 456 521.5 c 128,-1,4
 505 480 505 480 505 418 c 0,5,6
 505 344 505 344 420 298 c 1,7,8
 547 253 547 253 547 153 c 0,9,10
 547 90 547 90 498.5 45 c 128,-1,11
 450 0 450 0 382 0 c 2,12,-1
 130 0 l 1,0,-1
318 313 m 0,13,-1
171 313 m 1,14,-1
 318 313 l 2,15,16
 382 313 382 313 423 343 c 128,-1,17
 464 373 464 373 464 419 c 0,18,19
 464 463 464 463 427 492.5 c 128,-1,20
 390 522 390 522 335 522 c 2,21,-1
 171 522 l 1,22,-1
 171 313 l 1,14,-1
171 41 m 1,23,-1
 379 41 l 2,24,25
 432 41 432 41 469 73.5 c 128,-1,26
 506 106 506 106 506 153 c 0,27,28
 506 211 506 211 447 246 c 0,29,30
 403 272 403 272 320 272 c 2,31,-1
 171 272 l 1,32,-1
 171 41 l 1,23,-1
EndSplineSet
EndChar

StartChar: afii10020
Encoding: 1043 1043 355
Width: 600
GlyphClass: 2
Flags: W
LayerCount: 2
Fore
SplineSet
539 522 m 1,0,-1
 184 522 l 1,1,-1
 184 0 l 1,2,-1
 142 0 l 1,3,-1
 142 563 l 1,4,-1
 539 563 l 1,5,-1
 539 522 l 1,0,-1
EndSplineSet
EndChar

StartChar: afii10021
Encoding: 1044 1044 356
Width: 600
GlyphClass: 2
Flags: W
LayerCount: 2
Fore
SplineSet
469 563 m 1,0,-1
 469 41 l 1,1,-1
 567 41 l 1,2,-1
 567 -99 l 2,3,4
 567 -126 567 -126 548 -126 c 0,5,6
 526 -126 526 -126 526 -99 c 2,7,-1
 526 0 l 1,8,-1
 73 0 l 1,9,-1
 73 -99 l 2,10,11
 73 -126 73 -126 54 -126 c 0,12,13
 32 -126 32 -126 32 -99 c 2,14,-1
 32 41 l 1,15,-1
 140 41 l 1,16,17
 174 75 174 75 174 108 c 2,18,-1
 174 563 l 1,19,-1
 469 563 l 1,0,-1
184 41 m 1,20,-1
 428 41 l 1,21,-1
 428 522 l 1,22,-1
 215 522 l 1,23,-1
 215 108 l 2,24,25
 215 85 215 85 207.5 68.5 c 128,-1,26
 200 52 200 52 192 46 c 2,27,-1
 184 41 l 1,20,-1
EndSplineSet
EndChar

StartChar: afii10024
Encoding: 1046 1046 358
Width: 600
GlyphClass: 2
Flags: W
LayerCount: 2
Fore
SplineSet
549 0 m 1,0,-1
 508 0 l 1,1,2
 476 136 476 136 436 194.5 c 128,-1,3
 396 253 396 253 322 286 c 1,4,-1
 322 0 l 1,5,-1
 280 0 l 1,6,-1
 280 286 l 1,7,8
 204 252 204 252 163 193.5 c 128,-1,9
 122 135 122 135 92 0 c 1,10,-1
 51 0 l 1,11,12
 61 72 61 72 80 127 c 128,-1,13
 99 182 99 182 126.5 218 c 128,-1,14
 154 254 154 254 182 276.5 c 128,-1,15
 210 299 210 299 246 316 c 1,16,-1
 20 563 l 1,17,-1
 70 563 l 1,18,-1
 280 336 l 1,19,-1
 280 563 l 1,20,-1
 322 563 l 1,21,-1
 322 336 l 1,22,-1
 529 563 l 1,23,-1
 580 563 l 1,24,-1
 354 316 l 1,25,26
 390 299 390 299 418 276.5 c 128,-1,27
 446 254 446 254 473.5 218 c 128,-1,28
 501 182 501 182 520 127 c 128,-1,29
 539 72 539 72 549 0 c 1,0,-1
EndSplineSet
EndChar

StartChar: afii10025
Encoding: 1047 1047 359
Width: 600
GlyphClass: 2
Flags: W
LayerCount: 2
Fore
SplineSet
114 434 m 0,0,1
 114 497 114 497 173 538.5 c 128,-1,2
 232 580 232 580 305 577 c 0,3,4
 377 574 377 574 431.5 529.5 c 128,-1,5
 486 485 486 485 486 421 c 0,6,7
 486 353 486 353 434 316 c 1,8,9
 403 300 403 300 398 299 c 1,10,-1
 398 291 l 1,11,12
 424 283 424 283 446 269 c 0,13,14
 508 232 508 232 508 151 c 0,15,16
 508 80 508 80 447 33 c 128,-1,17
 386 -14 386 -14 305 -16 c 0,18,19
 222 -18 222 -18 157 24.5 c 128,-1,20
 92 67 92 67 92 140 c 0,21,22
 92 167 92 167 112 167 c 0,23,24
 130 167 130 167 133 142 c 1,25,26
 134 93 134 93 183 59 c 128,-1,27
 232 25 232 25 300 25 c 0,28,29
 371 25 371 25 417.5 61.5 c 128,-1,30
 464 98 464 98 464 153 c 0,31,32
 464 209 464 209 418 237 c 1,33,34
 370 269 370 269 302 269 c 2,35,-1
 242 269 l 2,36,37
 214 269 214 269 214 291 c 0,38,39
 214 311 214 311 242 311 c 2,40,-1
 288 311 l 2,41,42
 350 311 350 311 402 343 c 1,43,44
 442 369 442 369 442 420 c 0,45,46
 442 469 442 469 401 502 c 128,-1,47
 360 535 360 535 298 535 c 0,48,49
 239 535 239 535 199 505 c 128,-1,50
 159 475 159 475 158 429 c 1,51,52
 155 407 155 407 134 407 c 0,53,54
 114 407 114 407 114 434 c 0,0,1
EndSplineSet
EndChar

StartChar: afii10026
Encoding: 1048 1048 360
Width: 600
GlyphClass: 2
Flags: W
LayerCount: 2
Fore
SplineSet
124 0 m 1,0,-1
 124 563 l 1,1,-1
 165 563 l 1,2,-1
 165 162 l 1,3,-1
 436 429 l 1,4,-1
 436 563 l 1,5,-1
 475 563 l 1,6,-1
 475 0 l 1,7,-1
 436 0 l 1,8,-1
 436 377 l 1,9,-1
 165 108 l 1,10,-1
 165 0 l 1,11,-1
 124 0 l 1,0,-1
EndSplineSet
EndChar

StartChar: afii10027
Encoding: 1049 1049 361
Width: 600
GlyphClass: 2
Flags: W
LayerCount: 2
Fore
SplineSet
176 770 m 0,0,1
 185 770 185 770 189 765 c 128,-1,2
 193 760 193 760 196 748 c 1,3,4
 199 720 199 720 228.5 701 c 128,-1,5
 258 682 258 682 300 682 c 0,6,7
 341 682 341 682 371 701 c 128,-1,8
 401 720 401 720 404 748 c 0,9,10
 407 770 407 770 424 770 c 0,11,12
 444 770 444 770 444 747 c 0,13,14
 444 703 444 703 402.5 672.5 c 128,-1,15
 361 642 361 642 300 642 c 0,16,17
 240 642 240 642 198 672.5 c 128,-1,18
 156 703 156 703 156 747 c 0,19,20
 156 770 156 770 176 770 c 0,0,1
124 0 m 1,21,-1
 124 563 l 1,22,-1
 165 563 l 1,23,-1
 165 162 l 1,24,-1
 436 429 l 1,25,-1
 436 563 l 1,26,-1
 475 563 l 1,27,-1
 475 0 l 1,28,-1
 436 0 l 1,29,-1
 436 377 l 1,30,-1
 165 108 l 1,31,-1
 165 0 l 1,32,-1
 124 0 l 1,21,-1
EndSplineSet
EndChar

StartChar: afii10029
Encoding: 1051 1051 363
Width: 600
GlyphClass: 2
Flags: W
LayerCount: 2
Fore
SplineSet
434 0 m 1,0,-1
 434 522 l 1,1,-1
 227 522 l 1,2,-1
 227 77 l 2,3,4
 227 40 227 40 200.5 20 c 128,-1,5
 174 0 174 0 138 0 c 0,6,7
 112 0 112 0 83 21 c 128,-1,8
 54 42 54 42 54 77 c 2,9,-1
 54 99 l 2,10,11
 54 127 54 127 72 127 c 0,12,13
 96 127 96 127 96 99 c 2,14,-1
 96 80 l 2,15,16
 96 62 96 62 112 51.5 c 128,-1,17
 128 41 128 41 142 41 c 0,18,19
 186 41 186 41 186 80 c 2,20,-1
 186 563 l 1,21,-1
 475 563 l 1,22,-1
 475 0 l 1,23,-1
 434 0 l 1,0,-1
EndSplineSet
EndChar

StartChar: afii10033
Encoding: 1055 1055 367
Width: 600
GlyphClass: 2
Flags: W
LayerCount: 2
Fore
SplineSet
476 563 m 1,0,-1
 476 0 l 1,1,-1
 434 0 l 1,2,-1
 434 522 l 1,3,-1
 165 522 l 1,4,-1
 165 0 l 1,5,-1
 124 0 l 1,6,-1
 124 563 l 1,7,-1
 476 563 l 1,0,-1
EndSplineSet
EndChar

StartChar: afii10037
Encoding: 1059 1059 371
Width: 600
GlyphClass: 2
Flags: W
LayerCount: 2
Fore
SplineSet
161 0 m 1,0,-1
 288 226 l 1,1,-1
 65 563 l 1,2,-1
 117 563 l 1,3,-1
 314 264 l 1,4,-1
 481 563 l 1,5,-1
 531 563 l 1,6,-1
 211 0 l 1,7,-1
 161 0 l 1,0,-1
EndSplineSet
EndChar

StartChar: afii10038
Encoding: 1060 1060 372
Width: 600
GlyphClass: 2
Flags: W
LayerCount: 2
Fore
SplineSet
280 421 m 1,0,-1
 214 421 l 2,1,2
 148 421 148 421 100 384.5 c 128,-1,3
 52 348 52 348 52 296 c 128,-1,4
 52 244 52 244 95.5 207.5 c 128,-1,5
 139 171 139 171 198 171 c 2,6,-1
 280 171 l 1,7,-1
 280 421 l 1,0,-1
280 0 m 1,8,-1
 280 131 l 1,9,-1
 200 131 l 2,10,11
 121 131 121 131 67.5 178 c 128,-1,12
 14 225 14 225 14 296 c 0,13,14
 14 365 14 365 72 413.5 c 128,-1,15
 130 462 130 462 214 462 c 2,16,-1
 280 462 l 1,17,-1
 280 563 l 1,18,-1
 321 563 l 1,19,-1
 321 462 l 1,20,-1
 384 462 l 2,21,22
 468 462 468 462 526.5 413.5 c 128,-1,23
 585 365 585 365 585 296 c 0,24,25
 585 225 585 225 531.5 178 c 128,-1,26
 478 131 478 131 398 131 c 2,27,-1
 321 131 l 1,28,-1
 321 0 l 1,29,-1
 280 0 l 1,8,-1
321 421 m 1,30,-1
 321 171 l 1,31,-1
 400 171 l 2,32,33
 461 171 461 171 503.5 207 c 128,-1,34
 546 243 546 243 546 296 c 0,35,36
 546 348 546 348 499.5 384.5 c 128,-1,37
 453 421 453 421 386 421 c 2,38,-1
 321 421 l 1,30,-1
EndSplineSet
EndChar

